<svg width="789" height="572" viewBox="0 0 789 572" fill="none" xmlns="http://www.w3.org/2000/svg">
<rect width="789" height="572" fill="#E5E5E5"/>
<g id="undraw_Ride_a_bicycle_2yok 1">
<g clip-path="url(#clip0)">
<g id="back">
<g id="Vector" filter="url(#filter0_dd)">
<path d="M156.45 84.1117C152.362 88.9574 150.788 95.7706 149.028 102.176C134.854 153.795 99.9285 195.316 60.1541 224.973C43.3103 237.535 22.8039 254.383 26.489 276.906C28.4732 289.002 37.1786 297.907 43.646 307.758C57.215 328.387 61.6161 356.427 55.1487 381.122C47.7935 409.22 27.2349 435.438 33.598 463.849C37.5217 481.338 50.8445 493.783 63.6526 504.48C83.6343 521.158 104.253 536.781 125.507 551.349C139.755 561.114 154.913 570.616 171.518 571.854C186.139 572.947 200.461 567.519 214.344 562.163C226.473 557.477 238.908 552.603 248.702 543.217C255.095 537.089 260.19 529.183 267.292 524.169C283.971 512.394 305.395 519.856 324.522 524.898C369.652 536.732 417.953 532.411 460.898 512.7C526.773 482.46 576.984 418.955 641.42 384.882C669.124 370.228 699.261 361.134 724.915 342.262C739.367 331.516 751.788 318.387 761.616 303.467C781.011 274.239 791.499 236.974 788.47 200.497C785.442 164.019 768.471 128.867 741.818 108.275C713.285 86.2321 677.248 82.1151 644.784 68.8822C611.26 55.2122 581.437 31.7195 548.234 17.0512C521.368 5.21494 492.129 -0.595427 462.664 0.0463768C433.199 0.688181 404.254 7.76586 377.955 20.7601C341.82 38.6128 305.194 80.2642 264.949 83.4267C236.275 85.6127 178.843 57.5731 156.45 84.1117Z" fill="url(#paint0_linear)"/>
</g>
</g>
<g id="man-bike">
<path id="Vector_2" d="M288.686 403.91L256.828 373.201L246.873 383.055L278.73 413.765L288.686 403.91Z" fill="#D1C9C9"/>
<path id="Vector_3" d="M264.427 358.504C264.427 358.504 282.92 348.973 290.066 342.837C294.368 339.16 298.993 335.861 303.888 332.978L327.088 319.184L375.575 315.541L377.813 323.556C377.813 323.556 381.543 335.215 344.245 345.417C306.947 355.618 288.298 371.649 288.298 371.649C288.298 371.649 264.427 379.635 264.427 358.504Z" fill="#DB8B8B"/>
<path id="Vector_4" opacity="0.1" d="M290.275 370.068C288.954 371.052 288.298 371.62 288.298 371.62C288.298 371.62 264.427 379.636 264.427 358.504C264.427 358.504 265.584 357.906 267.411 356.908C269.258 359.845 271.844 362.271 274.923 363.953C278.003 365.636 281.472 366.519 285.001 366.519H287.53L290.275 370.068Z" fill="black"/>
<path id="Vector_5" opacity="0.05" d="M377.112 327.579C375.038 331.87 367.884 338.924 344.245 345.388C313.951 353.673 295.959 365.791 290.275 370.068C288.954 371.052 288.298 371.62 288.298 371.62C288.298 371.62 264.427 379.636 264.427 358.504C264.427 358.504 265.584 357.906 267.411 356.908C272.954 353.942 284.688 347.435 290.043 342.808C294.345 339.13 298.97 335.831 303.866 332.949L327.065 319.155L335.704 318.506L375.553 315.512L377.791 323.527C377.791 323.527 378.313 325.094 377.112 327.579Z" fill="black"/>
<path id="Vector_6" d="M264.8 353.767L245.032 366.519L302.919 413.884C302.919 413.884 311.423 408.783 306.947 402.953C306.947 402.953 292.028 390.566 291.282 373.077L286.806 367.248H284.277C280.001 367.248 275.831 365.952 272.342 363.537C268.852 361.122 266.217 357.708 264.8 353.767V353.767Z" fill="#ABB1D1"/>
<path id="Vector_7" opacity="0.1" d="M377.112 327.579C365.176 321.946 336.039 321.341 336.039 321.341L335.726 318.506L375.575 315.512L377.813 323.527C377.813 323.527 378.313 325.094 377.112 327.579Z" fill="black"/>
<path id="Vector_8" d="M336.039 319.884C336.039 319.884 371.099 320.612 380.051 327.899L375.575 239.729H327.088L336.039 319.884Z" fill="#ABB1D1"/>
<path id="Vector_9" opacity="0.05" d="M336.039 319.519C336.039 319.519 371.099 320.248 380.051 327.535L375.575 239.364H327.088L336.039 319.519Z" fill="black"/>
<path id="Vector_10" d="M364.207 265.932C364.207 265.932 451.969 263.017 453.759 274.101C455.549 285.184 365.997 280.513 365.997 280.513C365.997 280.513 358.836 273.51 364.207 265.932Z" fill="#535461"/>
<path id="Vector_11" opacity="0.05" d="M364.207 265.932C364.207 265.932 451.969 263.017 453.759 274.101C455.549 285.184 365.997 280.513 365.997 280.513C365.997 280.513 358.836 273.51 364.207 265.932Z" fill="black"/>
<path id="Vector_12" d="M293.162 310.258H277.638V442.062H293.162V310.258Z" fill="#948686"/>
<path id="Vector_13" opacity="0.1" d="M293.162 310.25V320.401C288 321.057 282.718 321.472 277.638 321.633V310.25H293.162Z" fill="black"/>
<path id="Vector_14" d="M291.998 299.328C289.82 299.163 287.653 298.878 285.508 298.475C277.094 296.901 255.879 293.6 250.172 299.204C243.011 306.199 245.398 318.448 264.502 320.197C283.606 321.946 316.443 317.282 323.015 310.28C323.015 310.251 311.132 300.763 291.998 299.328Z" fill="#535461"/>
<path id="Vector_15" d="M288.984 346.415L451.976 296.843L457.347 309.092L290.178 365.076L288.984 346.415Z" fill="#948686"/>
<path id="Vector_16" d="M337.345 424.566L454.96 311.424L461.524 320.751L349.28 435.059L337.345 424.566Z" fill="#948686"/>
<path id="Vector_17" opacity="0.1" d="M487.543 386.092C483.817 387.033 480.182 388.294 476.682 389.859L469.551 370.396C473.294 368.802 477.147 367.47 481.083 366.41L487.543 386.092Z" fill="black"/>
<path id="Vector_18" d="M507.498 443.227L499.143 447.891L440.854 288.798L438.243 281.679L451.976 274.093L455.415 284.572L507.498 443.227Z" fill="#948686"/>
<path id="Vector_19" opacity="0.1" d="M455.415 284.572L440.854 288.798L438.243 281.679L451.976 274.093L455.415 284.572Z" fill="black"/>
<path id="Vector_20" d="M366.594 296.843L448.388 269.43C448.388 269.43 462.718 271.179 457.34 282.845L374.956 306.753C374.956 306.753 362.424 307.919 366.594 296.843Z" fill="#535461"/>
<path id="Vector_21" opacity="0.1" d="M274.356 448.765C274.355 453.235 274.001 457.698 273.297 462.115C266.136 461.612 258.736 460.883 251.485 460.155C253.096 451.49 252.895 442.597 250.896 434.01C257.96 432.552 265.173 431.161 272.215 429.9C273.642 436.092 274.36 442.419 274.356 448.765V448.765Z" fill="black"/>
<path id="Vector_22" opacity="0.1" d="M293.162 426.555V442.054H277.638V428.938C283.009 428.027 288.231 427.218 293.162 426.555Z" fill="black"/>
<path id="Vector_23" d="M192.86 448.496C192.86 448.496 318.241 416.434 328.386 428.668C338.531 440.903 349.28 457.24 317.666 463.069C286.053 468.899 190.495 453.152 190.495 453.152L192.86 448.496Z" fill="#948686"/>
<path id="Vector_24" opacity="0.1" d="M254.528 394.486L238.595 408.732C235.773 405.193 232.583 401.95 229.076 399.055L243.951 383.876C247.78 387.111 251.319 390.661 254.528 394.486V394.486Z" fill="black"/>
<path id="Vector_25" d="M188.683 442.062L282.412 346.415L285.404 368.574L193.457 450.806L188.683 442.062Z" fill="#948686"/>
<path id="Vector_26" opacity="0.1" d="M187.489 457.808C192.767 457.808 197.045 453.629 197.045 448.474C197.045 443.319 192.767 439.14 187.489 439.14C182.212 439.14 177.933 443.319 177.933 448.474C177.933 453.629 182.212 457.808 187.489 457.808Z" fill="black"/>
<path id="Vector_27" opacity="0.1" d="M503.619 456.934C508.896 456.934 513.175 452.755 513.175 447.6C513.175 442.444 508.896 438.265 503.619 438.265C498.341 438.265 494.063 442.444 494.063 447.6C494.063 452.755 498.341 456.934 503.619 456.934Z" fill="black"/>
<path id="Vector_28" opacity="0.1" d="M334.353 457.808C344.904 457.808 353.457 449.453 353.457 439.147C353.457 428.84 344.904 420.485 334.353 420.485C323.803 420.485 315.249 428.84 315.249 439.147C315.249 449.453 323.803 457.808 334.353 457.808Z" fill="black"/>
<path id="Vector_29" d="M335.554 457.808C346.105 457.808 354.658 449.453 354.658 439.147C354.658 428.84 346.105 420.485 335.554 420.485C325.004 420.485 316.45 428.84 316.45 439.147C316.45 449.453 325.004 457.808 335.554 457.808Z" fill="#535461"/>
<path id="Vector_30" d="M330.454 437.745L330.448 437.749C328.204 439.388 327.746 442.493 329.423 444.685L344.586 464.491C346.263 466.682 349.442 467.13 351.686 465.491L351.692 465.487C353.935 463.848 354.394 460.743 352.716 458.551L337.554 438.746C335.876 436.554 332.697 436.106 330.454 437.745Z" fill="#6C63FF"/>
<path id="Vector_31" d="M421.824 179.977L420.049 201.917C419.845 204.697 419.882 207.488 420.161 210.261C420.392 212.717 420.161 217.016 417.699 223.574C414.539 231.951 412.905 240.805 412.873 249.734V274.705L395.716 271.791C395.716 271.791 396.462 236.814 393.478 230.985C390.494 225.155 395.716 173.419 395.716 173.419L421.824 179.977Z" fill="#DB8B8B"/>
<path id="Vector_32" opacity="0.05" d="M420.944 190.849L420.049 201.917C419.847 204.694 419.887 207.483 420.168 210.254C420.4 212.709 420.168 217.008 417.707 223.574C414.546 231.951 412.913 240.805 412.88 249.734V274.705L395.723 271.791C395.723 271.791 396.469 236.814 393.486 230.985C391.374 226.853 393.374 199.695 394.724 184.196C395.283 177.82 395.723 173.419 395.723 173.419L421.832 179.977L420.944 190.849Z" fill="black"/>
<path id="Vector_33" d="M336.8 347.574L330.348 383.425C329.534 388.211 328.286 392.918 326.618 397.488C322.836 407.588 325.253 421.746 327.088 429.47C327.901 432.88 328.58 435.037 328.58 435.037L309.185 445.239L303.217 440.867V437.952L302.471 373.099C297.995 362.898 299.487 347.595 302.471 341.766C303.32 339.851 303.916 337.838 304.247 335.776C305.738 327.965 306.201 316.991 306.201 316.991C306.201 316.991 318.136 297.316 332.31 310.433C337.531 315.264 339.515 321.581 339.933 327.63C340.664 337.984 336.8 347.574 336.8 347.574Z" fill="#DB8B8B"/>
<path id="Vector_34" opacity="0.1" d="M339.933 327.608C329.587 333.612 311.587 335.31 304.247 335.754C305.738 327.943 306.201 316.969 306.201 316.969C306.201 316.969 318.136 297.295 332.309 310.411C337.531 315.242 339.515 321.56 339.933 327.608Z" fill="black"/>
<path id="Vector_35" d="M365.132 309.682C357.199 313.809 349.703 318.69 342.753 324.256C330.818 333.729 300.979 334.457 300.979 334.457V323.527C301.725 310.411 289.044 295.837 271.887 255.031C260.929 228.973 263.965 214.225 267.59 206.938C269.649 202.821 271.887 201.109 271.887 201.109L365.132 218.597L368.466 228.361L375.575 249.202C375.575 249.202 349.467 250.659 344.991 252.845C340.515 255.031 343.499 274.705 343.499 274.705C339.023 295.109 365.132 309.682 365.132 309.682Z" fill="#ABB1D1"/>
<path id="Vector_36" opacity="0.1" d="M421.824 179.977L420.944 190.849C407.965 194.492 398.7 182.892 398.7 182.892C397.346 183.246 396.015 183.682 394.716 184.196C395.276 177.82 395.716 173.419 395.716 173.419L421.824 179.977Z" fill="black"/>
<path id="Vector_37" opacity="0.1" d="M368.466 228.361C368.115 231.764 368.115 233.899 368.115 233.899C368.115 233.899 350.958 247.744 321.866 226.613C292.774 205.481 266.665 211.31 266.665 211.31C266.665 211.31 266.971 209.62 267.59 206.938C269.649 202.821 271.887 201.109 271.887 201.109L365.132 218.597L368.466 228.361Z" fill="black"/>
<path id="Vector_38" d="M431.88 151.522C429.933 166.351 429.284 185.041 429.284 185.041C412.127 198.158 398.7 181.398 398.7 181.398C382.498 185.646 374.881 199.498 371.293 211.587C369.371 218.126 368.304 224.876 368.116 231.677C368.116 231.677 363.58 235.32 355.225 236.049C347.326 236.697 336.002 234.686 321.866 224.39C292.774 203.258 266.665 209.088 266.665 209.088C266.665 209.088 271.887 179.941 283.822 171.196C295.758 162.452 304.709 151.522 319.628 118.003C334.547 84.4833 365.132 92.4988 365.132 92.4988C365.132 92.4988 366.624 85.9406 394.224 92.4988C400.947 94.2199 407.169 97.4399 412.403 101.906C427.166 114.031 434.327 132.839 431.88 151.522Z" fill="white"/>
<path id="Vector_39" d="M404.197 108.931C404.16 109.9 404.078 110.978 403.944 112.18C402.452 125.297 400.96 123.839 384.549 126.754C374.344 128.568 369.04 120.24 366.489 113.682C365.566 111.306 364.869 108.852 364.408 106.351L400.214 100.522C400.214 100.522 404.503 99.3484 404.197 108.931Z" fill="#DB8B8B"/>
<path id="Vector_40" opacity="0.05" d="M371.293 211.624C369.371 218.163 368.304 224.913 368.115 231.713C368.115 231.713 363.58 235.357 355.225 236.085C354.99 235.621 354.81 235.132 354.688 234.628C353.196 228.07 342.007 216.411 342.007 216.411C334.547 209.853 333.055 198.194 333.055 198.194L320.747 162.853L316.644 159.574C316.644 159.574 333.801 146.458 348.721 157.388C363.64 168.318 359.164 191.636 359.164 191.636L362.148 199.651C365.244 202.202 368.391 206.698 371.293 211.624Z" fill="black"/>
<path id="Vector_41" d="M318.882 158.845L335.293 197.465C335.293 197.465 336.785 209.124 344.245 215.682C344.245 215.682 355.434 227.341 356.926 233.899C358.418 240.457 379.305 257.946 379.305 257.946C379.305 257.946 398.7 275.434 400.192 281.992C400.192 281.992 418.095 287.093 415.857 297.295C415.857 297.295 429.284 284.178 415.857 271.791C402.43 259.403 384.527 233.899 384.527 233.899C384.527 233.899 374.083 206.938 364.386 198.923L361.402 190.907C361.402 190.907 365.878 167.589 350.958 156.659C336.039 145.729 318.882 158.845 318.882 158.845Z" fill="#DB8B8B"/>
<path id="Vector_42" opacity="0.1" d="M328.58 435.015L309.185 445.217L303.217 440.845V437.93C309.919 437.465 316.43 435.546 322.276 432.312C324.067 431.321 325.753 430.344 327.103 429.485C327.886 432.858 328.58 435.015 328.58 435.015Z" fill="black"/>
<path id="Vector_43" opacity="0.1" d="M350.958 128.241L361.402 168.318C361.402 168.318 329.326 173.419 322.612 168.318C315.898 163.217 303.217 161.76 303.217 161.76C303.217 161.76 316.644 123.868 324.104 119.496C331.564 115.124 350.958 128.241 350.958 128.241Z" fill="black"/>
<path id="Vector_44" d="M350.958 126.783L361.402 166.861C361.402 166.861 329.326 171.961 322.612 166.861C315.898 161.76 303.217 160.303 303.217 160.303C303.217 160.303 316.644 122.411 324.104 118.039C331.564 113.667 350.958 126.783 350.958 126.783Z" fill="white"/>
<path id="Vector_45" opacity="0.1" d="M404.197 108.202C402.108 111.019 399.451 113.389 396.389 115.166C393.327 116.943 389.926 118.089 386.394 118.534C382.862 118.979 379.274 118.713 375.851 117.753C372.428 116.794 369.242 115.16 366.489 112.953C365.566 110.577 364.869 108.123 364.408 105.622L400.214 99.7929C400.214 99.7929 404.503 98.6197 404.197 108.202Z" fill="black"/>
<path id="Vector_46" d="M409.143 92.5352C409.143 99.2992 406.392 105.786 401.496 110.569C396.6 115.352 389.959 118.039 383.035 118.039C376.11 118.039 369.469 115.352 364.573 110.569C359.677 105.786 356.926 99.2992 356.926 92.5352C356.926 92.1126 356.926 91.6899 356.926 91.2673C357.098 84.5033 360.014 78.083 365.032 73.419C370.05 68.755 376.759 66.2293 383.684 66.3974C390.608 66.5655 397.18 69.4138 401.955 74.3156C406.73 79.2174 409.315 85.7712 409.143 92.5352V92.5352Z" fill="#DB8B8B"/>
<path id="Vector_47" opacity="0.1" d="M409.143 92.5352C409.146 94.8857 408.814 97.2252 408.159 99.4868C406.14 99.9165 404.036 99.7282 402.131 98.9476C399.341 97.8764 396.947 96.0329 394.269 94.7067C386.727 90.9758 377.753 91.7118 369.399 92.9433C365.251 93.5554 360.544 94.1237 357.284 91.5442C357.172 91.4578 357.065 91.3654 356.963 91.2673C357.136 84.5033 360.051 78.0831 365.069 73.419C370.087 68.755 376.797 66.2293 383.721 66.3974C390.645 66.5655 397.218 69.4138 401.992 74.3156C406.767 79.2174 409.353 85.7712 409.18 92.5352H409.143Z" fill="black"/>
<path id="Vector_48" opacity="0.05" d="M287.179 170.868C287.179 170.868 306.574 175.969 312.542 189.085C318.509 202.202 334.652 204.599 334.652 204.599" fill="black"/>
<path id="Vector_49" d="M360.283 459.426H315.525V473.271H360.283V459.426Z" fill="#948686"/>
<path id="Vector_50" d="M322.247 433.733C326.252 431.547 329.766 429.361 330.072 428.457C330.072 428.457 340.179 438.877 349.183 442.113C352.211 443.205 355.109 444.612 357.829 446.31C361.394 448.496 366.482 451.068 371.099 451.068C371.099 451.068 381.543 459.812 361.402 461.27C341.261 462.727 294.266 457.626 294.266 457.626L297.249 439.409C305.968 439.909 314.648 437.937 322.247 433.733Z" fill="#ABB1D1"/>
</g>
<g id="left-wheel">
<path id="Vector_51" d="M193.548 520.42L188.871 449.053L188.774 448.9L184.059 450.503L162.367 512.331L127.866 488.438L182.821 449.519L182.873 449.366L183.186 449.257L186.73 446.743L129.112 415.184L114.998 430.34L117.236 444.549L183.492 445.73V447.187L115.998 446.007L113.447 429.874L132.767 409.135L161.673 376.199L162.188 377.562L168.305 371.004L191.027 374.982V374.1L192.518 374.144V375.244L226.355 381.161L194.809 442.815L190.206 446.072V446.437V446.845L263.161 422.011L254.5 488.474L192.586 449.949L190.407 448.754L226.915 506.232L193.548 520.42ZM190.564 451.676L194.928 518.263L224.803 505.598L190.564 451.676ZM130.455 488.423L161.628 510.014L182.023 451.909L130.455 488.423ZM191.862 447.865L193.421 448.717L253.359 486.026L261.415 424.183L191.862 447.865ZM186.566 442.618L188.438 445.57L188.766 445.336L191.004 376.454L168.819 372.578L162.732 379.136L186.566 442.618ZM130.306 414.156L186.133 444.761L185.163 443.209L161.606 380.345L133.864 410.126L130.306 414.156ZM192.518 376.709L190.281 444.272L193.652 441.882L224.169 382.262L192.518 376.709Z" fill="#535461"/>
<path id="Vector_52" d="M275.372 427.848C272.38 414.863 266.324 402.741 257.685 392.449C254.479 388.624 250.942 385.074 247.115 381.839C232.4 369.429 213.883 362.142 194.471 361.124C175.058 360.105 155.848 365.411 139.857 376.21C123.865 387.009 111.997 402.688 106.114 420.789C100.232 438.889 100.668 458.385 107.355 476.216C114.041 494.048 126.6 509.206 143.059 519.312C159.519 529.418 178.947 533.899 198.296 532.052C217.644 530.206 235.818 522.136 249.963 509.109C264.109 496.082 273.427 478.836 276.454 460.078C277.158 455.661 277.512 451.198 277.513 446.728C277.518 440.377 276.8 434.044 275.372 427.848ZM189.445 511.173C175.845 511.159 162.579 507.053 151.451 499.415C140.323 491.777 131.874 480.976 127.251 468.481C122.629 455.986 122.059 442.404 125.617 429.582C129.176 416.759 136.69 405.318 147.14 396.815C157.59 388.311 170.467 383.158 184.02 382.055C197.574 380.952 211.146 383.954 222.891 390.652C234.637 397.35 243.986 407.419 249.667 419.49C255.347 431.561 257.085 445.048 254.642 458.117C251.844 473.014 243.789 486.481 231.876 496.175C219.964 505.869 204.949 511.176 189.445 511.173V511.173Z" fill="#535461"/>
<path id="Vector_53" d="M189.445 455.771C194.723 455.771 199.001 451.592 199.001 446.437C199.001 441.281 194.723 437.102 189.445 437.102C184.168 437.102 179.889 441.281 179.889 446.437C179.889 451.592 184.168 455.771 189.445 455.771Z" fill="#535461"/>
</g>
<g id="right-wheel">
<path id="Vector_54" d="M507.639 520.748L502.969 449.411L502.872 449.258L498.158 450.861L476.458 512.66L441.957 488.759L496.927 449.841L496.979 449.687L497.292 449.578L500.836 447.064L443.218 415.505L429.097 430.662L431.335 444.871L497.576 446.022V447.48L430.082 446.299L427.545 430.188L446.858 409.457L475.742 376.542L476.256 377.905L482.373 371.347L505.155 375.333V374.451L506.647 374.495V375.595L540.483 381.512L508.907 443.195L504.304 446.452V446.816V447.225L577.267 422.391L568.606 488.854L506.691 450.329L504.513 449.134L541.02 506.619L507.639 520.748ZM504.655 452.005L509.019 518.592L538.894 505.927L504.655 452.005ZM444.553 488.759L475.727 510.35L496.121 452.245L444.553 488.759ZM505.96 448.201L507.519 449.054L567.457 486.362L575.514 424.519L505.96 448.201ZM500.664 442.954L502.536 445.906L502.865 445.672L505.103 376.79L482.918 372.899L476.831 379.457L500.664 442.954ZM444.426 414.499L500.254 445.104L499.284 443.552L475.727 380.689L447.977 410.477L444.426 414.499ZM506.617 377.053L504.379 444.594L507.751 442.204L538.268 382.583L506.617 377.053Z" fill="#535461"/>
<path id="Vector_55" d="M503.842 361C495.925 360.991 488.043 362.031 480.411 364.09C476.475 365.15 472.622 366.482 468.879 368.076C448.939 376.519 432.914 391.886 423.903 411.205C414.892 430.523 413.536 452.42 420.097 472.658C426.658 492.897 440.67 510.039 459.422 520.77C478.174 531.5 500.334 535.055 521.614 530.748C542.895 526.44 561.784 514.576 574.627 497.451C587.47 480.325 593.355 459.155 591.143 438.036C588.931 416.917 578.779 397.35 562.652 383.12C546.524 368.89 525.567 361.009 503.834 361H503.842ZM503.544 511.174C488.415 511.168 473.743 506.107 461.966 496.831C450.188 487.556 442.013 474.624 438.798 460.183C435.583 445.742 437.522 430.662 444.292 417.446C451.063 404.23 462.258 393.674 476.018 387.531C479.518 385.966 483.152 384.706 486.879 383.764C495.989 381.454 505.498 381.066 514.773 382.625C524.048 384.185 532.877 387.656 540.672 392.808C548.467 397.96 555.05 404.675 559.981 412.505C564.913 420.336 568.081 429.102 569.274 438.222C570.468 447.341 569.659 456.604 566.902 465.395C564.146 474.185 559.504 482.301 553.286 489.203C547.068 496.105 539.417 501.634 530.841 505.422C522.266 509.21 512.963 511.171 503.551 511.174H503.544Z" fill="#535461"/>
<path id="Vector_56" d="M503.544 456.1C508.821 456.1 513.099 451.921 513.099 446.765C513.099 441.61 508.821 437.431 503.544 437.431C498.266 437.431 493.988 441.61 493.988 446.765C493.988 451.921 498.266 456.1 503.544 456.1Z" fill="#535461"/>
</g>
<g id="hat">
<path id="Vector_57" d="M338.465 77.2799C340.054 82.1475 347.685 82.3005 351.602 85.8856C353.638 87.751 354.585 90.5054 356.823 92.1668C359.934 94.484 364.425 93.974 368.386 93.4202C376.36 92.3126 384.924 91.6495 392.115 95.0087C394.666 96.1964 396.956 97.8578 399.619 98.827C402.282 99.7961 405.587 99.9127 407.75 98.193C409.48 96.8158 410.115 94.5496 411.681 93.034C412.897 91.8389 414.59 91.1685 415.978 90.1192C419.021 87.8749 420.334 84.2169 421.199 80.7192C422.99 73.5199 423.504 65.7594 420.454 58.9317C417.403 52.1039 410.062 46.5441 402.051 46.9012C399.597 47.0105 397.202 47.6298 394.755 47.8922C388.377 48.5261 382.074 46.4348 375.674 46.0778C373.817 45.8571 371.934 46.1081 370.206 46.8064C368.903 47.5139 367.779 48.4974 366.916 49.6847C363.986 53.4341 361.98 57.7927 361.053 62.4221C360.307 65.9125 360.27 69.0749 355.891 69.6141C350.915 70.2554 335.101 66.9836 338.465 77.2799Z" fill="#472727"/>
</g>
</g>
</g>
<defs>
<filter id="filter0_dd" x="22.0548" y="-0.0015564" width="770.931" height="579.997" filterUnits="userSpaceOnUse" color-interpolation-filters="sRGB">
<feFlood flood-opacity="0" result="BackgroundImageFix"/>
<feColorMatrix in="SourceAlpha" type="matrix" values="0 0 0 0 0 0 0 0 0 0 0 0 0 0 0 0 0 0 127 0"/>
<feOffset dy="4"/>
<feGaussianBlur stdDeviation="2"/>
<feColorMatrix type="matrix" values="0 0 0 0 0 0 0 0 0 0 0 0 0 0 0 0 0 0 0.25 0"/>
<feBlend mode="normal" in2="BackgroundImageFix" result="effect1_dropShadow"/>
<feColorMatrix in="SourceAlpha" type="matrix" values="0 0 0 0 0 0 0 0 0 0 0 0 0 0 0 0 0 0 127 0"/>
<feOffset dy="4"/>
<feGaussianBlur stdDeviation="2"/>
<feColorMatrix type="matrix" values="0 0 0 0 0 0 0 0 0 0 0 0 0 0 0 0 0 0 0.25 0"/>
<feBlend mode="normal" in2="effect1_dropShadow" result="effect2_dropShadow"/>
<feBlend mode="normal" in="SourceGraphic" in2="effect2_dropShadow" result="shape"/>
</filter>
<linearGradient id="paint0_linear" x1="641" y1="13" x2="47" y2="509" gradientUnits="userSpaceOnUse">
<stop stop-color="#63DAFF"/>
<stop offset="0.994763" stop-color="#FF63DD"/>
</linearGradient>
<clipPath id="clip0">
<rect width="789" height="572" fill="white"/>
</clipPath>
</defs>
</svg>
