<svg width="848" height="591" viewBox="0 0 848 591" fill="none" xmlns="http://www.w3.org/2000/svg">
<rect width="848" height="591" fill="#E5E5E5"/>
<g id="undraw_Ride_a_bicycle_2yok 1">
<g clip-path="url(#clip0)">
<g id="Vector" opacity="0.1" filter="url(#filter0_d)">
<path d="M141.146 89.9072C136.752 94.9139 135.061 101.953 133.168 108.571C117.935 161.906 80.3979 204.805 37.6492 235.447C19.5459 248.427 -2.49393 265.834 1.46666 289.106C3.59929 301.604 12.9556 310.804 19.9067 320.983C34.4903 342.297 39.2206 371.268 32.2695 396.783C24.3643 425.815 2.2684 452.903 9.10724 482.258C13.3244 500.328 27.6435 513.187 41.4093 524.239C62.8853 541.47 85.0453 557.612 107.89 572.665C123.203 582.754 139.494 592.571 157.341 593.851C173.055 594.98 188.448 589.371 203.369 583.838C216.405 578.997 229.77 573.96 240.297 564.263C247.168 557.931 252.644 549.762 260.276 544.582C278.203 532.416 301.229 540.125 321.786 545.335C370.291 557.562 422.204 553.097 468.36 532.732C539.161 501.487 593.126 435.873 662.381 400.668C692.157 385.528 724.548 376.132 752.119 356.632C767.653 345.529 781.002 331.964 791.565 316.548C812.41 286.35 823.683 247.848 820.428 210.158C817.173 172.469 798.933 136.149 770.287 114.873C739.62 92.0981 700.888 87.8443 665.997 74.1719C629.966 60.0478 597.913 35.7747 562.227 20.6191C533.352 8.38977 501.927 2.3864 470.258 3.04953C438.589 3.71265 407.481 11.0254 379.214 24.4513C340.378 42.897 301.013 85.932 257.759 89.1995C226.94 91.4581 165.214 62.4871 141.146 89.9072Z" fill="#828282"/>
</g>
<g id="Rims">
<path id="Vector_2" d="M542.784 538.68L537.765 464.973L537.661 464.815L532.594 466.471L509.271 530.323L472.191 505.629L531.271 465.417L531.327 465.259L531.664 465.146L535.472 462.549L473.546 429.941L458.369 445.601L460.774 460.282L531.969 461.472V462.978L459.427 461.758L456.701 445.112L477.458 423.692L508.502 389.684L509.055 391.092L515.629 384.316L540.114 388.435V387.524L541.718 387.569V388.706L578.085 394.819L544.147 458.551L539.2 461.916V462.293V462.714L617.619 437.056L608.31 505.727L541.766 465.921L539.425 464.687L578.662 524.082L542.784 538.68ZM539.577 467.653L544.267 536.452L576.377 523.367L539.577 467.653ZM474.981 505.629L508.486 527.937L530.405 467.902L474.981 505.629ZM540.98 463.723L542.656 464.604L607.076 503.152L615.734 439.254L540.98 463.723ZM535.288 458.302L537.3 461.351L537.653 461.111L540.058 389.94L516.215 385.92L509.672 392.696L535.288 458.302ZM474.845 428.902L534.847 460.523L533.805 458.92L508.486 393.968L478.661 424.746L474.845 428.902ZM541.686 390.211L539.281 459.996L542.904 457.527L575.704 395.926L541.686 390.211Z" fill="#535461"/>
<path id="Vector_3" d="M201.091 538.379L196.064 464.642L195.96 464.483L190.893 466.14L167.578 530.022L130.498 505.335L189.562 465.123L189.618 464.965L189.955 464.852L193.763 462.255L131.837 429.647L116.668 445.307L119.073 459.989L190.283 461.208V462.714L117.742 461.495L115 444.826L135.765 423.399L166.832 389.368L167.386 390.776L173.96 384L198.381 388.111V387.2L199.984 387.245V388.382L236.351 394.495L202.446 458.197L197.499 461.562V461.939V462.36L275.909 436.702L266.601 505.373L200.057 465.568L197.715 464.333L236.953 523.721L201.091 538.379ZM197.884 467.352L202.574 536.151L234.684 523.065L197.884 467.352ZM133.28 505.32L166.784 527.628L188.704 467.593L133.28 505.32ZM199.279 463.414L200.954 464.295L265.374 502.843L274.033 438.946L199.279 463.414ZM193.587 457.994L195.599 461.043L195.952 460.802L198.357 389.632L174.513 385.626L167.971 392.402L193.587 457.994ZM133.119 428.586L193.122 460.207L192.079 458.603L166.76 393.652L136.944 424.422L133.119 428.586ZM199.984 389.895L197.579 459.703L201.203 457.233L234.002 395.632L199.984 389.895Z" fill="#535461"/>
</g>
<path id="Vector_4" d="M310.273 417.327L276.033 385.597L265.333 395.779L299.573 427.509L310.273 417.327Z" fill="#6C63FF"/>
<path id="Vector_5" opacity="0.1" d="M310.273 417.327L276.033 385.597L265.333 395.779L299.573 427.509L310.273 417.327Z" fill="black"/>
<path id="Vector_6" opacity="0.1" d="M311.981 382.36C310.562 383.377 309.856 383.964 309.856 383.964C309.856 383.964 284.201 392.246 284.201 370.412C284.201 370.412 285.443 369.795 287.408 368.763C289.392 371.798 292.172 374.304 295.482 376.043C298.791 377.781 302.52 378.694 306.313 378.694H309.031L311.981 382.36Z" fill="black"/>
<path id="Vector_7" d="M542.241 375.396C533.731 375.387 525.26 376.461 517.058 378.588C512.828 379.684 508.686 381.06 504.663 382.707C483.232 391.431 466.009 407.309 456.324 427.269C446.639 447.229 445.181 469.852 452.233 490.763C459.285 511.674 474.344 529.386 494.499 540.473C514.653 551.559 538.47 555.233 561.342 550.782C584.214 546.332 604.515 534.074 618.319 516.379C632.122 498.685 638.447 476.812 636.07 454.991C633.692 433.171 622.781 412.954 605.448 398.251C588.114 383.548 565.59 375.405 542.233 375.396H542.241ZM541.92 530.558C525.66 530.552 509.891 525.323 497.233 515.74C484.575 506.156 475.788 492.794 472.333 477.874C468.878 462.953 470.961 447.372 478.238 433.717C485.515 420.062 497.547 409.156 512.336 402.809C516.097 401.192 520.004 399.889 524.009 398.916C533.8 396.53 544.02 396.129 553.989 397.74C563.958 399.351 573.447 402.938 581.825 408.261C590.203 413.584 597.278 420.522 602.578 428.612C607.879 436.703 611.283 445.761 612.566 455.183C613.849 464.605 612.979 474.176 610.017 483.259C607.054 492.341 602.065 500.727 595.382 507.858C588.699 514.989 580.476 520.701 571.259 524.615C562.042 528.53 552.043 530.556 541.928 530.558H541.92Z" fill="#535461"/>
<path id="Vector_8" d="M391.441 274.766C391.441 274.766 485.766 271.754 487.69 283.205C489.614 294.657 393.366 289.831 393.366 289.831C393.366 289.831 385.669 282.596 391.441 274.766Z" fill="#535461"/>
<path id="Vector_9" opacity="0.05" d="M391.441 274.766C391.441 274.766 485.766 271.754 487.69 283.205C489.614 294.657 393.366 289.831 393.366 289.831C393.366 289.831 385.669 282.596 391.441 274.766Z" fill="black"/>
<path id="Vector_10" opacity="0.1" d="M315.084 320.556V331.044C309.536 331.721 303.859 332.15 298.4 332.316V320.556H315.084Z" fill="black"/>
<g id="seat">
<path id="Vector_11" d="M313.833 309.27C311.492 309.1 309.163 308.806 306.858 308.389C297.814 306.763 275.013 303.353 268.879 309.142C261.183 316.37 263.748 329.026 284.281 330.833C304.813 332.64 340.106 327.821 347.169 320.586C347.169 320.556 334.398 310.753 313.833 309.27Z" fill="#535461"/>
</g>
<path id="Vector_12" opacity="0.1" d="M524.001 398.916C519.996 399.889 516.089 401.192 512.328 402.809L504.663 382.699C508.686 381.053 512.828 379.676 517.058 378.581L524.001 398.916Z" fill="black"/>
<path id="Vector_13" opacity="0.1" d="M489.47 294.024L473.82 298.391L471.014 291.035L485.774 283.198L489.47 294.024Z" fill="black"/>
<path id="Vector_14" d="M394.007 306.703L481.918 278.379C481.918 278.379 497.319 280.186 491.539 292.24L402.994 316.942C402.994 316.942 389.525 318.147 394.007 306.703Z" fill="#535461"/>
<path id="Vector_15" d="M292.571 444.165C289.355 430.749 282.846 418.224 273.562 407.59C270.115 403.638 266.314 399.97 262.201 396.628C246.386 383.805 226.484 376.277 205.62 375.224C184.755 374.171 164.109 379.654 146.922 390.811C129.735 401.969 116.979 418.169 110.656 436.871C104.334 455.572 104.803 475.716 111.989 494.14C119.176 512.564 132.674 528.226 150.364 538.667C168.054 549.108 188.936 553.738 209.731 551.83C230.527 549.923 250.059 541.585 265.262 528.125C280.466 514.666 290.48 496.847 293.733 477.465C294.49 472.902 294.871 468.29 294.872 463.672C294.877 457.11 294.106 450.567 292.571 444.165ZM200.218 530.257C185.601 530.243 171.343 526.001 159.383 518.109C147.423 510.217 138.342 499.057 133.374 486.147C128.406 473.238 127.793 459.205 131.617 445.956C135.442 432.707 143.519 420.886 154.75 412.1C165.981 403.315 179.821 397.99 194.388 396.851C208.955 395.711 223.542 398.813 236.166 405.733C248.79 412.654 258.838 423.057 264.943 435.529C271.049 448.001 272.916 461.936 270.291 475.44C267.284 490.831 258.626 504.745 245.823 514.761C233.019 524.777 216.882 530.26 200.218 530.257V530.257Z" fill="#535461"/>
<path id="Vector_16" opacity="0.1" d="M294.872 463.672C294.871 468.29 294.49 472.902 293.733 477.465C286.037 476.945 278.083 476.192 270.291 475.44C272.022 466.487 271.806 457.298 269.657 448.426C277.25 446.92 285.002 445.482 292.571 444.18C294.104 450.577 294.876 457.115 294.872 463.672V463.672Z" fill="black"/>
<path id="Vector_17" opacity="0.1" d="M315.084 440.724V456.738H298.4V443.186C304.172 442.245 309.784 441.409 315.084 440.724Z" fill="black"/>
<path id="Vector_18" opacity="0.1" d="M273.562 407.59L256.436 422.309C253.404 418.652 249.975 415.302 246.206 412.31L262.193 396.628C266.309 399.97 270.113 403.637 273.562 407.59V407.59Z" fill="black"/>
<path id="Vector_19" opacity="0.1" d="M201.509 473.015C207.181 473.015 211.78 468.697 211.78 463.371C211.78 458.044 207.181 453.726 201.509 453.726C195.837 453.726 191.239 458.044 191.239 463.371C191.239 468.697 195.837 473.015 201.509 473.015Z" fill="black"/>
<path id="Vector_20" d="M200.218 473.015C205.891 473.015 210.489 468.697 210.489 463.371C210.489 458.044 205.891 453.726 200.218 453.726C194.546 453.726 189.948 458.044 189.948 463.371C189.948 468.697 194.546 473.015 200.218 473.015Z" fill="#535461"/>
<path id="Vector_21" opacity="0.1" d="M541.279 472.112C546.951 472.112 551.549 467.794 551.549 462.467C551.549 457.141 546.951 452.823 541.279 452.823C535.606 452.823 531.008 457.141 531.008 462.467C531.008 467.794 535.606 472.112 541.279 472.112Z" fill="black"/>
<path id="Vector_22" d="M541.92 473.316C547.592 473.316 552.19 468.999 552.19 463.672C552.19 458.346 547.592 454.028 541.92 454.028C536.248 454.028 531.65 458.346 531.65 463.672C531.65 468.999 536.248 473.316 541.92 473.316Z" fill="#535461"/>
<path id="Vector_23" opacity="0.1" d="M359.356 473.015C370.696 473.015 379.888 464.383 379.888 453.734C379.888 443.085 370.696 434.453 359.356 434.453C348.016 434.453 338.823 443.085 338.823 453.734C338.823 464.383 348.016 473.015 359.356 473.015Z" fill="black"/>
<path id="Vector_24" d="M360.647 473.015C371.986 473.015 381.179 464.383 381.179 453.734C381.179 443.085 371.986 434.453 360.647 434.453C349.307 434.453 340.114 443.085 340.114 453.734C340.114 464.383 349.307 473.015 360.647 473.015Z" fill="#535461"/>
<path id="Vector_25" opacity="0.1" d="M353.15 449.465L332.305 460.005L325.891 455.488V452.477C333.094 451.996 340.092 450.013 346.376 446.672C348.3 445.648 350.112 444.639 351.563 443.751C352.405 447.237 353.15 449.465 353.15 449.465Z" fill="black"/>
<g id="frame">
<path id="Vector_26" d="M362.571 438.669L488.981 321.768L496.036 331.405L375.399 449.51L362.571 438.669Z" fill="#6C63FF"/>
<path id="Vector_27" d="M387.224 474.687H339.12V488.992H387.224V474.687Z" fill="#6C63FF"/>
<g id="Group 1">
<path id="Vector_28" d="M314.292 328.366H297.607V464.548H314.292V328.366Z" fill="#6C63FF"/>
<path id="Vector_29" d="M309.802 365.724L484.982 314.505L490.755 327.161L311.085 385.005L309.802 365.724Z" fill="#6C63FF"/>
<path id="Vector_30" d="M544.656 465.752L535.676 470.571L473.028 306.193L470.222 298.838L484.982 291L488.678 301.826L544.656 465.752Z" fill="#6C63FF"/>
<path id="Vector_31" d="M206.49 471.196C206.49 471.196 341.246 438.069 352.15 450.71C363.053 463.35 374.607 480.23 340.629 486.253C306.651 492.276 203.948 476.007 203.948 476.007L206.49 471.196Z" fill="#6C63FF"/>
<path id="Vector_32" d="M202 464.548L302.739 365.724L305.954 388.619L207.131 473.582L202 464.548Z" fill="#6C63FF"/>
<path id="Vector_33" d="M354.372 460.088L354.366 460.092C351.955 461.785 351.462 464.994 353.265 467.258L369.561 487.722C371.364 489.986 374.781 490.449 377.192 488.756L377.199 488.751C379.61 487.058 380.103 483.849 378.3 481.585L362.003 461.121C360.2 458.857 356.784 458.394 354.372 460.088Z" fill="#6C63FF"/>
<path id="Vector_34" opacity="0.1" d="M386.432 482.489H338.328V496.794H386.432V482.489Z" fill="black"/>
</g>
</g>
<g id="paint-brush 1">
<g clip-path="url(#clip1)">
<g id="Group">
<path id="Vector_35" d="M699.492 152.818C698.701 162.092 697.284 170.038 697.201 170.495C696.954 171.872 695.798 172.835 694.5 172.835L691.716 172.806L689.497 172.783C688.004 173.074 686.565 172.048 686.286 170.489C686.203 170.032 684.79 162.092 684.007 152.817L691.716 148.502L691.753 148.481L699.492 152.818Z" fill="#F0F7FF"/>
<path id="Vector_36" d="M699.492 152.818C698.701 162.092 697.284 170.038 697.201 170.495C696.954 171.872 695.797 172.835 694.5 172.835L691.716 172.806V148.502L691.753 148.481L699.492 152.818Z" fill="#C7CFE1"/>
<path id="Vector_37" d="M699.492 152.818H691.716C687.862 152.817 684.02 152.817 684.007 152.817C683.702 149.209 682.56 137.805 685.311 115.723C685.732 112.346 688.47 109.784 691.716 109.702C691.729 109.7 691.74 109.7 691.753 109.7C691.797 109.696 691.841 109.696 691.885 109.696H692.623C695.357 109.696 697.699 111.825 698.073 114.649C701.124 137.671 699.649 150.962 699.492 152.818Z" fill="#E63950"/>
<path id="Vector_38" d="M699.492 152.818H691.716V109.702C691.729 109.7 691.74 109.7 691.753 109.7C691.797 109.696 691.841 109.696 691.885 109.696H692.623C695.357 109.696 697.699 111.825 698.073 114.649C701.124 137.671 699.649 150.962 699.492 152.818Z" fill="#AE2538"/>
<g id="Group_2">
<path id="Vector_39" d="M670.972 160.137C668.039 157.278 666.578 155.145 666.591 153.01C666.604 150.892 668.063 148.772 670.972 145.937C673.956 143.028 677.668 139.409 677.668 132.948C677.668 121.891 669.467 114.251 659.069 111.23C633.672 103.849 606.017 123.33 606 153.01V153.037C606 176.227 623.869 196.337 648.251 196.337C662.935 196.337 677.668 188.145 677.668 173.126C677.668 166.665 673.956 163.045 670.972 160.137V160.137Z" fill="#F0F7FF"/>
</g>
<path id="Vector_40" d="M677.668 173.126C677.668 188.145 662.935 196.337 648.251 196.337C623.869 196.337 606 176.227 606 153.037V153.01H666.591C666.578 155.145 668.039 157.278 670.972 160.137C673.956 163.045 677.668 166.665 677.668 173.126Z" fill="#DFE7F4"/>
<path id="Vector_41" d="M691.744 167.093H691.716C687.174 167.108 683.485 170.962 683.484 175.699V175.705C683.484 181.944 688.681 192.968 689.274 194.204C689.806 195.313 690.764 195.801 691.716 195.792C693.111 195.776 694.489 194.694 694.489 192.922C694.491 188.143 699.998 182.301 700 175.707V175.705C700 175.705 700 175.705 700 175.703C700 170.946 696.309 167.095 691.744 167.093Z" fill="#FF7D43"/>
<path id="Vector_42" d="M700 175.703V175.705V175.707C699.998 182.301 694.491 188.143 694.489 192.922C694.489 194.694 693.111 195.776 691.716 195.792V167.093H691.744C696.31 167.095 700 170.946 700 175.703Z" fill="#E63950"/>
<g id="Group_3">
<path id="Vector_43" d="M625.1 144.4C620.547 144.4 616.842 148.263 616.842 153.01C616.842 157.757 620.547 161.619 625.1 161.619C629.653 161.619 633.358 157.757 633.358 153.01C633.358 148.263 629.653 144.4 625.1 144.4V144.4Z" fill="#FF7D43"/>
</g>
<path id="Vector_44" d="M633.358 153.01C633.358 157.757 629.653 161.619 625.1 161.619C620.547 161.619 616.842 157.757 616.842 153.01H633.358Z" fill="#E63950"/>
<g id="Group_4">
<path id="Vector_45" d="M631.982 180.083C628.039 177.709 626.683 172.433 628.959 168.322C631.241 164.201 636.287 162.791 640.24 165.17C644.184 167.544 645.54 172.82 643.263 176.931C640.986 181.043 635.946 182.469 631.982 180.083Z" fill="#5AB267"/>
</g>
<g id="Group_5">
<g id="Group_6">
<g id="Group_7">
<g id="Group_8">
<path id="Vector_46" d="M654.004 140.317C650.06 137.943 648.704 132.667 650.981 128.556C653.263 124.435 658.309 123.025 662.262 125.405C666.205 127.778 667.561 133.054 665.285 137.165C663.004 141.284 657.959 142.697 654.004 140.317Z" fill="#DFE7F4"/>
</g>
</g>
</g>
</g>
<g id="Group_9">
<path id="Vector_47" d="M650.981 176.931C648.704 172.82 650.06 167.544 654.004 165.171C657.956 162.791 663.002 164.201 665.285 168.322C667.561 172.433 666.206 177.709 662.262 180.083C658.326 182.452 653.272 181.068 650.981 176.931V176.931Z" fill="#FF9F00"/>
</g>
<g id="Group_10">
<path id="Vector_48" d="M628.959 137.165C626.683 133.054 628.039 127.778 631.982 125.404C635.935 123.025 640.981 124.434 643.263 128.556C645.54 132.667 644.184 137.943 640.24 140.317C636.29 142.695 631.244 141.29 628.959 137.165V137.165Z" fill="#76E2F8"/>
</g>
</g>
</g>
</g>
<g id="tyre-1">
<path id="Vector_49" d="M514 148.7C511.625 148.7 509.7 150.625 509.7 153C509.7 155.375 511.625 157.3 514 157.3C516.375 157.3 518.3 155.375 518.3 153C518.3 150.625 516.375 148.7 514 148.7ZM514 154.433C513.208 154.433 512.567 153.792 512.567 153C512.567 152.208 513.208 151.567 514 151.567C514.792 151.567 515.433 152.208 515.433 153C515.433 153.792 514.792 154.433 514 154.433ZM514 121.467C496.584 121.467 482.467 135.584 482.467 153C482.467 170.416 496.584 184.533 514 184.533C531.416 184.533 545.533 170.416 545.533 153C545.514 135.593 531.407 121.486 514 121.467ZM537.051 136.031L527.249 145.833H521.167V139.751L530.969 129.949C533.289 131.661 535.339 133.711 537.051 136.031ZM542.667 153C542.656 154.44 542.536 155.878 542.308 157.3H528.435L524.033 152.892L524.141 153L528.441 148.7H542.308C542.536 150.122 542.656 151.56 542.667 153ZM541.723 160.167C541.056 162.753 540.027 165.233 538.668 167.533L531.301 160.167H541.723ZM485.692 157.3C485.214 154.453 485.214 151.547 485.692 148.7H499.565L503.865 153L499.565 157.3H485.692ZM496.699 160.167L489.332 167.533C487.973 165.233 486.944 162.753 486.277 160.167H496.699ZM486.277 145.833C486.944 143.247 487.973 140.767 489.332 138.467L496.699 145.833H486.277ZM514 160.167C510.042 160.167 506.833 156.958 506.833 153C506.833 149.042 510.042 145.833 514 145.833C517.958 145.833 521.167 149.042 521.167 153C521.162 156.956 517.956 160.162 514 160.167ZM523.051 148.7H524.382L523.443 149.64C523.329 149.321 523.198 149.007 523.051 148.7V148.7ZM517.361 143.559L518.3 142.618V143.949C517.994 143.804 517.681 143.674 517.361 143.559ZM509.7 143.949V142.62L510.639 143.559C510.318 143.674 510.005 143.803 509.7 143.949ZM504.557 149.64L503.618 148.7H504.949C504.802 149.007 504.671 149.321 504.557 149.64ZM504.557 156.36C504.671 156.679 504.802 156.993 504.949 157.3H503.618L504.557 156.36ZM510.639 162.441L509.7 163.382V162.051C510.006 162.198 510.319 162.328 510.639 162.441ZM518.3 162.051V163.382L517.361 162.441C517.681 162.328 517.994 162.198 518.3 162.051ZM523.443 156.36L524.382 157.3H523.051C523.198 156.993 523.329 156.679 523.443 156.36V156.36ZM531.301 145.833L538.668 138.467C540.027 140.767 541.056 143.247 541.723 145.833H531.301ZM521.167 135.699V125.277C523.753 125.944 526.233 126.973 528.533 128.332L521.167 135.699ZM518.3 124.692V138.565L514 142.865L509.7 138.565V124.692C512.547 124.214 515.453 124.214 518.3 124.692ZM506.833 135.699L499.469 128.332C501.768 126.973 504.247 125.944 506.833 125.277V135.699ZM497.031 129.949L506.833 139.753V145.833H500.751L490.949 136.031C492.661 133.711 494.711 131.661 497.031 129.949ZM490.949 169.969L500.751 160.167H506.833V166.249L497.031 176.051C494.711 174.339 492.661 172.289 490.949 169.969ZM506.833 170.301V180.723C504.247 180.056 501.768 179.027 499.469 177.668L506.833 170.301ZM509.7 181.308V167.435L514 163.135L518.3 167.435V181.308C515.453 181.786 512.547 181.786 509.7 181.308ZM521.167 170.301L528.531 177.668C526.232 179.027 523.753 180.056 521.167 180.723V170.301ZM530.969 176.051L521.167 166.249V160.167H527.249L537.051 169.969C535.339 172.289 533.289 174.339 530.969 176.051ZM539.272 125.613C529.506 116.47 515.589 113.263 502.806 117.21C490.024 121.158 480.338 131.654 477.428 144.711C474.518 157.77 478.831 171.385 488.728 180.387C495.587 186.753 504.605 190.284 513.964 190.267C514.473 190.267 514.985 190.258 515.495 190.237C530.555 189.631 543.768 180.014 548.973 165.869C554.177 151.723 550.349 135.836 539.272 125.613V125.613ZM515.38 187.373C496.397 188.135 480.389 173.364 479.627 154.38C478.865 135.397 493.636 119.389 512.62 118.627C513.093 118.608 513.563 118.6 514.033 118.6C532.761 118.611 548.038 133.602 548.406 152.326C548.772 171.05 534.093 186.628 515.38 187.373ZM514 110C490.252 110 471 129.252 471 153C471 176.748 490.252 196 514 196C537.748 196 557 176.748 557 153C556.973 129.263 537.737 110.027 514 110ZM514 193.133C491.835 193.133 473.867 175.165 473.867 153C473.867 130.835 491.835 112.867 514 112.867C536.165 112.867 554.133 130.835 554.133 153C554.108 175.154 536.154 193.108 514 193.133Z" fill="url(#paint0_linear)"/>
</g>
<g id="wheel-1">
<path id="Vector_50" d="M423 151.688H419.733C419.461 149.425 418.983 147.221 418.31 145.099L420.86 144.053C422.382 143.428 423.089 141.737 422.435 140.278L421.455 138.089C420.803 136.63 419.039 135.953 417.516 136.579L414.96 137.629C413.916 135.861 412.729 134.183 411.409 132.609L413.381 130.72C414.552 129.597 414.552 127.778 413.381 126.655L411.623 124.97C410.451 123.847 408.552 123.847 407.381 124.97L405.409 126.859C403.767 125.594 402.016 124.456 400.171 123.456L401.268 121.006C401.921 119.546 401.216 117.856 399.693 117.231L397.408 116.292C395.886 115.667 394.122 116.342 393.469 117.801L392.377 120.245C390.16 119.598 387.863 119.141 385.5 118.881V115.75C385.5 114.162 384.158 112.875 382.5 112.875H379.5C377.842 112.875 376.5 114.162 376.5 115.75V118.881C374.137 119.141 371.839 119.6 369.625 120.245L368.533 117.801C367.881 116.342 366.117 115.665 364.594 116.292L362.31 117.229C360.788 117.854 360.081 119.545 360.735 121.004L361.83 123.455C359.985 124.455 358.234 125.594 356.592 126.858L354.621 124.969C353.449 123.846 351.551 123.846 350.379 124.969L348.621 126.653C347.449 127.776 347.449 129.596 348.621 130.719L350.592 132.608C349.272 134.182 348.084 135.859 347.042 137.627L344.484 136.577C342.962 135.951 341.198 136.627 340.545 138.086L339.565 140.275C338.913 141.734 339.618 143.425 341.141 144.05L343.69 145.097C343.015 147.221 342.538 149.425 342.267 151.688H339C337.342 151.688 336 152.974 336 154.562V157.438C336 159.026 337.342 160.312 339 160.312H342.267C342.538 162.577 343.017 164.779 343.69 166.901L341.141 167.947C339.618 168.572 338.911 170.263 339.565 171.722L340.545 173.911C341.198 175.37 342.962 176.047 344.484 175.421L347.04 174.371C348.084 176.139 349.271 177.817 350.591 179.391L348.62 181.28C347.448 182.403 347.448 184.222 348.62 185.345L350.378 187.03C351.549 188.153 353.448 188.153 354.62 187.03L356.591 185.141C358.233 186.406 359.983 187.544 361.828 188.544L360.732 190.995C360.08 192.454 360.785 194.144 362.307 194.769L364.592 195.708C366.114 196.333 367.878 195.658 368.531 194.199L369.623 191.755C371.837 192.4 374.134 192.859 376.497 193.119V196.25C376.497 197.838 377.839 199.125 379.497 199.125H382.497C384.155 199.125 385.497 197.838 385.497 196.25V193.119C387.86 192.859 390.158 192.4 392.372 191.755L393.463 194.199C394.116 195.658 395.88 196.335 397.403 195.708L399.687 194.769C401.21 194.144 401.916 192.454 401.262 190.995L400.17 188.545C402.015 187.544 403.765 186.407 405.408 185.142L407.379 187.031C408.55 188.154 410.45 188.154 411.621 187.031L413.379 185.347C414.55 184.224 414.55 182.404 413.379 181.281L411.408 179.392C412.728 177.818 413.916 176.141 414.958 174.373L417.516 175.424C419.039 176.049 420.803 175.373 421.455 173.914L422.435 171.725C423.087 170.266 422.382 168.575 420.86 167.95L418.31 166.903C418.983 164.782 419.461 162.579 419.733 160.315H423C424.658 160.315 426 159.029 426 157.44V154.565C426 152.974 424.658 151.688 423 151.688V151.688ZM381 184.75C364.431 184.75 351 171.879 351 156C351 140.121 364.431 127.25 381 127.25C397.569 127.25 411 140.121 411 156C411 171.879 397.569 184.75 381 184.75Z" fill="#4D5D7A"/>
<path id="Vector_51" d="M381 127.25C364.431 127.25 351 140.121 351 156C351 171.879 364.431 184.75 381 184.75C397.569 184.75 411 171.879 411 156C411 140.121 397.569 127.25 381 127.25ZM381 179C367.745 179 357 168.703 357 156C357 143.297 367.745 133 381 133C394.255 133 405 143.297 405 156C405 168.703 394.255 179 381 179Z" fill="#8892A0"/>
<path id="Vector_52" d="M381 148.812C376.859 148.812 373.5 152.031 373.5 156C373.5 159.969 376.859 163.188 381 163.188C385.141 163.188 388.5 159.969 388.5 156C388.5 152.031 385.141 148.812 381 148.812ZM381 158.875C379.342 158.875 378 157.588 378 156C378 154.412 379.342 153.125 381 153.125C382.658 153.125 384 154.412 384 156C384 157.588 382.658 158.875 381 158.875Z" fill="#8892A0"/>
<path id="Vector_53" d="M389.793 154.177L403.788 148.812C403.473 147.895 403.089 147.01 402.662 146.147L388.669 151.511C388.56 151.34 388.447 151.173 388.326 151.01L398.559 141.204L398.979 140.801C398.316 140.081 397.608 139.404 396.858 138.769L396.438 139.171L386.205 148.978C386.036 148.861 385.86 148.754 385.683 148.649L391.28 135.24C390.38 134.83 389.456 134.462 388.499 134.16L382.9 147.572C382.77 147.546 382.635 147.526 382.5 147.504V133.072C382.002 133.043 381.507 133 381 133C380.493 133 379.998 133.043 379.5 133.072V147.504C379.365 147.526 379.23 147.545 379.098 147.572L373.5 134.162C372.543 134.463 371.619 134.831 370.719 135.241L376.316 148.649C376.137 148.754 375.963 148.861 375.793 148.978L365.141 138.769C364.389 139.404 363.683 140.083 363.02 140.801L373.672 151.01C373.551 151.173 373.438 151.341 373.329 151.511L359.337 146.147C358.91 147.01 358.525 147.895 358.21 148.812L372.205 154.177C372.178 154.304 372.158 154.433 372.135 154.562H357.075C357.045 155.04 357 155.514 357 156C357 156.486 357.045 156.96 357.075 157.438H372.135C372.158 157.567 372.177 157.696 372.205 157.823L358.212 163.188C358.527 164.105 358.911 164.99 359.339 165.853L373.33 160.489C373.44 160.66 373.552 160.827 373.674 160.99L363.021 171.199C363.684 171.919 364.392 172.596 365.142 173.231L375.795 163.022C375.965 163.139 376.14 163.246 376.317 163.351L370.72 176.76C371.62 177.17 372.544 177.538 373.501 177.84L379.099 164.428C379.23 164.454 379.365 164.474 379.5 164.496V178.928C379.998 178.957 380.493 179 381 179C381.507 179 382.002 178.957 382.5 178.928V164.496C382.635 164.474 382.77 164.455 382.902 164.428L388.5 177.839C389.457 177.537 390.381 177.169 391.281 176.759L385.685 163.35C385.863 163.245 386.037 163.137 386.207 163.021L396.86 173.23C397.611 172.595 398.317 171.916 398.98 171.197L388.327 160.988C388.449 160.826 388.561 160.658 388.671 160.488L402.663 165.851C403.091 164.989 403.475 164.103 403.79 163.186L389.794 157.821C389.821 157.696 389.842 157.567 389.865 157.438H404.925C404.955 156.96 405 156.486 405 156C405 155.514 404.955 155.04 404.925 154.562H389.865C389.842 154.433 389.821 154.304 389.793 154.177V154.177ZM381 161.75C377.691 161.75 375 159.171 375 156C375 152.829 377.691 150.25 381 150.25C384.309 150.25 387 152.829 387 156C387 159.171 384.309 161.75 381 161.75Z" fill="#4D5D7A"/>
</g>
<g id="two-chains 1">
<g clip-path="url(#clip2)">
<path id="Vector_54" d="M189.148 149.793C188.758 149.793 188.379 149.679 188.069 149.47C187.758 149.26 187.534 148.966 187.431 148.632C187.328 148.299 187.351 147.944 187.497 147.624C187.643 147.303 187.904 147.034 188.24 146.858L247.912 115.69C248.314 115.529 248.769 115.506 249.189 115.625C249.609 115.744 249.964 115.997 250.185 116.335C250.407 116.672 250.479 117.071 250.388 117.453C250.298 117.835 250.05 118.174 249.693 118.404L190.057 149.572C189.782 149.717 189.468 149.793 189.148 149.793V149.793Z" fill="#279ECC"/>
<path id="Vector_55" d="M223.99 191.834C223.635 191.833 223.289 191.738 222.996 191.562C222.703 191.385 222.476 191.135 222.344 190.844C222.212 190.552 222.181 190.232 222.255 189.925C222.329 189.618 222.505 189.338 222.761 189.12L275.628 144.38C275.971 144.091 276.429 143.935 276.901 143.945C277.374 143.955 277.823 144.132 278.149 144.435C278.475 144.739 278.651 145.144 278.639 145.563C278.628 145.982 278.429 146.379 278.086 146.668L225.219 191.408C224.886 191.684 224.446 191.837 223.99 191.834V191.834Z" fill="#279ECC"/>
<path id="Vector_56" d="M201.849 144.27C195.549 144.266 189.39 145.919 184.15 149.017C178.91 152.116 174.825 156.522 172.412 161.677C169.998 166.833 169.365 172.507 170.592 177.982C171.819 183.456 174.851 188.485 179.304 192.433C183.758 196.381 189.432 199.07 195.611 200.16C201.79 201.25 208.194 200.692 214.015 198.557C219.835 196.422 224.811 192.805 228.311 188.164C231.811 183.524 233.68 178.068 233.68 172.486C233.67 165.008 230.314 157.838 224.347 152.549C218.38 147.259 210.29 144.282 201.849 144.27V144.27Z" fill="#EF790F"/>
<path id="Vector_57" d="M260.844 112.312C256.264 112.312 251.787 113.516 247.979 115.77C244.171 118.024 241.203 121.228 239.45 124.977C237.698 128.726 237.239 132.851 238.132 136.831C239.026 140.81 241.231 144.466 244.47 147.335C247.708 150.204 251.834 152.158 256.326 152.95C260.818 153.741 265.474 153.335 269.705 151.782C273.937 150.229 277.553 147.6 280.097 144.226C282.642 140.852 284 136.886 284 132.828C284 127.387 281.56 122.169 277.218 118.321C272.875 114.474 266.985 112.312 260.844 112.312V112.312Z" fill="#EF790F"/>
<g id="chain1">
<path id="Vector_58" d="M204.004 155.474L204.806 154.433C205.223 153.828 205.859 153.365 206.609 153.119C207.36 152.873 208.182 152.859 208.944 153.077C209.705 153.296 210.361 153.736 210.806 154.325C211.251 154.914 211.459 155.619 211.396 156.326V157.589C211.383 157.972 211.477 158.352 211.669 158.696C211.861 159.04 212.146 159.336 212.498 159.559C212.85 159.782 213.259 159.925 213.688 159.975C214.117 160.025 214.554 159.981 214.959 159.846L216.295 159.42C217.03 159.176 217.836 159.154 218.586 159.358C219.337 159.562 219.991 159.98 220.446 160.547C220.901 161.114 221.132 161.798 221.102 162.493C221.073 163.188 220.786 163.855 220.285 164.391L219.412 165.385C219.132 165.687 218.941 166.046 218.858 166.43C218.775 166.814 218.803 167.21 218.937 167.582C219.072 167.954 219.31 168.291 219.629 168.56C219.949 168.83 220.339 169.024 220.766 169.125L222.119 169.488C222.898 169.653 223.591 170.046 224.087 170.603C224.583 171.16 224.852 171.848 224.852 172.557C224.852 173.267 224.583 173.955 224.087 174.512C223.591 175.069 222.898 175.462 222.119 175.627L220.766 175.99C220.356 176.098 219.982 176.293 219.677 176.558C219.371 176.823 219.143 177.149 219.011 177.509C218.88 177.87 218.849 178.253 218.922 178.626C218.995 178.999 219.169 179.351 219.43 179.651L220.303 180.645C220.827 181.184 221.131 181.865 221.165 182.576C221.198 183.287 220.959 183.987 220.487 184.563C220.014 185.139 219.336 185.556 218.562 185.748C217.788 185.939 216.964 185.893 216.223 185.616L214.888 185.19C214.482 185.055 214.046 185.011 213.617 185.061C213.188 185.111 212.779 185.254 212.427 185.477C212.075 185.7 211.79 185.996 211.598 186.34C211.406 186.683 211.312 187.064 211.325 187.447V188.71C211.388 189.416 211.18 190.121 210.735 190.711C210.29 191.3 209.634 191.74 208.872 191.959C208.111 192.177 207.289 192.163 206.538 191.917C205.787 191.671 205.152 191.208 204.734 190.603L203.933 189.562C203.691 189.249 203.366 188.994 202.988 188.817C202.609 188.641 202.188 188.548 201.76 188.548C201.332 188.548 200.91 188.641 200.532 188.817C200.153 188.994 199.829 189.249 199.587 189.562L198.785 190.603C198.367 191.208 197.732 191.671 196.981 191.917C196.231 192.163 195.408 192.177 194.647 191.959C193.886 191.74 193.23 191.3 192.785 190.711C192.34 190.121 192.132 189.416 192.194 188.71V187.447C192.207 187.064 192.114 186.683 191.922 186.34C191.729 185.996 191.445 185.7 191.093 185.477C190.741 185.254 190.332 185.111 189.903 185.061C189.474 185.011 189.037 185.055 188.632 185.19L187.296 185.616C186.555 185.893 185.731 185.939 184.957 185.748C184.183 185.556 183.505 185.139 183.033 184.563C182.56 183.987 182.321 183.287 182.355 182.576C182.388 181.865 182.692 181.184 183.217 180.645L184.25 179.572C184.51 179.272 184.685 178.92 184.757 178.547C184.83 178.174 184.8 177.791 184.668 177.43C184.537 177.07 184.308 176.744 184.003 176.479C183.697 176.214 183.324 176.019 182.914 175.911L181.56 175.548C180.782 175.383 180.089 174.99 179.593 174.433C179.097 173.876 178.828 173.188 178.828 172.479C178.828 171.769 179.097 171.081 179.593 170.524C180.089 169.967 180.782 169.574 181.56 169.409L182.914 169.125C183.339 169.022 183.727 168.826 184.045 168.556C184.362 168.285 184.598 167.949 184.731 167.577C184.864 167.205 184.889 166.81 184.805 166.427C184.721 166.044 184.53 165.686 184.25 165.385L183.395 164.391C182.875 163.852 182.575 163.175 182.543 162.467C182.51 161.759 182.747 161.062 183.216 160.488C183.685 159.914 184.358 159.497 185.127 159.303C185.896 159.109 186.717 159.15 187.456 159.42L188.792 159.846C189.197 159.981 189.634 160.025 190.063 159.975C190.492 159.925 190.901 159.782 191.253 159.559C191.605 159.336 191.89 159.04 192.082 158.696C192.274 158.352 192.368 157.972 192.355 157.589V156.326C192.292 155.619 192.5 154.914 192.945 154.325C193.39 153.736 194.046 153.296 194.807 153.077C195.569 152.859 196.391 152.873 197.142 153.119C197.892 153.365 198.528 153.828 198.945 154.433L199.747 155.474C199.992 155.771 200.312 156.012 200.682 156.179C201.052 156.345 201.461 156.432 201.875 156.432C202.29 156.432 202.699 156.345 203.069 156.179C203.439 156.012 203.759 155.771 204.004 155.474Z" fill="#5ED3F7"/>
</g>
<path id="Vector_59" d="M201.849 182.713C199.562 182.713 197.327 182.112 195.426 180.987C193.525 179.861 192.043 178.262 191.168 176.39C190.293 174.519 190.065 172.459 190.511 170.473C190.957 168.486 192.058 166.661 193.674 165.228C195.291 163.796 197.351 162.821 199.593 162.425C201.836 162.03 204.16 162.233 206.273 163.008C208.385 163.783 210.191 165.096 211.461 166.78C212.731 168.465 213.409 170.445 213.409 172.471C213.404 175.186 212.185 177.788 210.018 179.708C207.851 181.628 204.913 182.708 201.849 182.713V182.713ZM201.849 165.353C200.267 165.353 198.721 165.769 197.405 166.547C196.09 167.326 195.065 168.433 194.46 169.727C193.854 171.022 193.696 172.447 194.005 173.821C194.313 175.196 195.075 176.459 196.193 177.449C197.312 178.44 198.737 179.115 200.288 179.389C201.84 179.662 203.448 179.522 204.909 178.985C206.371 178.449 207.62 177.541 208.499 176.376C209.378 175.21 209.847 173.84 209.847 172.439C209.832 170.568 208.984 168.778 207.485 167.459C205.987 166.141 203.961 165.401 201.849 165.401V165.353Z" fill="#279ECC"/>
<path id="chain2" d="M262.358 120.929L262.928 120.203C263.237 119.805 263.682 119.506 264.199 119.35C264.715 119.195 265.274 119.191 265.793 119.34C266.312 119.489 266.762 119.783 267.077 120.177C267.392 120.572 267.555 121.046 267.541 121.529V122.413C267.518 122.681 267.573 122.951 267.701 123.196C267.829 123.441 268.026 123.652 268.272 123.811C268.519 123.969 268.807 124.069 269.109 124.1C269.412 124.132 269.718 124.094 269.999 123.991L270.943 123.691C271.457 123.531 272.014 123.523 272.534 123.666C273.053 123.81 273.506 124.098 273.826 124.487C274.146 124.877 274.316 125.348 274.31 125.83C274.304 126.312 274.123 126.779 273.793 127.163L273.188 127.857C272.991 128.063 272.856 128.31 272.798 128.574C272.739 128.839 272.758 129.113 272.853 129.369C272.947 129.626 273.115 129.856 273.339 130.039C273.563 130.222 273.836 130.351 274.132 130.414L275.094 130.666C275.615 130.805 276.071 131.088 276.396 131.475C276.72 131.862 276.896 132.331 276.896 132.812C276.896 133.294 276.72 133.763 276.396 134.15C276.071 134.536 275.615 134.82 275.094 134.959L274.132 135.211C273.836 135.274 273.563 135.403 273.339 135.585C273.115 135.768 272.947 135.999 272.853 136.255C272.758 136.512 272.739 136.785 272.798 137.05C272.856 137.315 272.991 137.562 273.188 137.768L273.793 138.462C274.123 138.846 274.304 139.313 274.31 139.795C274.316 140.277 274.146 140.748 273.826 141.137C273.506 141.527 273.053 141.815 272.534 141.959C272.014 142.102 271.457 142.093 270.943 141.934L269.999 141.634C269.718 141.531 269.412 141.493 269.109 141.525C268.807 141.556 268.519 141.656 268.272 141.814C268.026 141.972 267.829 142.184 267.701 142.429C267.573 142.673 267.518 142.943 267.541 143.212V144.096C267.555 144.579 267.392 145.053 267.077 145.447C266.762 145.842 266.312 146.135 265.793 146.284C265.274 146.433 264.715 146.43 264.199 146.274C263.682 146.119 263.237 145.82 262.928 145.422L262.358 144.696C262.199 144.464 261.975 144.272 261.709 144.139C261.442 144.006 261.141 143.936 260.835 143.936C260.529 143.936 260.228 144.006 259.961 144.139C259.694 144.272 259.471 144.464 259.312 144.696L258.742 145.422C258.433 145.82 257.987 146.119 257.471 146.274C256.955 146.43 256.395 146.433 255.877 146.284C255.358 146.135 254.907 145.842 254.592 145.447C254.277 145.053 254.115 144.579 254.128 144.096V143.212C254.152 142.943 254.097 142.673 253.969 142.429C253.841 142.184 253.644 141.972 253.398 141.814C253.151 141.656 252.863 141.556 252.56 141.525C252.258 141.493 251.952 141.531 251.67 141.634L250.726 141.934C250.213 142.093 249.655 142.102 249.136 141.959C248.617 141.815 248.163 141.527 247.843 141.137C247.523 140.748 247.354 140.277 247.36 139.795C247.366 139.313 247.547 138.846 247.876 138.462L248.482 137.768C248.679 137.562 248.813 137.315 248.872 137.05C248.931 136.785 248.912 136.512 248.817 136.255C248.722 135.999 248.555 135.768 248.331 135.585C248.107 135.403 247.834 135.274 247.538 135.211L246.594 134.974C246.073 134.836 245.616 134.552 245.292 134.166C244.967 133.779 244.792 133.31 244.792 132.828C244.792 132.346 244.967 131.877 245.292 131.491C245.616 131.104 246.073 130.82 246.594 130.682L247.556 130.429C247.852 130.367 248.125 130.238 248.349 130.055C248.573 129.872 248.74 129.642 248.835 129.385C248.93 129.129 248.949 128.855 248.89 128.59C248.831 128.325 248.697 128.078 248.5 127.873L247.894 127.178C247.565 126.795 247.383 126.328 247.377 125.846C247.372 125.364 247.541 124.893 247.861 124.503C248.181 124.113 248.634 123.825 249.154 123.682C249.673 123.538 250.231 123.547 250.744 123.707L251.688 124.006C251.969 124.11 252.276 124.147 252.578 124.116C252.881 124.084 253.169 123.985 253.415 123.826C253.662 123.668 253.859 123.457 253.987 123.212C254.114 122.967 254.169 122.697 254.146 122.428V121.545C254.128 121.06 254.288 120.584 254.602 120.187C254.915 119.79 255.366 119.493 255.886 119.342C256.405 119.191 256.966 119.193 257.485 119.348C258.003 119.504 258.45 119.804 258.76 120.203L259.33 120.929C259.489 121.157 259.712 121.346 259.977 121.477C260.242 121.607 260.54 121.676 260.844 121.676C261.147 121.676 261.445 121.607 261.71 121.477C261.975 121.346 262.198 121.157 262.358 120.929V120.929Z" fill="#5ED3F7"/>
<path id="Vector_60" d="M260.844 140.466C259.139 140.466 257.472 140.018 256.054 139.179C254.636 138.34 253.531 137.147 252.879 135.751C252.226 134.355 252.056 132.82 252.388 131.338C252.721 129.856 253.542 128.495 254.748 127.427C255.953 126.359 257.489 125.631 259.162 125.337C260.834 125.042 262.568 125.193 264.143 125.771C265.718 126.35 267.065 127.329 268.012 128.585C268.959 129.841 269.465 131.317 269.465 132.828C269.46 134.853 268.55 136.793 266.935 138.224C265.319 139.656 263.129 140.462 260.844 140.466V140.466ZM260.844 128.346C259.843 128.346 258.865 128.609 258.033 129.102C257.201 129.594 256.553 130.294 256.17 131.113C255.787 131.932 255.687 132.833 255.882 133.702C256.077 134.572 256.559 135.37 257.267 135.997C257.974 136.624 258.876 137.051 259.857 137.224C260.838 137.397 261.855 137.308 262.78 136.969C263.704 136.63 264.494 136.055 265.05 135.318C265.606 134.581 265.902 133.715 265.902 132.828C265.902 131.639 265.37 130.499 264.421 129.659C263.472 128.818 262.185 128.346 260.844 128.346V128.346Z" fill="#279ECC"/>
<g id="Group_11" opacity="0.3">
<path id="Vector_61" opacity="0.3" d="M220.748 149.84C214.947 146.026 207.854 144.075 200.635 144.309C193.416 144.543 186.502 146.947 181.032 151.127C175.561 155.307 171.861 161.012 170.539 167.304C169.216 173.596 170.352 180.099 173.758 185.743C177.624 177.978 189.861 159.278 220.748 149.84Z" fill="#FCFCFC"/>
</g>
<g id="Group_12" opacity="0.3">
<path id="Vector_62" opacity="0.3" d="M281.524 123.643C279.055 119.343 274.954 115.951 269.943 114.064C264.931 112.177 259.329 111.915 254.12 113.324C248.912 114.733 244.431 117.724 241.465 121.77C238.499 125.816 237.237 130.659 237.901 135.448C243.668 130.653 250.599 127.095 258.162 125.049C265.726 123.002 273.718 122.521 281.524 123.643V123.643Z" fill="#FCFCFC"/>
</g>
</g>
</g>
</g>
</g>
<defs>
<filter id="filter0_d" x="-3" y="3" width="827.982" height="598.997" filterUnits="userSpaceOnUse" color-interpolation-filters="sRGB">
<feFlood flood-opacity="0" result="BackgroundImageFix"/>
<feColorMatrix in="SourceAlpha" type="matrix" values="0 0 0 0 0 0 0 0 0 0 0 0 0 0 0 0 0 0 127 0"/>
<feOffset dy="4"/>
<feGaussianBlur stdDeviation="2"/>
<feColorMatrix type="matrix" values="0 0 0 0 0 0 0 0 0 0 0 0 0 0 0 0 0 0 0.25 0"/>
<feBlend mode="normal" in2="BackgroundImageFix" result="effect1_dropShadow"/>
<feBlend mode="normal" in="SourceGraphic" in2="effect1_dropShadow" result="shape"/>
</filter>
<linearGradient id="paint0_linear" x1="483.609" y1="183.391" x2="544.391" y2="122.609" gradientUnits="userSpaceOnUse">
<stop stop-color="#41DFD0"/>
<stop offset="1" stop-color="#EE83EF"/>
</linearGradient>
<clipPath id="clip0">
<rect width="848" height="591" fill="white"/>
</clipPath>
<clipPath id="clip1">
<rect x="606" y="104" width="94" height="98" fill="white"/>
</clipPath>
<clipPath id="clip2">
<rect x="170" y="106" width="114" height="101" fill="white"/>
</clipPath>
</defs>
</svg>
