<?xml version="1.0" encoding="iso-8859-1"?>
<!-- Generator: Adobe Illustrator 19.0.0, SVG Export Plug-In . SVG Version: 6.00 Build 0)  -->
<svg version="1.1" id="Layer_1" xmlns="http://www.w3.org/2000/svg" xmlns:xlink="http://www.w3.org/1999/xlink" x="0px" y="0px"
	 viewBox="0 0 512 512" style="enable-background:new 0 0 512 512;" xml:space="preserve">
<g>
	<polyline style="fill:#E24260;" points="237.473,402.996 326.126,463.587 348.305,443.321 259.652,382.73 	"/>
	<polygon style="fill:#E24260;" points="366.325,285.255 366.314,285.265 337.642,311.462 237.471,402.995 127.304,327.705 
		103.687,311.566 138.365,299.836 161.784,315.849 234.839,365.778 294.283,311.462 320.104,287.866 	"/>
</g>
<path style="fill:#CE2647;" d="M138.365,299.836l23.418,16.013c-11.25,3.729-23.032,7.897-34.48,11.855l-23.617-16.138
	L138.365,299.836z"/>
<path style="fill:#49618C;" d="M512,207.362c-60.698,112.267-264.832,77.034-296.93,73.828
	c-17.663-1.765-55.726,12.503-90.143,24.359c-28.14,9.693-53.825,17.768-63.936,14.164C38.512,311.69,0,263.537,0,225.014
	c0-17.36,14.665-55.559,48.237-92.013c40.946-44.455,110.031-86.3,214.986-84.534C454.216,51.674,512,207.362,512,207.362z"/>
<path style="fill:#CE2647;" d="M366.325,286.299l-0.01,0.01l-28.673,26.197c-15.052,0.637-29.696,0.533-43.359,0l25.821-23.596
	L366.325,286.299z"/>
<path style="fill:#3B4773;" d="M124.926,305.548c-28.14,9.693-53.825,17.768-63.936,14.164C38.512,311.69,0,263.537,0,225.014
	c0-17.36,14.665-55.559,48.237-92.013l159.626,89.193C207.863,222.194,104.568,236.629,124.926,305.548z"/>
<path style="fill:#E24260;" d="M512,207.362c-0.585,1.086-1.191,2.162-1.807,3.217c-130.295,12.315-262.053,15.167-393.017,8.555
	c-38.428-1.943-76.784-4.7-115.024-8.273C13.851,165.967,74.256,71.405,206.881,51.966c0.01-0.01,0.021-0.01,0.021-0.01
	c17.496-2.57,36.256-3.823,56.321-3.489C454.216,51.674,512,207.362,512,207.362z"/>
<path style="fill:#CE2647;" d="M117.176,219.123v0.01c-38.428-1.943-76.784-4.7-115.024-8.273
	C13.851,165.967,74.256,71.405,206.881,51.966C205.189,52.718,81.484,108.423,117.176,219.123z"/>
<g>
	<path style="fill:#49618C;" d="M74.066,130.511c-2.901,0-5.689-1.618-7.046-4.401c-1.897-3.888-0.283-8.579,3.605-10.476
		c55.537-27.102,120.885-40.326,194.201-39.309c42.842,0.597,83.236,6.49,120.059,17.513c4.146,1.241,6.5,5.607,5.258,9.752
		c-1.24,4.145-5.606,6.499-9.751,5.258c-35.437-10.608-74.393-16.279-115.786-16.856c-70.838-0.982-133.802,11.708-187.112,37.723
		C76.39,130.255,75.219,130.511,74.066,130.511z"/>
	<path style="fill:#49618C;" d="M471.099,193.158c-1.475,0-2.968-0.416-4.292-1.287c-55.609-36.513-123.64-55.582-202.199-56.676
		c-46.029-0.64-89.181,4.577-128.247,15.504c-4.166,1.165-8.489-1.268-9.655-5.435c-1.166-4.167,1.267-8.489,5.435-9.655
		c40.51-11.33,85.13-16.745,132.685-16.081c81.589,1.137,152.437,21.07,210.58,59.246c3.617,2.374,4.624,7.231,2.249,10.849
		C476.15,191.914,473.65,193.157,471.099,193.158z"/>
	<path style="fill:#49618C;" d="M40.87,192.437c-2.567,0-5.083-1.261-6.582-3.575c-2.352-3.632-1.316-8.482,2.316-10.835
		c21.154-13.704,44.613-25.214,69.727-34.209c4.075-1.459,8.558,0.661,10.016,4.734c1.459,4.074-0.66,8.558-4.734,10.017
		c-23.977,8.588-46.349,19.559-66.491,32.608C43.806,192.03,42.329,192.437,40.87,192.437z"/>
</g>
<g>
</g>
<g>
</g>
<g>
</g>
<g>
</g>
<g>
</g>
<g>
</g>
<g>
</g>
<g>
</g>
<g>
</g>
<g>
</g>
<g>
</g>
<g>
</g>
<g>
</g>
<g>
</g>
<g>
</g>
</svg>
