<svg width="869" height="532" viewBox="0 0 869 532" fill="none" xmlns="http://www.w3.org/2000/svg">
<rect width="869" height="532" fill="#E5E5E5"/>
<g id="undraw_destinations_fpv7 1">
<g clip-path="url(#clip0)">
<path id="Vector" d="M856.602 214.91C824.715 92.2229 714.537 3.66028 585.211 0.10811C516.841 -1.76981 444.896 20.4176 392.514 98.0594C298.877 236.853 398.269 332.763 467.562 378.337C501.039 400.4 531.203 426.928 557.182 457.154C603.987 511.5 694.029 579.033 801.266 473.219C878.991 396.525 877.842 296.631 856.602 214.91Z" fill="#F2F2F2"/>
<path id="Vector_2" d="M119.682 307.924C118.822 306.679 117.978 305.401 117.171 304.125L118.474 303.336C119.27 304.596 120.103 305.857 120.951 307.085L119.682 307.924Z" fill="#3F3D56"/>
<path id="Vector_3" d="M112.552 296.091C111.131 293.362 109.81 290.544 108.627 287.713L110.044 287.145C111.212 289.938 112.515 292.719 113.917 295.41L112.552 296.091ZM105.425 279.045C104.485 276.127 103.659 273.133 102.969 270.148L104.463 269.817C105.144 272.762 105.959 275.715 106.886 278.594L105.425 279.045ZM101.275 261.082C100.841 258.057 100.529 254.972 100.349 251.912L101.879 251.826C102.056 254.845 102.364 257.889 102.792 260.873L101.275 261.082ZM101.721 242.733L100.19 242.698C100.263 239.634 100.467 236.541 100.794 233.505L102.318 233.662C101.995 236.658 101.794 239.71 101.721 242.733ZM103.672 224.67L102.167 224.39C102.751 221.384 103.47 218.365 104.305 215.417L105.782 215.817C104.957 218.726 104.248 221.704 103.672 224.67ZM108.634 207.166L107.197 206.647C108.28 203.776 109.501 200.913 110.824 198.137L112.213 198.771C110.907 201.509 109.703 204.334 108.634 207.166ZM318.448 202.533C317.251 199.754 315.918 196.987 314.487 194.31L315.845 193.615C317.295 196.329 318.646 199.134 319.86 201.95L318.448 202.533ZM116.488 190.694L115.158 189.951C116.71 187.295 118.395 184.669 120.167 182.143L121.429 182.992C119.682 185.483 118.019 188.075 116.488 190.694ZM309.845 186.434C308.195 183.885 306.416 181.37 304.557 178.96L305.78 178.056C307.664 180.499 309.467 183.048 311.139 185.633L309.845 186.434ZM127.001 175.713L125.813 174.766C127.789 172.393 129.89 170.072 132.057 167.866L133.161 168.905C131.023 171.081 128.95 173.372 127.001 175.713ZM298.66 171.934C296.605 169.68 294.43 167.483 292.194 165.402L293.25 164.316C295.515 166.425 297.72 168.652 299.803 170.935L298.66 171.934ZM139.87 162.614L138.857 161.49C141.201 159.466 143.66 157.511 146.166 155.681L147.082 156.882C144.609 158.688 142.183 160.616 139.87 162.614ZM285.204 159.411C282.801 157.516 280.287 155.695 277.735 154L278.595 152.759C281.182 154.478 283.729 156.323 286.165 158.243L285.204 159.411ZM154.748 151.749L153.936 150.478C156.588 148.855 159.341 147.321 162.116 145.919L162.819 147.251C160.08 148.634 157.365 150.147 154.748 151.749ZM269.837 149.208C267.145 147.721 264.361 146.329 261.561 145.069L262.202 143.706C265.039 144.984 267.861 146.396 270.59 147.902L269.837 149.208ZM171.24 143.421L170.652 142.037C173.539 140.864 176.51 139.795 179.484 138.86L179.953 140.287C177.019 141.209 174.087 142.264 171.24 143.421ZM252.964 141.613C250.065 140.583 247.084 139.659 244.104 138.868L244.506 137.422C247.526 138.224 250.548 139.16 253.487 140.204L252.964 141.613ZM188.908 137.869L188.562 136.409C191.604 135.719 194.718 135.145 197.815 134.702L198.037 136.185C194.981 136.622 191.91 137.189 188.908 137.869V137.869ZM235.042 136.851C232.014 136.305 228.919 135.876 225.843 135.575L225.996 134.083C229.113 134.388 232.251 134.823 235.32 135.377L235.042 136.851ZM207.276 135.243L207.18 133.747C210.296 133.554 213.473 133.486 216.595 133.541L216.567 135.04C213.484 134.985 210.351 135.053 207.276 135.243Z" fill="#3F3D56"/>
<path id="Vector_4" d="M323.062 215.431C322.652 214.005 322.206 212.567 321.737 211.157L323.193 210.693C323.669 212.121 324.121 213.579 324.537 215.025L323.062 215.431Z" fill="#3F3D56"/>
<path id="Vector_5" d="M313.72 131.484H312.188C312.188 129.984 312.215 128.462 312.269 126.96L313.8 127.012C313.747 128.497 313.72 130.001 313.72 131.484Z" fill="#3F3D56"/>
<path id="Vector_6" d="M314.449 117.998L312.926 117.839C313.254 114.821 313.698 111.777 314.246 108.794L315.754 109.059C315.212 112.007 314.774 115.015 314.449 117.998ZM317.711 100.234L316.227 99.8633C316.994 96.9212 317.88 93.9715 318.861 91.0956L320.314 91.5699C319.345 94.4121 318.469 97.3267 317.711 100.234ZM562.04 84.4183C560.895 81.6365 559.632 78.8609 558.285 76.1695L559.662 75.5108C561.024 78.2344 562.302 81.0429 563.462 83.8584L562.04 84.4183ZM323.552 83.1045L322.138 82.5284C323.329 79.7272 324.641 76.9308 326.037 74.2167L327.405 74.8908C326.026 77.5731 324.729 80.3362 323.552 83.1045ZM553.933 68.2051C552.393 65.6147 550.737 63.0445 549.009 60.5661L550.275 59.7213C552.023 62.2294 553.699 64.83 555.257 67.4512L553.933 68.2051ZM331.852 66.9707L330.537 66.2021C332.125 63.5993 333.832 61.0162 335.611 58.525L336.867 59.3836C335.109 61.8455 333.421 64.3982 331.852 66.9707H331.852ZM543.539 53.2904C541.634 50.9375 539.62 48.6242 537.553 46.4144L538.683 45.4021C540.775 47.6382 542.813 49.9787 544.741 52.3593L543.539 53.2904ZM342.422 52.1676L341.232 51.2233C343.187 48.865 345.252 46.5469 347.37 44.3334L348.489 45.3582C346.395 47.546 344.353 49.837 342.422 52.1676ZM531.082 39.9728C528.855 37.9094 526.526 35.8995 524.157 33.9982L525.128 32.8395C527.525 34.7627 529.882 36.7968 532.135 38.8844L531.082 39.9728ZM355.035 38.9898L353.993 37.8897C356.268 35.8288 358.648 33.8214 361.068 31.9238L362.026 33.0935C359.635 34.9691 357.283 36.9527 355.035 38.9898V38.9898ZM516.815 28.5217C514.312 26.7892 511.714 25.124 509.092 23.5722L509.885 22.2898C512.538 23.8599 515.167 25.5448 517.699 27.2979L516.815 28.5217ZM369.428 27.7005L368.557 26.4671C371.107 24.7441 373.754 23.0895 376.425 21.5487L377.203 22.8399C374.564 24.3627 371.948 25.9979 369.428 27.7004V27.7005ZM501.027 19.1772C498.295 17.8121 495.48 16.5282 492.659 15.3604L493.256 13.9799C496.111 15.1613 498.96 16.4609 501.724 17.8421L501.027 19.1772ZM385.313 18.5378L384.632 17.1954C387.407 15.8472 390.267 14.5805 393.134 13.431L393.716 14.818C390.882 15.954 388.055 17.2056 385.313 18.5378V18.5378ZM484.031 12.1438C481.133 11.1784 478.158 10.3037 475.189 9.54427L475.577 8.09426C478.582 8.86245 481.593 9.74776 484.525 10.7245L484.031 12.1438ZM402.367 11.7003L401.89 10.2759C404.834 9.33164 407.854 8.48001 410.864 7.74472L411.235 9.19912C408.26 9.92559 405.276 10.767 402.367 11.7002L402.367 11.7003ZM466.18 7.57712C463.168 7.02997 460.096 6.58313 457.051 6.24862L457.222 4.75909C460.304 5.09762 463.412 5.5496 466.46 6.10299L466.18 7.57712ZM420.264 7.33045L420.002 5.85336C423.054 5.33331 426.166 4.91496 429.253 4.6094L429.407 6.10113C426.357 6.40268 423.28 6.81623 420.264 7.33044L420.264 7.33045ZM447.848 5.56131C444.78 5.43944 441.661 5.42334 438.617 5.51227L438.57 4.01397C441.652 3.92395 444.806 3.93968 447.911 4.06375L447.848 5.56131Z" fill="#3F3D56"/>
<path id="Vector_7" d="M566.522 97.2814C566.112 95.8548 565.669 94.4146 565.207 93.0001L566.666 92.5434C567.134 93.9744 567.582 95.4317 567.997 96.8751L566.522 97.2814Z" fill="#3F3D56"/>
<path id="Vector_8" d="M118.786 326.529C132.879 326.529 144.303 325.691 144.303 324.657C144.303 323.622 132.879 322.784 118.786 322.784C104.693 322.784 93.2679 323.622 93.2679 324.657C93.2679 325.691 104.693 326.529 118.786 326.529Z" fill="#6C63FF"/>
<path id="Vector_9" d="M322.29 236.019C336.383 236.019 347.807 235.18 347.807 234.146C347.807 233.112 336.383 232.273 322.29 232.273C308.196 232.273 296.772 233.112 296.772 234.146C296.772 235.18 308.196 236.019 322.29 236.019Z" fill="#6C63FF"/>
<path id="Vector_10" d="M573.639 141.763C587.732 141.763 599.157 140.924 599.157 139.89C599.157 138.856 587.732 138.017 573.639 138.017C559.546 138.017 548.121 138.856 548.121 139.89C548.121 140.924 559.546 141.763 573.639 141.763Z" fill="#6C63FF"/>
<g id="line4">
<path id="Vector_11" d="M563.528 133.742L486.797 208.822L487.88 209.882L564.612 134.802L563.528 133.742Z" fill="#3F3D56"/>
</g>
<g id="line3">
<path id="Vector_12" d="M464.551 218.415H335.686V219.914H464.551V218.415Z" fill="#3F3D56"/>
</g>
<g id="line2">
<path id="Vector_13" d="M312.166 228.635L240.091 299.158L241.175 300.218L313.249 229.694L312.166 228.635Z" fill="#3F3D56"/>
</g>
<g id="line1">
<path id="Vector_14" d="M218.305 308.926H132.182V310.425H218.305V308.926Z" fill="#3F3D56"/>
</g>
<path id="Vector_15" d="M108.771 318.414L23.1905 402.153L24.2737 403.213L109.854 319.474L108.771 318.414Z" fill="#3F3D56"/>
<path id="Vector_16" d="M118.786 323.534C115.985 323.534 113.246 322.721 110.917 321.198C108.588 319.676 106.773 317.511 105.701 314.979C104.629 312.447 104.348 309.66 104.894 306.972C105.441 304.284 106.79 301.815 108.77 299.876C110.751 297.938 113.275 296.618 116.022 296.084C118.77 295.549 121.617 295.823 124.205 296.872C126.793 297.921 129.005 299.697 130.561 301.976C132.118 304.255 132.948 306.935 132.948 309.676C132.944 313.35 131.451 316.872 128.796 319.47C126.14 322.068 122.541 323.529 118.786 323.534ZM118.786 297.316C116.288 297.316 113.845 298.041 111.768 299.399C109.691 300.757 108.072 302.687 107.116 304.946C106.16 307.204 105.91 309.689 106.397 312.086C106.884 314.484 108.087 316.686 109.854 318.415C111.62 320.143 113.871 321.32 116.321 321.797C118.771 322.274 121.311 322.029 123.619 321.094C125.927 320.158 127.9 318.574 129.288 316.542C130.676 314.509 131.416 312.12 131.416 309.676C131.412 306.399 130.081 303.258 127.713 300.941C125.345 298.624 122.134 297.32 118.786 297.316Z" fill="#3F3D56"/>
<path id="Vector_17" d="M231.701 323.534C228.9 323.534 226.162 322.721 223.833 321.198C221.504 319.675 219.688 317.511 218.617 314.979C217.545 312.447 217.264 309.66 217.811 306.972C218.357 304.284 219.706 301.814 221.687 299.876C223.667 297.938 226.191 296.618 228.938 296.084C231.686 295.549 234.533 295.823 237.121 296.872C239.709 297.921 241.921 299.697 243.478 301.976C245.034 304.255 245.864 306.935 245.864 309.676C245.86 313.35 244.367 316.872 241.712 319.47C239.056 322.068 235.456 323.53 231.701 323.534ZM231.701 297.316C229.203 297.316 226.761 298.041 224.684 299.399C222.607 300.757 220.988 302.688 220.032 304.946C219.076 307.204 218.826 309.689 219.313 312.087C219.801 314.484 221.004 316.686 222.77 318.415C224.536 320.143 226.787 321.32 229.237 321.797C231.687 322.274 234.227 322.029 236.535 321.094C238.843 320.158 240.816 318.574 242.204 316.542C243.592 314.509 244.332 312.12 244.332 309.676C244.329 306.399 242.997 303.257 240.629 300.94C238.261 298.623 235.05 297.32 231.701 297.316Z" fill="#3F3D56"/>
<path id="Vector_18" d="M322.289 233.023C319.488 233.023 316.75 232.21 314.421 230.687C312.092 229.164 310.277 227 309.205 224.468C308.133 221.936 307.853 219.149 308.399 216.461C308.945 213.773 310.294 211.304 312.275 209.366C314.256 207.428 316.779 206.108 319.527 205.573C322.274 205.038 325.122 205.313 327.709 206.362C330.297 207.411 332.509 209.187 334.066 211.466C335.622 213.745 336.452 216.424 336.452 219.165C336.448 222.839 334.955 226.361 332.3 228.959C329.644 231.557 326.044 233.019 322.289 233.023ZM322.289 206.806C319.791 206.806 317.349 207.531 315.272 208.889C313.195 210.247 311.576 212.177 310.62 214.435C309.664 216.694 309.414 219.179 309.902 221.576C310.389 223.974 311.592 226.176 313.358 227.904C315.125 229.632 317.376 230.809 319.826 231.286C322.276 231.763 324.815 231.518 327.123 230.583C329.431 229.647 331.404 228.063 332.792 226.031C334.18 223.999 334.92 221.609 334.92 219.165C334.917 215.888 333.585 212.747 331.217 210.43C328.849 208.113 325.638 206.81 322.289 206.806V206.806Z" fill="#3F3D56"/>
<path id="Vector_19" d="M477.947 233.023C475.146 233.023 472.408 232.21 470.079 230.687C467.75 229.164 465.935 227 464.863 224.468C463.791 221.936 463.51 219.149 464.057 216.461C464.603 213.773 465.952 211.304 467.933 209.366C469.914 207.428 472.437 206.108 475.185 205.573C477.932 205.038 480.779 205.313 483.367 206.362C485.955 207.411 488.167 209.187 489.723 211.466C491.28 213.745 492.11 216.424 492.11 219.165C492.106 222.839 490.613 226.361 487.957 228.959C485.302 231.557 481.702 233.019 477.947 233.023ZM477.947 206.806C475.449 206.806 473.007 207.531 470.93 208.889C468.853 210.247 467.234 212.177 466.278 214.435C465.322 216.694 465.072 219.179 465.56 221.576C466.047 223.974 467.25 226.176 469.016 227.904C470.783 229.632 473.033 230.809 475.484 231.286C477.934 231.763 480.473 231.518 482.781 230.583C485.089 229.647 487.062 228.063 488.45 226.031C489.838 223.999 490.578 221.609 490.578 219.165C490.575 215.888 489.243 212.747 486.875 210.43C484.507 208.113 481.296 206.809 477.947 206.806V206.806Z" fill="#3F3D56"/>
<path id="Vector_20" d="M573.639 138.767C570.838 138.767 568.1 137.954 565.771 136.431C563.442 134.909 561.626 132.744 560.554 130.212C559.482 127.68 559.202 124.893 559.749 122.205C560.295 119.517 561.644 117.048 563.625 115.11C565.605 113.172 568.129 111.852 570.876 111.317C573.623 110.783 576.471 111.057 579.059 112.106C581.647 113.155 583.859 114.931 585.415 117.21C586.971 119.489 587.802 122.168 587.802 124.909C587.798 128.583 586.304 132.105 583.649 134.703C580.994 137.301 577.394 138.763 573.639 138.767ZM573.639 112.55C571.141 112.55 568.699 113.275 566.622 114.633C564.545 115.991 562.926 117.921 561.97 120.18C561.014 122.438 560.764 124.923 561.251 127.32C561.739 129.718 562.942 131.92 564.708 133.648C566.475 135.376 568.725 136.554 571.175 137.03C573.625 137.507 576.165 137.262 578.473 136.327C580.781 135.392 582.754 133.807 584.141 131.775C585.529 129.743 586.27 127.353 586.27 124.909C586.266 121.632 584.934 118.491 582.566 116.174C580.198 113.857 576.988 112.554 573.639 112.55V112.55Z" fill="#3F3D56"/>
<path id="Vector_21" d="M14.163 425.904C11.3618 425.905 8.62348 425.092 6.29434 423.569C3.9652 422.046 2.14983 419.882 1.07781 417.35C0.00579028 414.818 -0.274738 412.031 0.271702 409.343C0.818143 406.655 2.16701 404.185 4.14772 402.247C6.12844 400.309 8.65205 398.989 11.3994 398.454C14.1468 397.92 16.9945 398.194 19.5825 399.243C22.1704 400.292 24.3824 402.068 25.9387 404.347C27.4949 406.626 28.3256 409.305 28.3256 412.046C28.3214 415.72 26.8279 419.243 24.1728 421.841C21.5177 424.439 17.9179 425.9 14.163 425.904ZM14.163 399.687C11.6648 399.687 9.22269 400.412 7.14549 401.77C5.06829 403.128 3.44928 405.058 2.49322 407.316C1.53715 409.575 1.28696 412.06 1.77429 414.457C2.26162 416.855 3.46457 419.057 5.23103 420.785C6.99749 422.514 9.24811 423.691 11.6983 424.168C14.1485 424.645 16.6882 424.4 18.9962 423.465C21.3042 422.529 23.2769 420.945 24.6648 418.913C26.0528 416.88 26.7936 414.491 26.7936 412.046C26.7897 408.77 25.4578 405.628 23.09 403.311C20.7221 400.994 17.5117 399.691 14.163 399.687Z" fill="#3F3D56"/>
<g id="first">
<path id="Vector_22" d="M118.786 227.904C115.435 227.904 112.116 228.55 109.02 229.804C105.924 231.059 103.111 232.898 100.742 235.217C98.3723 237.535 96.4927 240.288 95.2103 243.317C93.9279 246.347 93.2679 249.593 93.2679 252.872C93.2679 266.662 118.786 312.172 118.786 312.172C118.786 312.172 144.303 266.662 144.303 252.872C144.303 249.593 143.643 246.347 142.361 243.317C141.079 240.288 139.199 237.535 136.829 235.217C134.46 232.898 131.647 231.059 128.551 229.804C125.455 228.55 122.137 227.904 118.786 227.904ZM118.786 265.981C116.136 265.981 113.546 265.212 111.343 263.772C109.14 262.331 107.423 260.284 106.409 257.889C105.395 255.493 105.129 252.858 105.646 250.315C106.163 247.772 107.439 245.436 109.313 243.603C111.186 241.77 113.573 240.521 116.172 240.016C118.771 239.51 121.464 239.77 123.912 240.762C126.36 241.754 128.453 243.434 129.925 245.59C131.397 247.745 132.182 250.28 132.182 252.872C132.182 256.349 130.771 259.683 128.259 262.141C125.746 264.6 122.339 265.981 118.786 265.981Z" fill="#6C63FF"/>
</g>
<g id="second">
<path id="Vector_23" d="M322.289 134.272C315.522 134.272 309.031 136.903 304.246 141.585C299.46 146.268 296.772 152.618 296.772 159.24C296.772 173.03 322.29 218.541 322.29 218.541C322.29 218.541 347.807 173.03 347.807 159.24C347.807 155.962 347.147 152.715 345.865 149.685C344.582 146.656 342.703 143.904 340.333 141.585C337.964 139.267 335.151 137.427 332.055 136.173C328.959 134.918 325.641 134.272 322.289 134.272ZM322.289 172.349C319.64 172.349 317.05 171.58 314.847 170.14C312.644 168.699 310.926 166.652 309.912 164.257C308.898 161.862 308.633 159.226 309.15 156.683C309.667 154.14 310.943 151.805 312.817 149.971C314.69 148.138 317.077 146.89 319.676 146.384C322.275 145.878 324.968 146.138 327.416 147.13C329.864 148.122 331.956 149.802 333.429 151.958C334.901 154.114 335.686 156.648 335.686 159.24C335.686 162.717 334.275 166.051 331.762 168.51C329.25 170.968 325.843 172.349 322.289 172.349Z" fill="#6C63FF"/>
</g>
<path id="Vector_24" d="M823.242 530.169H475.829V532H823.242V530.169Z" fill="#2F2E41"/>
<path id="Vector_25" d="M762.514 54.2894C757.113 69.9362 748.831 84.1928 731.952 84.1928C715.074 84.1928 702.342 70.7784 701.391 54.2894C700.176 33.2198 714.684 24.2987 731.952 24.3859C752.352 24.489 768.923 35.7204 762.514 54.2894Z" fill="#2F2E41"/>
<path id="Vector_26" d="M761.709 51.9286H701.391V126.687H761.709V51.9286Z" fill="#2F2E41"/>
<path id="Vector_27" d="M763.481 107.624H768.611C768.611 107.624 781.152 123.242 775.452 144.438C769.751 165.633 774.311 169.538 774.311 169.538C774.311 169.538 781.733 192.491 773.752 227.073C765.771 261.655 781.152 271.053 781.152 271.053L766.901 243.165L758.92 169.538L763.481 107.624Z" fill="#575A89"/>
<path id="Vector_28" opacity="0.1" d="M763.481 109.459H768.611C768.611 109.459 781.152 125.077 775.452 146.272C769.751 167.468 774.311 171.372 774.311 171.372C774.311 171.372 781.733 194.326 773.752 228.908C765.771 263.49 781.152 272.888 781.152 272.888L766.901 244.999L758.92 171.372L763.481 109.459Z" fill="black"/>
<path id="Vector_29" d="M745.524 80.5718C745.524 80.5718 740.964 98.4207 743.244 98.4207C745.524 98.4207 753.505 107.903 753.505 107.903L758.635 126.31L754.645 139.696L740.964 136.908L723.862 118.501L718.732 113.481L714.171 97.3051C714.171 97.3051 719.872 90.6118 715.881 85.034C711.891 79.4562 745.524 80.5718 745.524 80.5718Z" fill="#FBBEBE"/>
<path id="Vector_30" opacity="0.1" d="M745.524 80.5718C745.524 80.5718 740.964 98.4207 743.244 98.4207C745.524 98.4207 753.505 107.903 753.505 107.903L758.635 126.31L754.645 139.696L740.964 136.908L723.862 118.501L718.732 113.481L714.171 97.3051C714.171 97.3051 719.872 90.6118 715.881 85.034C711.891 79.4562 745.524 80.5718 745.524 80.5718Z" fill="black"/>
<path id="Vector_31" d="M607.572 130.214L595.031 110.134C595.031 110.134 581.493 80.8259 571.803 91.4237C562.112 102.022 586.48 123.521 586.48 123.521L599.021 139.696L607.572 130.214Z" fill="#FBBEBE"/>
<path id="Vector_32" d="M774.026 304.799L764.906 370.059C764.906 370.059 766.046 375.079 754.645 393.486C743.244 411.893 712.461 452.053 712.461 452.053L703.34 435.32C703.34 435.32 714.171 382.331 732.983 371.175L730.703 290.855L774.026 304.799Z" fill="#FBBEBE"/>
<path id="Vector_33" opacity="0.1" d="M774.026 304.799L764.906 370.059C764.906 370.059 766.046 375.079 754.645 393.486C743.244 411.893 712.461 452.053 712.461 452.053L703.34 435.32C703.34 435.32 714.171 382.331 732.983 371.175L730.703 290.855L774.026 304.799Z" fill="black"/>
<path id="Vector_34" d="M703.34 428.626L715.881 452.053C715.881 452.053 705.62 480.5 709.611 483.289C713.601 486.078 718.732 511.178 707.901 508.389C697.07 505.6 688.519 494.444 688.519 492.771C688.519 491.098 694.79 467.671 691.369 462.093C687.949 456.515 685.669 454.842 685.669 454.842L677.118 468.786L674.268 467.113L688.519 443.686C688.519 443.686 690.229 439.224 697.07 436.435L703.34 428.626Z" fill="#2F2E41"/>
<path id="Vector_35" opacity="0.1" d="M703.34 428.626L715.881 452.053C715.881 452.053 705.62 480.5 709.611 483.289C713.601 486.078 718.732 511.178 707.901 508.389C697.07 505.6 688.519 494.444 688.519 492.771C688.519 491.098 694.79 467.671 691.369 462.093C687.949 456.515 685.669 454.842 685.669 454.842L677.118 468.786L674.268 467.113L688.519 443.686C688.519 443.686 690.229 439.224 697.07 436.435L703.34 428.626Z" fill="black"/>
<path id="Vector_36" d="M730.836 295.54C730.836 295.54 735.263 357.231 725.572 373.406V453.726L712.461 455.4C712.461 455.4 685.984 412.876 695.674 371.043C705.365 329.209 685.669 290.855 685.669 290.855L730.836 295.54Z" fill="#FBBEBE"/>
<path id="Vector_37" d="M727.567 94.2374C740.79 94.2374 751.509 83.7489 751.509 70.8106C751.509 57.8724 740.79 47.3839 727.567 47.3839C714.345 47.3839 703.625 57.8724 703.625 70.8106C703.625 83.7489 714.345 94.2374 727.567 94.2374Z" fill="#FBBEBE"/>
<path id="Vector_38" d="M751.795 132.445L727.852 102.883L714.171 93.9585L708.471 101.21L692.509 105.672C692.509 105.672 682.248 107.903 671.417 120.174C660.587 132.445 641.205 139.696 641.205 139.696L625.243 136.908C625.243 136.908 606.432 128.541 606.432 126.31C606.432 124.079 589.9 141.37 593.891 148.063C597.881 154.757 606.432 163.123 610.992 167.585C615.553 172.048 617.263 184.877 645.195 180.972C673.128 177.068 683.389 163.681 683.389 163.681C683.389 163.681 688.519 189.339 703.34 194.359C718.162 199.379 766.616 202.726 766.616 202.726L776.877 169.259C776.877 169.259 788.278 154.757 772.886 133.561C772.886 133.561 772.591 121.707 770.936 113.819C770.293 110.751 769.443 108.282 768.326 107.345C764.336 103.999 743.244 98.4208 743.244 98.4208C743.244 98.4208 746.664 109.576 748.374 110.134C750.084 110.692 754.075 129.656 751.795 132.445Z" fill="#575A89"/>
<path id="Vector_39" d="M675.123 298.943C703.83 296.99 720.544 301.592 728.001 305.1C729.387 305.714 730.692 306.49 731.888 307.41C732.436 307.861 732.698 308.213 732.698 308.425C732.698 310.098 772.031 313.445 786.282 310.098C800.534 306.751 776.592 234.798 770.321 228.662C764.051 222.527 767.431 200.071 767.431 200.071C767.431 200.071 754.93 197.427 751.509 198.542C748.089 199.658 730.418 196.869 724.147 193.522C717.876 190.176 709.896 192.407 704.765 191.291C702.474 190.795 701.317 191.631 700.741 192.713C699.845 194.337 698.491 195.674 696.842 196.568C684.74 203.389 675.026 250.555 667.712 276.631C659.731 305.078 675.123 298.943 675.123 298.943Z" fill="#2F2E41"/>
<path id="Vector_40" d="M727.852 448.706L730.133 460.978C730.133 460.978 742.104 477.711 738.683 491.655C738.683 491.655 741.534 510.062 751.795 515.082C762.055 520.102 753.505 531.816 743.814 531.258C734.123 530.7 725.002 531.816 723.862 529.027C722.722 526.238 715.881 498.907 715.881 498.907L714.01 530.89L708.309 531.447L710.181 494.444C710.181 494.444 705.621 486.078 711.891 472.133L710.308 450.729C710.308 450.729 726.142 454.284 727.852 448.706Z" fill="#2F2E41"/>
<path id="Vector_41" opacity="0.1" d="M728.001 305.1C729.387 305.714 730.692 306.49 731.888 307.41C732.19 302.139 733.935 270.261 731.843 270.775L728.001 305.1Z" fill="black"/>
<path id="Vector_42" d="M717.656 38.5507C717.656 38.5507 717.391 37.1065 707.021 40.9115C696.651 44.7166 690.435 72.7962 695.62 89.2847C697.709 95.9295 696.009 100.72 693.235 104.073C682.824 116.652 686.922 135.545 702.087 142.014C702.515 142.197 702.952 142.377 703.397 142.555L709.878 146.361C709.878 146.361 701.616 135.723 705.751 122.116C709.342 110.522 709.785 98.2134 707.037 86.4011C706.563 84.4084 706.024 82.3543 705.412 80.2581C700.227 62.5012 702.749 64.5519 720.897 46.795C720.897 46.795 731.267 54.4051 740.34 58.2102C749.414 62.0152 757.192 65.8203 750.71 78.5038C744.229 91.1873 728.674 102.602 739.044 119.091C749.414 135.58 750.71 129.238 749.414 135.58L748.118 141.921L755.895 134.311L750.71 144.458C750.71 144.458 767.562 144.458 772.747 131.774L775.339 134.311C775.339 134.311 785.709 116.554 766.265 100.066C766.265 100.066 759.784 96.2606 768.858 83.5771C777.932 70.8936 770.963 43.6241 759.297 38.5507C747.63 33.4773 717.656 38.5507 717.656 38.5507Z" fill="#2F2E41"/>
<path id="Vector_43" d="M731.952 30.6814C738.615 30.6814 744.016 25.3966 744.016 18.8774C744.016 12.3583 738.615 7.07343 731.952 7.07343C725.29 7.07343 719.889 12.3583 719.889 18.8774C719.889 25.3966 725.29 30.6814 731.952 30.6814Z" fill="#2F2E41"/>
<path id="Vector_44" d="M717.476 12.5819C717.476 9.6558 718.587 6.83403 720.593 4.66398C722.599 2.49393 725.358 1.13029 728.333 0.837563C727.936 0.798992 727.534 0.777954 727.127 0.777954C723.927 0.777954 720.859 2.02158 718.597 4.23526C716.334 6.44894 715.063 9.45134 715.063 12.582C715.063 15.7126 716.334 18.715 718.597 20.9286C720.859 23.1423 723.927 24.3859 727.127 24.3859C727.534 24.3859 727.936 24.3649 728.333 24.3263C725.358 24.0336 722.599 22.67 720.593 20.4999C718.587 18.3299 717.476 15.5081 717.476 12.5819Z" fill="#2F2E41"/>
<g id="third">
<path id="Vector_45" d="M573.639 44.3855C570.288 44.3855 566.97 45.0314 563.874 46.2861C560.778 47.5409 557.965 49.3801 555.595 51.6986C553.226 54.0172 551.346 56.7697 550.064 59.799C548.781 62.8283 548.121 66.0751 548.121 69.354C548.121 83.1437 573.639 128.654 573.639 128.654C573.639 128.654 599.157 83.1437 599.157 69.354C599.157 66.0751 598.497 62.8283 597.214 59.799C595.932 56.7697 594.052 54.0172 591.683 51.6986C589.313 49.3801 586.5 47.5409 583.404 46.2861C580.308 45.0314 576.99 44.3855 573.639 44.3855ZM573.639 82.4625C570.989 82.4625 568.399 81.6936 566.196 80.2533C563.993 78.8129 562.276 76.7657 561.262 74.3704C560.248 71.9752 559.983 69.3395 560.5 66.7967C561.017 64.2539 562.293 61.9182 564.166 60.085C566.04 58.2517 568.427 57.0033 571.026 56.4975C573.624 55.9917 576.318 56.2513 578.766 57.2434C581.214 58.2356 583.306 59.9157 584.778 62.0714C586.25 64.227 587.036 66.7614 587.036 69.354C587.036 72.8306 585.624 76.1648 583.112 78.6231C580.6 81.0814 577.192 82.4625 573.639 82.4625Z" fill="#6C63FF"/>
</g>
</g>
</g>
<defs>
<clipPath id="clip0">
<rect width="869" height="532" fill="white"/>
</clipPath>
</defs>
</svg>
