<svg width="974" height="374" viewBox="0 0 974 374" fill="none" xmlns="http://www.w3.org/2000/svg">
<rect width="974" height="374" fill="#E5E5E5"/>
<g id="undraw_Ride_a_bicycle_2yok 1">
<g id="boy1">
<path id="Vector" d="M233.575 242.406C233.575 242.406 244.919 236.174 249.303 232.163C251.942 229.759 254.779 227.602 257.782 225.716L272.013 216.697L301.757 214.315L303.13 219.556C303.13 219.556 305.418 227.179 282.538 233.849C259.658 240.52 248.218 251.001 248.218 251.001C248.218 251.001 233.575 256.223 233.575 242.406Z" fill="#DB8B8B"/>
<path id="Vector_2" opacity="0.1" d="M249.431 249.967C248.621 250.611 248.218 250.982 248.218 250.982C248.218 250.982 233.575 256.223 233.575 242.406C233.575 242.406 234.284 242.016 235.405 241.363C236.538 243.283 238.125 244.869 240.014 245.969C241.903 247.07 244.031 247.647 246.196 247.647H247.747L249.431 249.967Z" fill="black"/>
<path id="Vector_3" opacity="0.05" d="M302.7 222.186C301.428 224.992 297.039 229.604 282.538 233.83C263.955 239.247 252.918 247.171 249.431 249.967C248.621 250.611 248.218 250.982 248.218 250.982C248.218 250.982 233.575 256.223 233.575 242.406C233.575 242.406 234.284 242.016 235.405 241.363C238.805 239.424 246.003 235.169 249.289 232.144C251.927 229.739 254.765 227.582 257.768 225.697L271.999 216.678L277.298 216.254L301.743 214.296L303.116 219.537C303.116 219.537 303.436 220.561 302.7 222.186Z" fill="black"/>
<path id="Vector_4" d="M233.804 239.309L221.678 247.647L257.187 278.616C257.187 278.616 262.404 275.281 259.658 271.469C259.658 271.469 250.506 263.37 250.049 251.935L247.303 248.124H245.752C243.129 248.124 240.57 247.276 238.43 245.697C236.29 244.118 234.673 241.886 233.804 239.309Z" fill="#ABB1D1"/>
<path id="Vector_5" opacity="0.1" d="M302.7 222.186C295.378 218.503 277.504 218.108 277.504 218.108L277.312 216.254L301.757 214.296L303.13 219.537C303.13 219.537 303.436 220.561 302.7 222.186Z" fill="black"/>
<path id="Vector_6" d="M277.504 217.155C277.504 217.155 299.011 217.631 304.503 222.396L301.757 164.746H272.013L277.504 217.155Z" fill="#ABB1D1"/>
<path id="Vector_7" opacity="0.05" d="M277.504 216.916C277.504 216.916 299.011 217.393 304.503 222.157L301.757 164.508H272.013L277.504 216.916Z" fill="black"/>
<path id="Vector_8" d="M294.783 181.879C294.783 181.879 348.619 179.973 349.718 187.22C350.816 194.466 295.881 191.412 295.881 191.412C295.881 191.412 291.489 186.834 294.783 181.879Z" fill="#535461"/>
<path id="Vector_9" opacity="0.05" d="M294.783 181.879C294.783 181.879 348.619 179.973 349.718 187.22C350.816 194.466 295.881 191.412 295.881 191.412C295.881 191.412 291.489 186.834 294.783 181.879Z" fill="black"/>
<path id="Vector_10" opacity="0.1" d="M251.202 210.856V217.493C248.035 217.922 244.795 218.193 241.679 218.298V210.856H251.202Z" fill="black"/>
<path id="Vector_11" d="M250.488 203.714C249.152 203.607 247.823 203.42 246.507 203.157C241.345 202.128 228.331 199.969 224.83 203.633C220.437 208.207 221.902 216.216 233.621 217.36C245.34 218.503 265.483 215.454 269.515 210.875C269.515 210.856 262.225 204.653 250.488 203.714Z" fill="#535461"/>
<path id="Vector_12" opacity="0.1" d="M370.442 260.445C368.156 261.06 365.927 261.884 363.78 262.908L359.405 250.182C361.701 249.14 364.065 248.269 366.479 247.576L370.442 260.445Z" fill="black"/>
<path id="Vector_13" opacity="0.1" d="M350.734 194.066L341.801 196.83L340.2 192.175L348.624 187.215L350.734 194.066Z" fill="black"/>
<path id="Vector_14" d="M296.248 202.09L346.423 184.166C346.423 184.166 355.213 185.309 351.914 192.937L301.377 208.569C301.377 208.569 293.69 209.331 296.248 202.09Z" fill="#535461"/>
<path id="Vector_15" opacity="0.1" d="M239.666 301.424C239.665 304.346 239.448 307.264 239.016 310.152C234.623 309.823 230.084 309.347 225.636 308.87C226.624 303.205 226.501 297.39 225.274 291.776C229.608 290.823 234.033 289.913 238.352 289.088C239.228 293.137 239.668 297.274 239.666 301.424Z" fill="black"/>
<path id="Vector_16" opacity="0.1" d="M251.202 286.902V297.036H241.679V288.46C244.974 287.864 248.177 287.335 251.202 286.902Z" fill="black"/>
<path id="Vector_17" opacity="0.1" d="M227.503 265.933L217.729 275.248C215.998 272.934 214.041 270.814 211.89 268.92L221.014 258.996C223.363 261.111 225.534 263.432 227.503 265.933Z" fill="black"/>
<path id="Vector_18" opacity="0.1" d="M186.379 307.336C189.616 307.336 192.24 304.604 192.24 301.233C192.24 297.862 189.616 295.13 186.379 295.13C183.141 295.13 180.517 297.862 180.517 301.233C180.517 304.604 183.141 307.336 186.379 307.336Z" fill="black"/>
<g id="boy1-right-wheel">
<path id="Vector_19" d="M188.159 352.236L185.289 305.573L185.23 305.473L182.338 306.521L169.031 346.947L147.867 331.325L181.578 305.878L181.61 305.778L181.803 305.706L183.976 304.063L148.631 283.428L139.974 293.338L141.347 302.628L181.99 303.4V304.353L140.587 303.581L139.022 293.033L150.874 279.473L168.606 257.938L168.921 258.829L172.674 254.541L186.612 257.142V256.566L187.527 256.594V257.314L208.284 261.182L188.932 301.495L186.109 303.624V303.862V304.129L230.862 287.892L225.549 331.349L187.568 306.159L186.232 305.378L208.627 342.96L188.159 352.236ZM186.328 307.288L189.005 350.826L207.332 342.545L186.328 307.288ZM149.455 331.315L168.578 345.432L181.089 307.441L149.455 331.315ZM187.124 304.796L188.081 305.354L224.849 329.748L229.791 289.312L187.124 304.796ZM183.876 301.366L185.024 303.295L185.225 303.143L186.598 258.105L172.989 255.57L169.255 259.858L183.876 301.366ZM149.364 282.756L183.61 302.767L183.015 301.752L168.564 260.649L151.546 280.121L149.364 282.756ZM187.527 258.271L186.154 302.447L188.223 300.885L206.943 261.902L187.527 258.271Z" fill="#535461"/>
<path id="Vector_20" d="M238.352 291.708C236.517 283.218 232.802 275.292 227.503 268.563C225.536 266.062 223.366 263.741 221.019 261.626C211.992 253.511 200.633 248.747 188.725 248.081C176.816 247.415 165.032 250.884 155.223 257.945C145.413 265.006 138.132 275.258 134.524 287.093C130.915 298.927 131.183 311.675 135.285 323.334C139.387 334.993 147.09 344.904 157.187 351.512C167.284 358.119 179.202 361.049 191.071 359.842C202.94 358.635 214.088 353.358 222.766 344.841C231.443 336.323 237.159 325.047 239.016 312.782C239.448 309.894 239.665 306.976 239.666 304.053C239.669 299.9 239.228 295.76 238.352 291.708ZM185.642 346.19C177.299 346.181 169.161 343.496 162.335 338.502C155.509 333.508 150.326 326.446 147.49 318.276C144.655 310.106 144.305 301.226 146.488 292.842C148.67 284.458 153.28 276.977 159.69 271.417C166.101 265.857 174 262.488 182.314 261.767C190.628 261.046 198.954 263.008 206.159 267.388C213.364 271.767 219.099 278.351 222.584 286.243C226.069 294.136 227.134 302.954 225.636 311.5C223.92 321.24 218.978 330.045 211.671 336.384C204.363 342.722 195.153 346.192 185.642 346.19Z" fill="#535461"/>
<path id="Vector_21" d="M186.642 310.336C189.879 310.336 192.504 307.604 192.504 304.233C192.504 300.862 189.879 298.13 186.642 298.13C183.404 298.13 180.78 300.862 180.78 304.233C180.78 307.604 183.404 310.336 186.642 310.336Z" fill="#535461"/>
</g>
<path id="Vector_22" opacity="0.1" d="M380.303 306.765C383.541 306.765 386.165 304.032 386.165 300.661C386.165 297.291 383.541 294.558 380.303 294.558C377.066 294.558 374.442 297.291 374.442 300.661C374.442 304.032 377.066 306.765 380.303 306.765Z" fill="black"/>
<g id="boy1-right-wheel_2">
<path id="Vector_23" d="M382.214 349.237L379.35 302.593L379.29 302.493L376.398 303.541L363.087 343.948L341.923 328.321L375.643 302.874L375.675 302.774L375.868 302.702L378.041 301.059L342.696 280.424L334.034 290.334L335.407 299.625L376.041 300.377V301.33L334.638 300.558L333.082 290.024L344.929 276.469L362.648 254.948L362.963 255.839L366.716 251.551L380.691 254.157V253.581L381.606 253.609V254.329L402.362 258.198L382.992 298.529L380.169 300.658V300.897V301.163L424.927 284.926L419.614 328.383L381.633 303.193L380.297 302.412L402.692 339.998L382.214 349.237ZM380.384 304.289L383.061 347.826L401.388 339.546L380.384 304.289ZM343.515 328.321L362.638 342.438L375.149 304.446L343.515 328.321ZM381.185 301.802L382.141 302.359L418.909 326.753L423.851 286.317L381.185 301.802ZM377.936 298.371L379.084 300.301L379.286 300.149L380.659 255.11L367.05 252.566L363.316 256.854L377.936 298.371ZM343.438 279.766L377.684 299.777L377.089 298.762L362.638 257.659L345.616 277.136L343.438 279.766ZM381.588 255.282L380.215 299.443L382.283 297.881L401.003 258.898L381.588 255.282Z" fill="#535461"/>
<path id="Vector_24" d="M379.885 245C375.029 244.994 370.194 245.674 365.512 247.02C363.098 247.713 360.734 248.584 358.438 249.626C346.206 255.147 336.376 265.195 330.848 277.826C325.32 290.457 324.488 304.774 328.513 318.007C332.538 331.24 341.133 342.449 352.636 349.465C364.14 356.481 377.733 358.805 390.787 355.989C403.842 353.172 415.429 345.415 423.307 334.218C431.186 323.02 434.796 309.178 433.439 295.37C432.082 281.561 425.854 268.767 415.961 259.463C406.068 250.159 393.212 245.006 379.881 245H379.885ZM379.702 343.191C370.422 343.187 361.422 339.878 354.197 333.813C346.972 327.748 341.957 319.292 339.985 309.85C338.013 300.408 339.202 290.548 343.356 281.907C347.509 273.266 354.376 266.364 362.817 262.347C364.964 261.324 367.193 260.5 369.48 259.884C375.068 258.374 380.901 258.12 386.591 259.14C392.28 260.159 397.696 262.429 402.478 265.798C407.26 269.166 411.298 273.557 414.323 278.676C417.348 283.796 419.292 289.528 420.024 295.491C420.756 301.454 420.26 307.511 418.569 313.258C416.878 319.006 414.03 324.312 410.216 328.825C406.402 333.338 401.708 336.953 396.448 339.43C391.187 341.907 385.48 343.189 379.707 343.191H379.702Z" fill="#535461"/>
<path id="Vector_25" d="M379.67 305.527C382.907 305.527 385.531 302.794 385.531 299.424C385.531 296.053 382.907 293.32 379.67 293.32C376.432 293.32 373.808 296.053 373.808 299.424C373.808 302.794 376.432 305.527 379.67 305.527Z" fill="#535461"/>
</g>
<path id="Vector_26" opacity="0.1" d="M276.47 307.336C282.942 307.336 288.189 301.873 288.189 295.134C288.189 288.396 282.942 282.933 276.47 282.933C269.998 282.933 264.751 288.396 264.751 295.134C264.751 301.873 269.998 307.336 276.47 307.336Z" fill="black"/>
<path id="Vector_27" d="M277.207 307.336C283.679 307.336 288.926 301.873 288.926 295.134C288.926 288.396 283.679 282.933 277.207 282.933C270.735 282.933 265.488 288.396 265.488 295.134C265.488 301.873 270.735 307.336 277.207 307.336Z" fill="#535461"/>
<path id="Vector_28" d="M274.078 294.218L274.074 294.221C272.698 295.292 272.417 297.323 273.446 298.756L282.747 311.706C283.776 313.138 285.726 313.431 287.103 312.36L287.106 312.357C288.482 311.285 288.764 309.255 287.735 307.822L278.433 294.872C277.404 293.439 275.454 293.146 274.078 294.218Z" fill="#6C63FF"/>
<path id="Vector_29" d="M330.128 125.677L329.039 140.023C328.914 141.84 328.937 143.665 329.108 145.478C329.249 147.084 329.107 149.895 327.597 154.183C325.659 159.661 324.657 165.45 324.637 171.287V187.615L314.112 185.709C314.112 185.709 314.57 162.84 312.739 159.028C310.909 155.217 314.112 121.389 314.112 121.389L330.128 125.677Z" fill="#DB8B8B"/>
<path id="Vector_30" opacity="0.05" d="M329.588 132.786L329.039 140.023C328.915 141.839 328.94 143.662 329.112 145.474C329.254 147.079 329.112 149.89 327.602 154.183C325.663 159.661 324.661 165.45 324.641 171.287V187.615L314.117 185.709C314.117 185.709 314.574 162.84 312.744 159.028C311.449 156.327 312.675 138.57 313.504 128.436C313.847 124.267 314.117 121.389 314.117 121.389L330.133 125.677L329.588 132.786Z" fill="black"/>
<path id="Vector_31" d="M277.971 235.26L274.013 258.701C273.514 261.83 272.748 264.908 271.725 267.896C269.405 274.5 270.888 283.757 272.013 288.807C272.512 291.037 272.928 292.447 272.928 292.447L261.031 299.118L257.37 296.259V294.353L256.913 251.95C254.167 245.279 255.082 235.274 256.913 231.462C257.433 230.21 257.799 228.894 258.002 227.546C258.917 222.438 259.201 215.263 259.201 215.263C259.201 215.263 266.522 202.399 275.216 210.975C278.42 214.134 279.637 218.265 279.893 222.219C280.341 228.99 277.971 235.26 277.971 235.26Z" fill="#DB8B8B"/>
<path id="Vector_32" opacity="0.1" d="M279.893 222.205C273.546 226.131 262.504 227.241 258.002 227.532C258.917 222.424 259.201 215.249 259.201 215.249C259.201 215.249 266.522 202.385 275.216 210.961C278.42 214.12 279.637 218.251 279.893 222.205Z" fill="black"/>
<path id="Vector_33" d="M295.351 210.484C290.485 213.183 285.886 216.374 281.623 220.013C274.301 226.207 255.997 226.684 255.997 226.684V219.537C256.455 210.961 248.676 201.432 238.151 174.751C231.429 157.713 233.291 148.07 235.515 143.306C236.778 140.614 238.151 139.494 238.151 139.494L295.351 150.929L297.396 157.313L301.757 170.94C301.757 170.94 285.741 171.892 282.996 173.322C280.25 174.751 282.08 187.615 282.08 187.615C279.335 200.956 295.351 210.484 295.351 210.484Z" fill="#ABB1D1"/>
<path id="Vector_34" opacity="0.1" d="M330.128 125.677L329.588 132.786C321.626 135.168 315.942 127.583 315.942 127.583C315.112 127.815 314.296 128.1 313.499 128.436C313.842 124.267 314.112 121.389 314.112 121.389L330.128 125.677Z" fill="black"/>
<path id="Vector_35" opacity="0.1" d="M297.396 157.313C297.181 159.538 297.181 160.934 297.181 160.934C297.181 160.934 286.656 169.987 268.81 156.17C250.964 142.353 234.948 146.164 234.948 146.164C234.948 146.164 235.136 145.059 235.515 143.306C236.778 140.614 238.151 139.494 238.151 139.494L295.351 150.929L297.396 157.313Z" fill="black"/>
<path id="Vector_36" d="M336.296 107.072C335.102 116.768 334.704 128.989 334.704 128.989C324.179 137.565 315.943 126.606 315.943 126.606C306.004 129.384 301.331 138.441 299.13 146.345C297.952 150.621 297.297 155.034 297.181 159.481C297.181 159.481 294.399 161.863 289.274 162.34C284.428 162.764 277.482 161.449 268.81 154.717C250.964 140.9 234.948 144.711 234.948 144.711C234.948 144.711 238.151 125.653 245.473 119.936C252.794 114.219 258.285 107.072 267.437 85.1555C276.589 63.2391 295.351 68.48 295.351 68.48C295.351 68.48 296.266 64.1919 313.197 68.48C317.321 69.6053 321.138 71.7107 324.349 74.6309C333.404 82.5589 337.797 94.856 336.296 107.072Z" fill="white"/>
<path id="Vector_37" d="M319.315 79.2238C319.292 79.8575 319.242 80.5626 319.159 81.3488C318.244 89.9248 317.329 88.9719 307.262 90.8777C301.002 92.064 297.748 86.6182 296.183 82.3302C295.617 80.7769 295.19 79.1724 294.907 77.5372L316.871 73.7256C316.871 73.7256 319.503 72.9586 319.315 79.2238Z" fill="#DB8B8B"/>
<path id="Vector_38" opacity="0.05" d="M299.13 146.369C297.951 150.645 297.297 155.058 297.181 159.505C297.181 159.505 294.399 161.887 289.274 162.364C289.129 162.06 289.019 161.74 288.944 161.411C288.029 157.123 281.165 149.499 281.165 149.499C276.589 145.211 275.674 137.588 275.674 137.588L268.124 114.481L265.607 112.337C265.607 112.337 276.132 103.761 285.284 110.907C294.435 118.054 291.69 133.3 291.69 133.3L293.52 138.541C295.419 140.209 297.35 143.148 299.13 146.369Z" fill="black"/>
<path id="Vector_39" d="M266.98 111.86L277.047 137.112C277.047 137.112 277.962 144.735 282.538 149.023C282.538 149.023 289.402 156.646 290.317 160.934C291.232 165.222 304.045 176.657 304.045 176.657C304.045 176.657 315.942 188.092 316.858 192.38C316.858 192.38 327.84 195.715 326.467 202.385C326.467 202.385 334.704 193.809 326.467 185.709C318.23 177.61 307.248 160.934 307.248 160.934C307.248 160.934 300.842 143.306 294.893 138.065L293.063 132.824C293.063 132.824 295.808 117.578 286.656 110.431C277.504 103.284 266.98 111.86 266.98 111.86Z" fill="#DB8B8B"/>
<path id="Vector_40" opacity="0.1" d="M272.928 292.433L261.031 299.103L257.37 296.245V294.339C261.481 294.035 265.475 292.78 269.062 290.665C270.16 290.017 271.194 289.379 272.022 288.817C272.503 291.023 272.928 292.433 272.928 292.433Z" fill="black"/>
<path id="Vector_41" opacity="0.1" d="M286.656 91.8496L293.063 118.054C293.063 118.054 273.386 121.389 269.268 118.054C265.149 114.719 257.37 113.766 257.37 113.766C257.37 113.766 265.607 88.9909 270.183 86.1323C274.759 83.2736 286.656 91.8496 286.656 91.8496Z" fill="black"/>
<path id="Vector_42" d="M286.656 90.8967L293.063 117.101C293.063 117.101 273.386 120.436 269.268 117.101C265.149 113.766 257.37 112.813 257.37 112.813C257.37 112.813 265.607 88.038 270.183 85.1794C274.759 82.3207 286.656 90.8967 286.656 90.8967Z" fill="white"/>
<path id="Vector_43" opacity="0.1" d="M319.315 78.7474C318.033 80.5894 316.403 82.139 314.525 83.3007C312.647 84.4625 310.56 85.2119 308.394 85.5029C306.227 85.7939 304.026 85.6202 301.926 84.9927C299.826 84.3651 297.872 83.2969 296.183 81.8538C295.617 80.3004 295.19 78.696 294.907 77.0608L316.871 73.2492C316.871 73.2492 319.503 72.4821 319.315 78.7474Z" fill="black"/>
<path id="Vector_44" d="M322.349 68.5038C322.349 72.9264 320.661 77.1679 317.658 80.2952C314.654 83.4225 310.581 85.1794 306.333 85.1794C302.085 85.1794 298.012 83.4225 295.008 80.2952C292.004 77.1679 290.317 72.9264 290.317 68.5038C290.317 68.2274 290.317 67.9511 290.317 67.6748C290.423 63.2521 292.211 59.0543 295.29 56.0048C298.368 52.9552 302.483 51.3038 306.731 51.4137C310.979 51.5236 315.01 53.3859 317.939 56.591C320.868 59.796 322.454 64.0811 322.349 68.5038Z" fill="#DB8B8B"/>
<path id="Vector_45" opacity="0.1" d="M322.349 68.5038C322.35 70.0407 322.147 71.5703 321.745 73.0491C320.507 73.33 319.216 73.2069 318.047 72.6965C316.336 71.9961 314.867 70.7907 313.224 69.9236C308.598 67.4842 303.093 67.9654 297.968 68.7706C295.424 69.1708 292.536 69.5424 290.537 67.8558C290.468 67.7994 290.402 67.7389 290.34 67.6748C290.446 63.2521 292.234 59.0543 295.312 56.0048C298.391 52.9552 302.506 51.3038 306.754 51.4137C311.002 51.5236 315.033 53.3859 317.962 56.591C320.891 59.796 322.477 64.0811 322.372 68.5038H322.349Z" fill="black"/>
<path id="Vector_46" opacity="0.05" d="M247.532 119.722C247.532 119.722 259.429 123.057 263.09 131.633C266.751 140.209 276.653 141.776 276.653 141.776" fill="black"/>
<path id="Vector_47" d="M292.376 308.394H264.92V317.446H292.376V308.394Z" fill="#6C63FF"/>
<path id="Vector_48" opacity="0.1" d="M292.376 308.394H264.92V317.446H292.376V308.394Z" fill="black"/>
<path id="Vector_49" d="M269.043 291.595C271.501 290.165 273.656 288.736 273.844 288.145C273.844 288.145 280.044 294.958 285.567 297.074C287.424 297.788 289.202 298.708 290.871 299.818C293.058 301.247 296.179 302.929 299.011 302.929C299.011 302.929 305.418 308.647 293.063 309.599C280.708 310.552 251.879 307.217 251.879 307.217L253.709 295.306C259.057 295.633 264.382 294.344 269.043 291.595Z" fill="#ABB1D1"/>
<path id="Vector_50" d="M233.575 242.406C233.575 242.406 244.919 236.174 249.303 232.163C251.942 229.759 254.779 227.602 257.782 225.716L272.013 216.697L301.757 214.315L303.13 219.556C303.13 219.556 305.418 227.179 282.538 233.849C259.658 240.52 248.218 251.001 248.218 251.001C248.218 251.001 233.575 256.223 233.575 242.406Z" fill="#DB8B8B"/>
<path id="Vector_51" opacity="0.1" d="M249.431 249.967C248.621 250.611 248.218 250.982 248.218 250.982C248.218 250.982 233.575 256.223 233.575 242.406C233.575 242.406 234.284 242.016 235.405 241.363C236.538 243.283 238.125 244.869 240.014 245.969C241.903 247.07 244.031 247.647 246.196 247.647H247.747L249.431 249.967Z" fill="black"/>
<path id="Vector_52" opacity="0.05" d="M302.7 222.186C301.428 224.992 297.039 229.604 282.538 233.83C263.955 239.247 252.918 247.171 249.431 249.967C248.621 250.611 248.218 250.982 248.218 250.982C248.218 250.982 233.575 256.223 233.575 242.406C233.575 242.406 234.284 242.016 235.405 241.363C238.805 239.424 246.003 235.169 249.289 232.144C251.927 229.739 254.765 227.582 257.768 225.697L271.999 216.678L277.298 216.254L301.743 214.296L303.116 219.537C303.116 219.537 303.436 220.561 302.7 222.186Z" fill="black"/>
<path id="Vector_53" d="M233.804 239.309L221.678 247.647L257.187 278.616C257.187 278.616 262.404 275.281 259.658 271.469C259.658 271.469 250.506 263.37 250.049 251.935L247.303 248.124H245.752C243.129 248.124 240.57 247.276 238.43 245.697C236.29 244.118 234.673 241.886 233.804 239.309Z" fill="#ABB1D1"/>
<path id="Vector_54" opacity="0.1" d="M302.7 222.186C295.378 218.503 277.504 218.108 277.504 218.108L277.312 216.254L301.757 214.296L303.13 219.537C303.13 219.537 303.436 220.561 302.7 222.186Z" fill="black"/>
<path id="Vector_55" d="M277.504 217.155C277.504 217.155 299.011 217.631 304.503 222.396L301.757 164.746H272.013L277.504 217.155Z" fill="#ABB1D1"/>
<path id="Vector_56" opacity="0.05" d="M277.504 216.916C277.504 216.916 299.011 217.393 304.503 222.157L301.757 164.508H272.013L277.504 216.916Z" fill="black"/>
<path id="Vector_57" d="M294.783 181.879C294.783 181.879 348.619 179.973 349.718 187.22C350.816 194.466 295.881 191.412 295.881 191.412C295.881 191.412 291.489 186.834 294.783 181.879Z" fill="#535461"/>
<path id="Vector_58" opacity="0.05" d="M294.783 181.879C294.783 181.879 348.619 179.973 349.718 187.22C350.816 194.466 295.881 191.412 295.881 191.412C295.881 191.412 291.489 186.834 294.783 181.879Z" fill="black"/>
<g id="boy1-frame">
<path id="Vector_59" d="M246.528 237.287L346.513 204.875L349.808 212.884L247.261 249.489L246.528 237.287Z" fill="#EB5757"/>
<path id="Vector_60" d="M276.194 288.386L348.344 214.408L352.371 220.507L283.516 295.247L276.194 288.386Z" fill="#EB5757"/>
<path id="Vector_61" d="M380.572 300.588L375.447 303.637L339.691 199.615L338.089 194.96L346.513 190L348.623 196.851L380.572 300.588Z" fill="#EB5757"/>
<path id="Vector_62" d="M187.563 304.032C187.563 304.032 264.475 283.069 270.699 291.068C276.922 299.068 283.516 309.75 264.123 313.561C244.73 317.373 186.112 307.077 186.112 307.077L187.563 304.032Z" fill="#EB5757"/>
<path id="Vector_63" d="M185 299.825L242.497 237.287L244.332 251.776L187.929 305.543L185 299.825Z" fill="#EB5757"/>
<path id="Vector_64" d="M246.345 274.88L226.803 254.801L220.696 261.244L240.238 281.324L246.345 274.88Z" fill="#EB5757"/>
<path id="Vector_65" d="M249.091 213.646H239.568V299.825H249.091V213.646Z" fill="#EB5757"/>
</g>
<path id="Vector_66" opacity="0.1" d="M251.202 210.856V217.493C248.035 217.922 244.795 218.193 241.679 218.298V210.856H251.202Z" fill="black"/>
<path id="Vector_67" d="M250.488 203.714C249.152 203.607 247.823 203.42 246.507 203.157C241.345 202.128 228.331 199.969 224.83 203.633C220.437 208.207 221.902 216.216 233.621 217.36C245.34 218.503 265.483 215.454 269.515 210.875C269.515 210.856 262.225 204.653 250.488 203.714Z" fill="#535461"/>
<path id="Vector_68" opacity="0.1" d="M370.442 260.445C368.156 261.06 365.927 261.884 363.78 262.908L359.405 250.182C361.701 249.14 364.065 248.269 366.479 247.576L370.442 260.445Z" fill="black"/>
<path id="Vector_69" opacity="0.1" d="M350.734 194.066L341.801 196.83L340.2 192.175L348.624 187.215L350.734 194.066Z" fill="black"/>
<path id="Vector_70" d="M296.248 202.09L346.423 184.166C346.423 184.166 355.213 185.309 351.914 192.937L301.377 208.569C301.377 208.569 293.69 209.331 296.248 202.09Z" fill="#535461"/>
<path id="Vector_71" opacity="0.1" d="M239.666 301.424C239.665 304.346 239.448 307.264 239.016 310.152C234.623 309.823 230.084 309.347 225.636 308.87C226.624 303.205 226.501 297.39 225.274 291.776C229.608 290.823 234.033 289.913 238.352 289.088C239.228 293.137 239.668 297.274 239.666 301.424Z" fill="black"/>
<path id="Vector_72" opacity="0.1" d="M251.202 286.902V297.036H241.679V288.46C244.974 287.864 248.177 287.335 251.202 286.902Z" fill="black"/>
<path id="Vector_73" opacity="0.1" d="M227.503 265.933L217.729 275.248C215.998 272.934 214.041 270.814 211.89 268.92L221.014 258.996C223.363 261.111 225.534 263.432 227.503 265.933Z" fill="black"/>
<path id="Vector_74" opacity="0.1" d="M276.47 307.336C282.942 307.336 288.189 301.873 288.189 295.134C288.189 288.396 282.942 282.933 276.47 282.933C269.998 282.933 264.751 288.396 264.751 295.134C264.751 301.873 269.998 307.336 276.47 307.336Z" fill="black"/>
<path id="Vector_75" d="M277.207 307.336C283.679 307.336 288.926 301.873 288.926 295.134C288.926 288.396 283.679 282.933 277.207 282.933C270.735 282.933 265.488 288.396 265.488 295.134C265.488 301.873 270.735 307.336 277.207 307.336Z" fill="#535461"/>
<path id="Vector_76" d="M274.078 294.218L274.074 294.221C272.698 295.292 272.417 297.323 273.446 298.756L282.747 311.706C283.776 313.138 285.726 313.431 287.103 312.36L287.106 312.357C288.482 311.285 288.764 309.255 287.735 307.822L278.433 294.872C277.404 293.439 275.454 293.146 274.078 294.218Z" fill="#6C63FF"/>
<path id="Vector_77" d="M330.128 125.677L329.039 140.023C328.914 141.84 328.937 143.665 329.108 145.478C329.249 147.084 329.107 149.895 327.597 154.183C325.659 159.661 324.657 165.45 324.637 171.287V187.615L314.112 185.709C314.112 185.709 314.57 162.84 312.739 159.028C310.909 155.217 314.112 121.389 314.112 121.389L330.128 125.677Z" fill="#DB8B8B"/>
<path id="Vector_78" opacity="0.05" d="M329.588 132.786L329.039 140.023C328.915 141.839 328.94 143.662 329.112 145.474C329.254 147.079 329.112 149.89 327.602 154.183C325.663 159.661 324.661 165.45 324.641 171.287V187.615L314.117 185.709C314.117 185.709 314.574 162.84 312.744 159.028C311.449 156.327 312.675 138.57 313.504 128.436C313.847 124.267 314.117 121.389 314.117 121.389L330.133 125.677L329.588 132.786Z" fill="black"/>
<path id="Vector_79" d="M277.971 235.26L274.013 258.701C273.514 261.83 272.748 264.908 271.725 267.896C269.405 274.5 270.888 283.757 272.013 288.807C272.512 291.037 272.928 292.447 272.928 292.447L261.031 299.118L257.37 296.259V294.353L256.913 251.95C254.167 245.279 255.082 235.274 256.913 231.462C257.433 230.21 257.799 228.894 258.002 227.546C258.917 222.438 259.201 215.263 259.201 215.263C259.201 215.263 266.522 202.399 275.216 210.975C278.42 214.134 279.637 218.265 279.893 222.219C280.341 228.99 277.971 235.26 277.971 235.26Z" fill="#DB8B8B"/>
<path id="Vector_80" opacity="0.1" d="M279.893 222.205C273.546 226.131 262.504 227.241 258.002 227.532C258.917 222.424 259.201 215.249 259.201 215.249C259.201 215.249 266.522 202.385 275.216 210.961C278.42 214.12 279.637 218.251 279.893 222.205Z" fill="black"/>
<path id="Vector_81" d="M295.351 210.484C290.485 213.183 285.886 216.374 281.623 220.013C274.301 226.207 255.997 226.684 255.997 226.684V219.537C256.455 210.961 248.676 201.432 238.151 174.751C231.429 157.713 233.291 148.07 235.515 143.306C236.778 140.614 238.151 139.494 238.151 139.494L295.351 150.929L297.396 157.313L301.757 170.94C301.757 170.94 285.741 171.892 282.996 173.322C280.25 174.751 282.08 187.615 282.08 187.615C279.335 200.956 295.351 210.484 295.351 210.484Z" fill="#ABB1D1"/>
<path id="Vector_82" opacity="0.1" d="M330.128 125.677L329.588 132.786C321.626 135.168 315.942 127.583 315.942 127.583C315.112 127.815 314.296 128.1 313.499 128.436C313.842 124.267 314.112 121.389 314.112 121.389L330.128 125.677Z" fill="black"/>
<path id="Vector_83" opacity="0.1" d="M297.396 157.313C297.181 159.538 297.181 160.934 297.181 160.934C297.181 160.934 286.656 169.987 268.81 156.17C250.964 142.353 234.948 146.164 234.948 146.164C234.948 146.164 235.136 145.059 235.515 143.306C236.778 140.614 238.151 139.494 238.151 139.494L295.351 150.929L297.396 157.313Z" fill="black"/>
<path id="Vector_84" d="M336.296 107.072C335.102 116.768 334.704 128.989 334.704 128.989C324.179 137.565 315.943 126.606 315.943 126.606C306.004 129.384 301.331 138.441 299.13 146.345C297.952 150.621 297.297 155.034 297.181 159.481C297.181 159.481 294.399 161.863 289.274 162.34C284.428 162.764 277.482 161.449 268.81 154.717C250.964 140.9 234.948 144.711 234.948 144.711C234.948 144.711 238.151 125.653 245.473 119.936C252.794 114.219 258.285 107.072 267.437 85.1555C276.589 63.2391 295.351 68.48 295.351 68.48C295.351 68.48 296.266 64.1919 313.197 68.48C317.321 69.6053 321.138 71.7107 324.349 74.6309C333.404 82.5589 337.797 94.856 336.296 107.072Z" fill="#56CCF2"/>
<path id="Vector_85" d="M319.315 79.2238C319.292 79.8575 319.242 80.5626 319.159 81.3488C318.244 89.9248 317.329 88.9719 307.262 90.8777C301.002 92.064 297.748 86.6182 296.183 82.3302C295.617 80.7769 295.19 79.1724 294.907 77.5372L316.871 73.7256C316.871 73.7256 319.503 72.9586 319.315 79.2238Z" fill="#DB8B8B"/>
<path id="Vector_86" opacity="0.05" d="M299.13 146.369C297.951 150.645 297.297 155.058 297.181 159.505C297.181 159.505 294.399 161.887 289.274 162.364C289.129 162.06 289.019 161.74 288.944 161.411C288.029 157.123 281.165 149.499 281.165 149.499C276.589 145.211 275.674 137.588 275.674 137.588L268.124 114.481L265.607 112.337C265.607 112.337 276.132 103.761 285.284 110.907C294.435 118.054 291.69 133.3 291.69 133.3L293.52 138.541C295.419 140.209 297.35 143.148 299.13 146.369Z" fill="black"/>
<path id="Vector_87" d="M266.98 111.86L277.047 137.112C277.047 137.112 277.962 144.735 282.538 149.023C282.538 149.023 289.402 156.646 290.317 160.934C291.232 165.222 304.045 176.657 304.045 176.657C304.045 176.657 315.942 188.092 316.858 192.38C316.858 192.38 327.84 195.715 326.467 202.385C326.467 202.385 334.704 193.809 326.467 185.709C318.23 177.61 307.248 160.934 307.248 160.934C307.248 160.934 300.842 143.306 294.893 138.065L293.063 132.824C293.063 132.824 295.808 117.578 286.656 110.431C277.504 103.284 266.98 111.86 266.98 111.86Z" fill="#DB8B8B"/>
<path id="Vector_88" opacity="0.1" d="M272.928 292.433L261.031 299.103L257.37 296.245V294.339C261.481 294.035 265.475 292.78 269.062 290.665C270.16 290.017 271.194 289.379 272.022 288.817C272.503 291.023 272.928 292.433 272.928 292.433Z" fill="black"/>
<path id="Vector_89" opacity="0.1" d="M286.656 91.8496L293.063 118.054C293.063 118.054 273.386 121.389 269.268 118.054C265.149 114.719 257.37 113.766 257.37 113.766C257.37 113.766 265.607 88.9909 270.183 86.1323C274.759 83.2736 286.656 91.8496 286.656 91.8496Z" fill="black"/>
<path id="Vector_90" d="M288.286 91.3007L294.693 117.505C294.693 117.505 275.016 120.84 270.898 117.505C266.779 114.17 259 113.217 259 113.217C259 113.217 267.237 88.4421 271.813 85.5834C276.389 82.7247 288.286 91.3007 288.286 91.3007Z" fill="#56CCF2"/>
<path id="Vector_91" opacity="0.1" d="M319.315 78.7474C318.033 80.5894 316.403 82.139 314.525 83.3007C312.647 84.4625 310.56 85.2119 308.394 85.5029C306.227 85.7939 304.026 85.6202 301.926 84.9927C299.826 84.3651 297.872 83.2969 296.183 81.8538C295.617 80.3004 295.19 78.696 294.907 77.0608L316.871 73.2492C316.871 73.2492 319.503 72.4821 319.315 78.7474Z" fill="black"/>
<path id="Vector_92" d="M322.349 68.5038C322.349 72.9264 320.661 77.1679 317.658 80.2952C314.654 83.4225 310.581 85.1794 306.333 85.1794C302.085 85.1794 298.012 83.4225 295.008 80.2952C292.004 77.1679 290.317 72.9264 290.317 68.5038C290.317 68.2274 290.317 67.9511 290.317 67.6748C290.423 63.2521 292.211 59.0543 295.29 56.0048C298.368 52.9552 302.483 51.3038 306.731 51.4137C310.979 51.5236 315.01 53.3859 317.939 56.591C320.868 59.796 322.454 64.0811 322.349 68.5038Z" fill="#DB8B8B"/>
<path id="Vector_93" opacity="0.1" d="M322.349 68.5038C322.35 70.0407 322.147 71.5703 321.745 73.0491C320.507 73.33 319.216 73.2069 318.047 72.6965C316.336 71.9961 314.867 70.7907 313.224 69.9236C308.598 67.4842 303.093 67.9654 297.968 68.7706C295.424 69.1708 292.536 69.5424 290.537 67.8558C290.468 67.7994 290.402 67.7389 290.34 67.6748C290.446 63.2521 292.234 59.0543 295.312 56.0048C298.391 52.9552 302.506 51.3038 306.754 51.4137C311.002 51.5236 315.033 53.3859 317.962 56.591C320.891 59.796 322.477 64.0811 322.372 68.5038H322.349Z" fill="black"/>
<path id="Vector_94" opacity="0.05" d="M247.532 119.722C247.532 119.722 259.429 123.057 263.09 131.633C266.751 140.209 276.653 141.776 276.653 141.776" fill="black"/>
<path id="Vector_95" d="M292.376 308.394H264.92V317.446H292.376V308.394Z" fill="#EB5757"/>
<path id="Vector_96" d="M269.043 291.595C271.501 290.165 273.656 288.736 273.844 288.145C273.844 288.145 280.044 294.958 285.567 297.074C287.424 297.788 289.202 298.708 290.871 299.818C293.058 301.247 296.179 302.929 299.011 302.929C299.011 302.929 305.418 308.647 293.063 309.599C280.708 310.552 251.879 307.217 251.879 307.217L253.709 295.306C259.057 295.633 264.382 294.344 269.043 291.595Z" fill="#ABB1D1"/>
<g id="helmet 1">
<g clip-path="url(#clip0)">
<path id="Vector_97" d="M292.068 66.7227L294.217 68.6305C293.185 69.0747 292.103 69.5713 291.052 70.0429L288.884 68.1202L292.068 66.7227Z" fill="#CE2647"/>
<path id="Vector_98" d="M326.366 55.7052C320.794 69.0808 302.055 64.8831 299.109 64.5011C297.488 64.2909 293.993 65.9908 290.834 67.4033C288.251 68.5581 285.893 69.5202 284.965 69.0908C282.901 68.1349 279.366 62.3979 279.366 57.8083C279.366 55.74 280.712 51.189 283.794 46.8458C287.553 41.5494 293.895 36.564 303.529 36.7744C321.062 37.1565 326.366 55.7052 326.366 55.7052Z" fill="#49618C"/>
<path id="Vector_99" d="M290.834 67.4032C288.251 68.558 285.893 69.5201 284.965 69.0907C282.901 68.1349 279.366 62.398 279.366 57.8083C279.366 55.74 280.712 51.189 283.794 46.8458L298.447 57.4723C298.447 57.4723 288.965 59.1921 290.834 67.4032Z" fill="#3B4773"/>
<path id="Vector_100" d="M326.366 55.7052C326.313 55.8346 326.257 55.9628 326.2 56.0885C314.24 57.5557 302.145 57.8955 290.123 57.1078C286.595 56.8763 283.074 56.5478 279.564 56.1221C280.638 50.7734 286.183 39.5072 298.357 37.1913C298.358 37.1901 298.359 37.1901 298.359 37.1901C299.965 36.8839 301.687 36.7346 303.529 36.7744C321.062 37.1565 326.366 55.7052 326.366 55.7052Z" fill="#E24260"/>
<path id="Vector_101" d="M290.123 57.1064V57.1076C286.595 56.8761 283.074 56.5477 279.564 56.122C280.638 50.7734 286.183 39.5072 298.357 37.1913C298.202 37.2808 286.846 43.9176 290.123 57.1064Z" fill="#CE2647"/>
<g id="Group">
<path id="Vector_102" d="M286.165 46.5492C285.899 46.5492 285.643 46.3564 285.518 46.0248C285.344 45.5616 285.492 45.0027 285.849 44.7767C290.947 41.5478 296.946 39.9722 303.676 40.0934C307.609 40.1645 311.317 40.8666 314.697 42.1799C315.078 42.3278 315.294 42.8479 315.18 43.3418C315.066 43.8356 314.666 44.1161 314.285 43.9682C311.032 42.7044 307.456 42.0287 303.656 41.96C297.154 41.843 291.374 43.3549 286.48 46.4543C286.379 46.5187 286.271 46.5492 286.165 46.5492Z" fill="#49618C"/>
<path id="Vector_103" d="M322.612 54.013C322.476 54.013 322.339 53.9634 322.218 53.8596C317.113 49.5095 310.868 47.2376 303.656 47.1072C299.431 47.031 295.47 47.6525 291.884 48.9544C291.501 49.0932 291.104 48.8033 290.997 48.3069C290.89 47.8104 291.114 47.2955 291.496 47.1565C295.215 45.8067 299.311 45.1615 303.676 45.2406C311.166 45.3761 317.67 47.7509 323.007 52.2993C323.339 52.5821 323.431 53.1608 323.213 53.5918C323.075 53.8648 322.846 54.0129 322.612 54.013Z" fill="#49618C"/>
<path id="Vector_104" d="M283.118 53.9271C282.882 53.9271 282.651 53.7768 282.514 53.5011C282.298 53.0684 282.393 52.4906 282.726 52.2102C284.668 50.5775 286.822 49.2062 289.127 48.1346C289.501 47.9607 289.913 48.2133 290.047 48.6986C290.18 49.184 289.986 49.7182 289.612 49.892C287.411 50.9152 285.357 52.2223 283.508 53.7769C283.387 53.8786 283.252 53.9271 283.118 53.9271Z" fill="#49618C"/>
</g>
</g>
</g>
</g>
</g>
<g id="undraw_Ride_a_bicycle_2yok 2">
<g id="boy2">
<path id="Vector_105" d="M666.456 272.095L646.913 252.016L640.807 258.459L660.349 278.539L666.456 272.095Z" fill="#6C63FF"/>
<path id="Vector_106" opacity="0.1" d="M666.456 272.095L646.913 252.016L640.807 258.459L660.349 278.539L666.456 272.095Z" fill="black"/>
<path id="Vector_107" d="M651.575 242.406C651.575 242.406 662.919 236.174 667.303 232.163C669.942 229.759 672.779 227.602 675.782 225.716L690.013 216.697L719.757 214.315L721.13 219.556C721.13 219.556 723.418 227.179 700.538 233.849C677.658 240.52 666.218 251.001 666.218 251.001C666.218 251.001 651.575 256.223 651.575 242.406Z" fill="#DB8B8B"/>
<path id="Vector_108" opacity="0.1" d="M667.431 249.967C666.621 250.611 666.218 250.982 666.218 250.982C666.218 250.982 651.575 256.223 651.575 242.406C651.575 242.406 652.284 242.016 653.405 241.363C654.538 243.283 656.125 244.869 658.014 245.969C659.903 247.07 662.031 247.647 664.196 247.647H665.747L667.431 249.967Z" fill="black"/>
<path id="Vector_109" opacity="0.05" d="M720.7 222.186C719.428 224.992 715.039 229.604 700.538 233.83C681.955 239.247 670.918 247.171 667.431 249.967C666.621 250.611 666.218 250.982 666.218 250.982C666.218 250.982 651.575 256.223 651.575 242.406C651.575 242.406 652.284 242.016 653.405 241.363C656.805 239.424 664.003 235.169 667.289 232.144C669.927 229.739 672.765 227.582 675.768 225.697L689.999 216.678L695.298 216.254L719.743 214.296L721.116 219.537C721.116 219.537 721.436 220.561 720.7 222.186Z" fill="black"/>
<path id="Vector_110" d="M651.804 239.309L639.678 247.647L675.187 278.616C675.187 278.616 680.404 275.281 677.658 271.469C677.658 271.469 668.506 263.37 668.049 251.935L665.303 248.124H663.752C661.129 248.124 658.57 247.276 656.43 245.697C654.29 244.118 652.673 241.886 651.804 239.309Z" fill="#ABB1D1"/>
<path id="Vector_111" opacity="0.1" d="M720.7 222.186C713.378 218.503 695.504 218.108 695.504 218.108L695.312 216.254L719.757 214.296L721.13 219.537C721.13 219.537 721.436 220.561 720.7 222.186Z" fill="black"/>
<path id="Vector_112" d="M695.504 217.155C695.504 217.155 717.011 217.631 722.503 222.396L719.757 164.746H690.013L695.504 217.155Z" fill="#ABB1D1"/>
<path id="Vector_113" opacity="0.05" d="M695.504 216.916C695.504 216.916 717.011 217.393 722.503 222.157L719.757 164.508H690.013L695.504 216.916Z" fill="black"/>
<path id="Vector_114" d="M712.783 181.879C712.783 181.879 766.619 179.973 767.718 187.22C768.816 194.466 713.881 191.412 713.881 191.412C713.881 191.412 709.489 186.834 712.783 181.879Z" fill="#535461"/>
<path id="Vector_115" opacity="0.05" d="M712.783 181.879C712.783 181.879 766.619 179.973 767.718 187.22C768.816 194.466 713.881 191.412 713.881 191.412C713.881 191.412 709.489 186.834 712.783 181.879Z" fill="black"/>
<path id="Vector_116" d="M669.202 210.861H659.679V297.04H669.202V210.861Z" fill="#6C63FF"/>
<path id="Vector_117" opacity="0.1" d="M669.202 210.856V217.493C666.035 217.922 662.795 218.193 659.679 218.298V210.856H669.202Z" fill="black"/>
<path id="Vector_118" d="M668.488 203.714C667.152 203.607 665.823 203.42 664.507 203.157C659.345 202.128 646.331 199.969 642.83 203.633C638.437 208.207 639.902 216.216 651.621 217.36C663.34 218.503 683.483 215.454 687.515 210.875C687.515 210.856 680.225 204.653 668.488 203.714Z" fill="#535461"/>
<path id="Vector_119" d="M666.639 234.502L766.624 202.09L769.919 210.099L667.371 246.704L666.639 234.502Z" fill="#6C63FF"/>
<path id="Vector_120" d="M696.305 285.601L768.454 211.623L772.481 217.722L703.627 292.462L696.305 285.601Z" fill="#6C63FF"/>
<path id="Vector_121" opacity="0.1" d="M788.442 260.445C786.156 261.06 783.927 261.884 781.78 262.908L777.405 250.182C779.701 249.14 782.065 248.269 784.479 247.576L788.442 260.445Z" fill="black"/>
<path id="Vector_122" d="M800.683 297.803L795.558 300.852L759.801 196.83L758.2 192.175L766.624 187.215L768.734 194.066L800.683 297.803Z" fill="#6C63FF"/>
<path id="Vector_123" opacity="0.1" d="M768.734 194.066L759.801 196.83L758.2 192.175L766.624 187.215L768.734 194.066Z" fill="black"/>
<path id="Vector_124" d="M714.248 202.09L764.423 184.166C764.423 184.166 773.213 185.309 769.914 192.937L719.377 208.569C719.377 208.569 711.69 209.331 714.248 202.09Z" fill="#535461"/>
<path id="Vector_125" opacity="0.1" d="M657.666 301.424C657.665 304.346 657.448 307.264 657.016 310.152C652.623 309.823 648.084 309.347 643.636 308.87C644.624 303.205 644.501 297.39 643.274 291.776C647.608 290.823 652.033 289.913 656.352 289.088C657.228 293.137 657.668 297.274 657.666 301.424Z" fill="black"/>
<path id="Vector_126" opacity="0.1" d="M669.202 286.902V297.036H659.679V288.46C662.974 287.864 666.177 287.335 669.202 286.902Z" fill="black"/>
<path id="Vector_127" d="M607.673 301.247C607.673 301.247 684.586 280.284 690.809 288.283C697.033 296.283 703.627 306.965 684.234 310.776C664.841 314.588 606.223 304.292 606.223 304.292L607.673 301.247Z" fill="#6C63FF"/>
<path id="Vector_128" opacity="0.1" d="M645.503 265.933L635.729 275.248C633.998 272.934 632.041 270.814 629.89 268.921L639.014 258.996C641.363 261.111 643.534 263.432 645.503 265.933Z" fill="black"/>
<path id="Vector_129" d="M605.111 297.04L662.608 234.502L664.443 248.991L608.039 302.758L605.111 297.04Z" fill="#6C63FF"/>
<path id="Vector_130" opacity="0.1" d="M604.379 307.336C607.616 307.336 610.24 304.604 610.24 301.233C610.24 297.862 607.616 295.13 604.379 295.13C601.141 295.13 598.517 297.862 598.517 301.233C598.517 304.604 601.141 307.336 604.379 307.336Z" fill="black"/>
<g id="boy2-left-wheel">
<path id="Vector_131" d="M608.159 349.236L605.289 302.573L605.23 302.473L602.338 303.521L589.031 343.947L567.867 328.325L601.578 302.878L601.61 302.778L601.803 302.706L603.976 301.063L568.631 280.428L559.974 290.338L561.346 299.628L601.99 300.4V301.353L560.587 300.581L559.022 290.033L570.874 276.473L588.606 254.938L588.921 255.829L592.674 251.541L606.612 254.142V253.566L607.527 253.594V254.314L628.284 258.182L608.932 298.495L606.109 300.624V300.862V301.129L650.862 284.892L645.549 328.349L607.568 303.159L606.232 302.378L628.627 339.96L608.159 349.236ZM606.328 304.288L609.005 347.826L627.332 339.545L606.328 304.288ZM569.455 328.315L588.578 342.432L601.089 304.441L569.455 328.315ZM607.124 301.796L608.081 302.354L644.849 326.748L649.791 286.312L607.124 301.796ZM603.876 298.366L605.024 300.295L605.225 300.143L606.598 255.105L592.989 252.57L589.255 256.858L603.876 298.366ZM569.364 279.756L603.61 299.767L603.015 298.752L588.564 257.649L571.546 277.121L569.364 279.756ZM607.527 255.271L606.154 299.447L608.223 297.885L626.943 258.902L607.527 255.271Z" fill="#535461"/>
<path id="Vector_132" d="M658.352 288.708C656.517 280.218 652.802 272.292 647.503 265.563C645.536 263.062 643.366 260.741 641.019 258.626C631.992 250.511 620.633 245.747 608.725 245.081C596.816 244.415 585.032 247.884 575.223 254.945C565.413 262.006 558.132 272.258 554.524 284.093C550.915 295.927 551.183 308.675 555.285 320.334C559.387 331.993 567.09 341.904 577.187 348.512C587.284 355.119 599.202 358.049 611.071 356.842C622.94 355.635 634.088 350.358 642.766 341.841C651.443 333.323 657.159 322.047 659.016 309.782C659.448 306.894 659.665 303.976 659.666 301.053C659.669 296.9 659.228 292.76 658.352 288.708ZM605.642 343.19C597.299 343.181 589.161 340.496 582.335 335.502C575.509 330.508 570.326 323.446 567.49 315.276C564.655 307.106 564.305 298.226 566.488 289.842C568.67 281.458 573.28 273.977 579.69 268.417C586.101 262.857 594 259.488 602.314 258.767C610.628 258.046 618.954 260.008 626.159 264.388C633.364 268.767 639.099 275.351 642.584 283.243C646.069 291.136 647.134 299.954 645.636 308.5C643.92 318.24 638.978 327.045 631.671 333.384C624.363 339.722 615.153 343.192 605.642 343.19Z" fill="#535461"/>
<path id="Vector_133" d="M605.642 306.966C608.879 306.966 611.504 304.233 611.504 300.862C611.504 297.492 608.879 294.759 605.642 294.759C602.404 294.759 599.78 297.492 599.78 300.862C599.78 304.233 602.404 306.966 605.642 306.966Z" fill="#535461"/>
</g>
<path id="Vector_134" opacity="0.1" d="M798.303 306.765C801.541 306.765 804.165 304.032 804.165 300.661C804.165 297.291 801.541 294.558 798.303 294.558C795.066 294.558 792.442 297.291 792.442 300.661C792.442 304.032 795.066 306.765 798.303 306.765Z" fill="black"/>
<g id="boy2-right-wheel">
<path id="Vector_135" d="M800.214 349.237L797.35 302.593L797.29 302.493L794.398 303.541L781.087 343.948L759.923 328.321L793.643 302.874L793.675 302.774L793.868 302.702L796.041 301.059L760.696 280.424L752.034 290.334L753.407 299.625L794.041 300.377V301.33L752.638 300.558L751.082 290.024L762.929 276.469L780.648 254.948L780.963 255.839L784.716 251.551L798.691 254.157V253.581L799.606 253.609V254.329L820.362 258.198L800.992 298.529L798.169 300.658V300.897V301.163L842.927 284.926L837.614 328.383L799.633 303.193L798.297 302.412L820.692 339.998L800.214 349.237ZM798.384 304.289L801.061 347.826L819.388 339.546L798.384 304.289ZM761.515 328.321L780.638 342.438L793.149 304.446L761.515 328.321ZM799.185 301.802L800.141 302.359L836.909 326.753L841.851 286.317L799.185 301.802ZM795.936 298.371L797.084 300.301L797.286 300.149L798.659 255.11L785.05 252.566L781.316 256.854L795.936 298.371ZM761.438 279.766L795.684 299.777L795.089 298.762L780.638 257.659L763.616 277.136L761.438 279.766ZM799.588 255.282L798.215 299.443L800.283 297.881L819.003 258.898L799.588 255.282Z" fill="#535461"/>
<path id="Vector_136" d="M797.885 245C793.029 244.994 788.194 245.674 783.512 247.02C781.098 247.713 778.734 248.584 776.438 249.626C764.206 255.147 754.376 265.195 748.848 277.826C743.32 290.457 742.488 304.774 746.513 318.007C750.538 331.24 759.133 342.449 770.636 349.465C782.14 356.481 795.733 358.805 808.787 355.989C821.842 353.172 833.429 345.415 841.307 334.218C849.186 323.02 852.796 309.178 851.439 295.37C850.082 281.561 843.854 268.767 833.961 259.463C824.068 250.159 811.212 245.006 797.881 245H797.885ZM797.702 343.191C788.422 343.187 779.422 339.878 772.197 333.813C764.972 327.748 759.957 319.292 757.985 309.85C756.013 300.408 757.202 290.548 761.356 281.907C765.509 273.266 772.376 266.364 780.817 262.347C782.964 261.324 785.193 260.5 787.48 259.884C793.068 258.374 798.901 258.12 804.591 259.14C810.28 260.159 815.696 262.429 820.478 265.798C825.26 269.166 829.298 273.557 832.323 278.676C835.348 283.796 837.292 289.528 838.024 295.491C838.756 301.454 838.26 307.511 836.569 313.258C834.878 319.006 832.03 324.312 828.216 328.825C824.402 333.338 819.708 336.953 814.448 339.43C809.187 341.907 803.48 343.189 797.707 343.191H797.702Z" fill="#535461"/>
<path id="Vector_137" d="M798.67 306.527C801.907 306.527 804.531 303.794 804.531 300.424C804.531 297.053 801.907 294.32 798.67 294.32C795.432 294.32 792.808 297.053 792.808 300.424C792.808 303.794 795.432 306.527 798.67 306.527Z" fill="#535461"/>
</g>
<path id="Vector_138" opacity="0.1" d="M694.47 307.336C700.942 307.336 706.189 301.873 706.189 295.134C706.189 288.396 700.942 282.933 694.47 282.933C687.998 282.933 682.751 288.396 682.751 295.134C682.751 301.873 687.998 307.336 694.47 307.336Z" fill="black"/>
<path id="Vector_139" d="M695.207 307.336C701.679 307.336 706.926 301.873 706.926 295.134C706.926 288.396 701.679 282.933 695.207 282.933C688.735 282.933 683.488 288.396 683.488 295.134C683.488 301.873 688.735 307.336 695.207 307.336Z" fill="#535461"/>
<path id="Vector_140" d="M692.078 294.218L692.074 294.221C690.698 295.292 690.417 297.323 691.446 298.756L700.747 311.706C701.776 313.138 703.726 313.431 705.103 312.36L705.106 312.357C706.482 311.285 706.764 309.255 705.735 307.822L696.433 294.872C695.404 293.439 693.454 293.146 692.078 294.218Z" fill="#6C63FF"/>
<path id="Vector_141" d="M748.128 125.677L747.039 140.023C746.914 141.84 746.937 143.665 747.108 145.478C747.249 147.084 747.107 149.895 745.597 154.183C743.659 159.661 742.657 165.45 742.637 171.287V187.615L732.112 185.709C732.112 185.709 732.57 162.84 730.739 159.028C728.909 155.217 732.112 121.389 732.112 121.389L748.128 125.677Z" fill="#DB8B8B"/>
<path id="Vector_142" opacity="0.05" d="M747.588 132.786L747.039 140.023C746.915 141.839 746.94 143.662 747.112 145.474C747.254 147.079 747.112 149.89 745.602 154.183C743.663 159.661 742.661 165.45 742.641 171.287V187.615L732.117 185.709C732.117 185.709 732.574 162.84 730.744 159.028C729.449 156.327 730.675 138.57 731.504 128.436C731.847 124.267 732.117 121.389 732.117 121.389L748.133 125.677L747.588 132.786Z" fill="black"/>
<path id="Vector_143" d="M695.971 235.26L692.013 258.701C691.514 261.83 690.748 264.908 689.725 267.896C687.405 274.5 688.888 283.757 690.013 288.807C690.512 291.037 690.928 292.447 690.928 292.447L679.031 299.118L675.37 296.259V294.353L674.913 251.95C672.167 245.279 673.082 235.274 674.913 231.462C675.433 230.21 675.799 228.894 676.002 227.546C676.917 222.438 677.201 215.263 677.201 215.263C677.201 215.263 684.522 202.399 693.216 210.975C696.42 214.134 697.637 218.265 697.893 222.219C698.341 228.99 695.971 235.26 695.971 235.26Z" fill="#DB8B8B"/>
<path id="Vector_144" opacity="0.1" d="M697.893 222.205C691.546 226.131 680.504 227.241 676.002 227.532C676.917 222.424 677.201 215.249 677.201 215.249C677.201 215.249 684.522 202.385 693.216 210.961C696.42 214.12 697.637 218.251 697.893 222.205Z" fill="black"/>
<path id="Vector_145" d="M713.351 210.484C708.485 213.183 703.886 216.374 699.623 220.013C692.301 226.207 673.997 226.684 673.997 226.684V219.537C674.455 210.961 666.676 201.432 656.151 174.751C649.429 157.713 651.291 148.07 653.515 143.306C654.778 140.614 656.151 139.494 656.151 139.494L713.351 150.929L715.396 157.313L719.757 170.94C719.757 170.94 703.741 171.892 700.996 173.322C698.25 174.751 700.08 187.615 700.08 187.615C697.335 200.956 713.351 210.484 713.351 210.484Z" fill="#ABB1D1"/>
<path id="Vector_146" opacity="0.1" d="M748.128 125.677L747.588 132.786C739.626 135.168 733.942 127.583 733.942 127.583C733.112 127.815 732.296 128.1 731.499 128.436C731.842 124.267 732.112 121.389 732.112 121.389L748.128 125.677Z" fill="black"/>
<path id="Vector_147" opacity="0.1" d="M715.396 157.313C715.181 159.538 715.181 160.934 715.181 160.934C715.181 160.934 704.656 169.987 686.81 156.17C668.964 142.353 652.948 146.164 652.948 146.164C652.948 146.164 653.136 145.059 653.515 143.306C654.778 140.614 656.151 139.494 656.151 139.494L713.351 150.929L715.396 157.313Z" fill="black"/>
<path id="Vector_148" d="M754.296 107.072C753.102 116.768 752.704 128.989 752.704 128.989C742.179 137.565 733.943 126.606 733.943 126.606C724.004 129.384 719.331 138.441 717.13 146.345C715.952 150.621 715.297 155.034 715.181 159.481C715.181 159.481 712.399 161.863 707.274 162.34C702.428 162.764 695.482 161.449 686.81 154.717C668.964 140.9 652.948 144.711 652.948 144.711C652.948 144.711 656.151 125.653 663.473 119.936C670.794 114.219 676.285 107.072 685.437 85.1555C694.589 63.2391 713.351 68.48 713.351 68.48C713.351 68.48 714.266 64.1919 731.197 68.48C735.321 69.6053 739.138 71.7107 742.349 74.6309C751.404 82.5589 755.797 94.856 754.296 107.072Z" fill="white"/>
<path id="Vector_149" d="M737.315 79.2238C737.292 79.8575 737.242 80.5626 737.159 81.3488C736.244 89.9248 735.329 88.9719 725.262 90.8777C719.002 92.064 715.748 86.6182 714.183 82.3302C713.617 80.7769 713.19 79.1724 712.907 77.5372L734.871 73.7256C734.871 73.7256 737.503 72.9586 737.315 79.2238Z" fill="#DB8B8B"/>
<path id="Vector_150" opacity="0.05" d="M717.13 146.369C715.951 150.645 715.297 155.058 715.181 159.505C715.181 159.505 712.399 161.887 707.274 162.364C707.129 162.06 707.019 161.74 706.944 161.411C706.029 157.123 699.165 149.499 699.165 149.499C694.589 145.211 693.674 137.588 693.674 137.588L686.124 114.481L683.607 112.337C683.607 112.337 694.132 103.761 703.284 110.907C712.435 118.054 709.69 133.3 709.69 133.3L711.52 138.541C713.419 140.209 715.35 143.148 717.13 146.369Z" fill="black"/>
<path id="Vector_151" d="M684.98 111.86L695.047 137.112C695.047 137.112 695.962 144.735 700.538 149.023C700.538 149.023 707.402 156.646 708.317 160.934C709.232 165.222 722.045 176.657 722.045 176.657C722.045 176.657 733.942 188.092 734.858 192.38C734.858 192.38 745.84 195.715 744.467 202.385C744.467 202.385 752.704 193.809 744.467 185.709C736.23 177.61 725.248 160.934 725.248 160.934C725.248 160.934 718.842 143.306 712.893 138.065L711.063 132.824C711.063 132.824 713.808 117.578 704.656 110.431C695.504 103.284 684.98 111.86 684.98 111.86Z" fill="#DB8B8B"/>
<path id="Vector_152" opacity="0.1" d="M690.928 292.433L679.031 299.103L675.37 296.245V294.339C679.481 294.035 683.475 292.78 687.062 290.665C688.16 290.017 689.194 289.379 690.022 288.817C690.503 291.023 690.928 292.433 690.928 292.433Z" fill="black"/>
<path id="Vector_153" opacity="0.1" d="M704.656 91.8496L711.063 118.054C711.063 118.054 691.386 121.389 687.268 118.054C683.149 114.719 675.37 113.766 675.37 113.766C675.37 113.766 683.607 88.9909 688.183 86.1323C692.759 83.2736 704.656 91.8496 704.656 91.8496Z" fill="black"/>
<path id="Vector_154" d="M704.656 90.8967L711.063 117.101C711.063 117.101 691.386 120.436 687.268 117.101C683.149 113.766 675.37 112.813 675.37 112.813C675.37 112.813 683.607 88.038 688.183 85.1794C692.759 82.3207 704.656 90.8967 704.656 90.8967Z" fill="white"/>
<path id="Vector_155" opacity="0.1" d="M737.315 78.7474C736.033 80.5894 734.403 82.139 732.525 83.3007C730.647 84.4625 728.56 85.2119 726.394 85.5029C724.227 85.7939 722.026 85.6202 719.926 84.9927C717.826 84.3651 715.872 83.2969 714.183 81.8538C713.617 80.3004 713.19 78.696 712.907 77.0608L734.871 73.2492C734.871 73.2492 737.503 72.4821 737.315 78.7474Z" fill="black"/>
<path id="Vector_156" d="M740.349 68.5038C740.349 72.9264 738.661 77.1679 735.658 80.2952C732.654 83.4225 728.581 85.1794 724.333 85.1794C720.085 85.1794 716.012 83.4225 713.008 80.2952C710.004 77.1679 708.317 72.9264 708.317 68.5038C708.317 68.2274 708.317 67.9511 708.317 67.6748C708.423 63.2521 710.211 59.0543 713.29 56.0048C716.368 52.9552 720.483 51.3038 724.731 51.4137C728.979 51.5236 733.01 53.3859 735.939 56.591C738.868 59.796 740.454 64.0811 740.349 68.5038Z" fill="#DB8B8B"/>
<path id="Vector_157" opacity="0.1" d="M740.349 68.5038C740.35 70.0407 740.147 71.5703 739.745 73.0491C738.507 73.33 737.216 73.2069 736.047 72.6965C734.336 71.9961 732.867 70.7907 731.224 69.9236C726.598 67.4842 721.093 67.9654 715.968 68.7706C713.424 69.1708 710.536 69.5424 708.537 67.8558C708.468 67.7994 708.402 67.7389 708.34 67.6748C708.446 63.2521 710.234 59.0543 713.312 56.0048C716.391 52.9552 720.506 51.3038 724.754 51.4137C729.002 51.5236 733.033 53.3859 735.962 56.591C738.891 59.796 740.477 64.0811 740.372 68.5038H740.349Z" fill="black"/>
<path id="Vector_158" opacity="0.05" d="M665.532 119.722C665.532 119.722 677.429 123.057 681.09 131.633C684.751 140.209 694.653 141.776 694.653 141.776" fill="black"/>
<path id="Vector_159" d="M710.376 308.394H682.92V317.446H710.376V308.394Z" fill="#6C63FF"/>
<path id="Vector_160" opacity="0.1" d="M710.376 308.394H682.92V317.446H710.376V308.394Z" fill="black"/>
<path id="Vector_161" d="M687.043 291.595C689.501 290.165 691.656 288.736 691.844 288.145C691.844 288.145 698.044 294.958 703.567 297.074C705.424 297.788 707.202 298.708 708.871 299.818C711.058 301.247 714.179 302.929 717.011 302.929C717.011 302.929 723.418 308.647 711.063 309.599C698.708 310.552 669.879 307.217 669.879 307.217L671.709 295.306C677.057 295.633 682.382 294.344 687.043 291.595Z" fill="#ABB1D1"/>
<path id="Vector_162" d="M666.456 272.095L646.913 252.016L640.807 258.459L660.349 278.539L666.456 272.095Z" fill="#6C63FF"/>
<path id="Vector_163" opacity="0.1" d="M666.456 272.095L646.913 252.016L640.807 258.459L660.349 278.539L666.456 272.095Z" fill="black"/>
<path id="Vector_164" d="M651.575 242.406C651.575 242.406 662.919 236.174 667.303 232.163C669.942 229.759 672.779 227.602 675.782 225.716L690.013 216.697L719.757 214.315L721.13 219.556C721.13 219.556 723.418 227.179 700.538 233.849C677.658 240.52 666.218 251.001 666.218 251.001C666.218 251.001 651.575 256.223 651.575 242.406Z" fill="#DB8B8B"/>
<path id="Vector_165" opacity="0.1" d="M667.431 249.967C666.621 250.611 666.218 250.982 666.218 250.982C666.218 250.982 651.575 256.223 651.575 242.406C651.575 242.406 652.284 242.016 653.405 241.363C654.538 243.283 656.125 244.869 658.014 245.969C659.903 247.07 662.031 247.647 664.196 247.647H665.747L667.431 249.967Z" fill="black"/>
<path id="Vector_166" opacity="0.05" d="M720.7 222.186C719.428 224.992 715.039 229.604 700.538 233.83C681.955 239.247 670.918 247.171 667.431 249.967C666.621 250.611 666.218 250.982 666.218 250.982C666.218 250.982 651.575 256.223 651.575 242.406C651.575 242.406 652.284 242.016 653.405 241.363C656.805 239.424 664.003 235.169 667.289 232.144C669.927 229.739 672.765 227.582 675.768 225.697L689.999 216.678L695.298 216.254L719.743 214.296L721.116 219.537C721.116 219.537 721.436 220.561 720.7 222.186Z" fill="black"/>
<path id="Vector_167" d="M651.804 239.309L639.678 247.647L675.187 278.616C675.187 278.616 680.404 275.281 677.658 271.469C677.658 271.469 668.506 263.37 668.049 251.935L665.303 248.124H663.752C661.129 248.124 658.57 247.276 656.43 245.697C654.29 244.118 652.673 241.886 651.804 239.309Z" fill="#ABB1D1"/>
<path id="Vector_168" opacity="0.1" d="M720.7 222.186C713.378 218.503 695.504 218.108 695.504 218.108L695.312 216.254L719.757 214.296L721.13 219.537C721.13 219.537 721.436 220.561 720.7 222.186Z" fill="black"/>
<path id="Vector_169" d="M695.504 217.155C695.504 217.155 717.011 217.631 722.503 222.396L719.757 164.746H690.013L695.504 217.155Z" fill="#ABB1D1"/>
<path id="Vector_170" opacity="0.05" d="M695.504 216.916C695.504 216.916 717.011 217.393 722.503 222.157L719.757 164.508H690.013L695.504 216.916Z" fill="black"/>
<path id="Vector_171" d="M712.783 181.879C712.783 181.879 766.619 179.973 767.718 187.22C768.816 194.466 713.881 191.412 713.881 191.412C713.881 191.412 709.489 186.834 712.783 181.879Z" fill="#535461"/>
<path id="Vector_172" opacity="0.05" d="M712.783 181.879C712.783 181.879 766.619 179.973 767.718 187.22C768.816 194.466 713.881 191.412 713.881 191.412C713.881 191.412 709.489 186.834 712.783 181.879Z" fill="black"/>
<path id="Vector_173" d="M669.202 210.861H659.679V297.04H669.202V210.861Z" fill="#6C63FF"/>
<path id="Vector_174" opacity="0.1" d="M669.202 210.856V217.493C666.035 217.922 662.795 218.193 659.679 218.298V210.856H669.202Z" fill="black"/>
<path id="Vector_175" d="M668.488 203.714C667.152 203.607 665.823 203.42 664.507 203.157C659.345 202.128 646.331 199.969 642.83 203.633C638.437 208.207 639.902 216.216 651.621 217.36C663.34 218.503 683.483 215.454 687.515 210.875C687.515 210.856 680.225 204.653 668.488 203.714Z" fill="#535461"/>
<path id="Vector_176" d="M666.639 234.502L766.624 202.09L769.919 210.099L667.371 246.704L666.639 234.502Z" fill="#6C63FF"/>
<path id="Vector_177" d="M696.305 285.601L768.454 211.623L772.481 217.722L703.627 292.462L696.305 285.601Z" fill="#6C63FF"/>
<path id="Vector_178" opacity="0.1" d="M788.442 260.445C786.156 261.06 783.927 261.884 781.78 262.908L777.405 250.182C779.701 249.14 782.065 248.269 784.479 247.576L788.442 260.445Z" fill="black"/>
<path id="Vector_179" d="M800.683 297.803L795.558 300.852L759.801 196.83L758.2 192.175L766.624 187.215L768.734 194.066L800.683 297.803Z" fill="#6C63FF"/>
<path id="Vector_180" opacity="0.1" d="M768.734 194.066L759.801 196.83L758.2 192.175L766.624 187.215L768.734 194.066Z" fill="black"/>
<path id="Vector_181" d="M714.248 202.09L764.423 184.166C764.423 184.166 773.213 185.309 769.914 192.937L719.377 208.569C719.377 208.569 711.69 209.331 714.248 202.09Z" fill="#535461"/>
<path id="Vector_182" opacity="0.1" d="M657.666 301.424C657.665 304.346 657.448 307.264 657.016 310.152C652.623 309.823 648.084 309.347 643.636 308.87C644.624 303.205 644.501 297.39 643.274 291.776C647.608 290.823 652.033 289.913 656.352 289.088C657.228 293.137 657.668 297.274 657.666 301.424Z" fill="black"/>
<path id="Vector_183" opacity="0.1" d="M669.202 286.902V297.036H659.679V288.46C662.974 287.864 666.177 287.335 669.202 286.902Z" fill="black"/>
<path id="Vector_184" d="M607.673 301.247C607.673 301.247 684.586 280.284 690.809 288.283C697.033 296.283 703.627 306.965 684.234 310.776C664.841 314.588 606.223 304.292 606.223 304.292L607.673 301.247Z" fill="#6C63FF"/>
<path id="Vector_185" opacity="0.1" d="M645.503 265.933L635.729 275.248C633.998 272.934 632.041 270.814 629.89 268.921L639.014 258.996C641.363 261.111 643.534 263.432 645.503 265.933Z" fill="black"/>
<path id="Vector_186" d="M605.111 297.04L662.608 234.502L664.443 248.991L608.039 302.758L605.111 297.04Z" fill="#6C63FF"/>
<path id="Vector_187" opacity="0.1" d="M694.47 307.336C700.942 307.336 706.189 301.873 706.189 295.134C706.189 288.396 700.942 282.933 694.47 282.933C687.998 282.933 682.751 288.396 682.751 295.134C682.751 301.873 687.998 307.336 694.47 307.336Z" fill="black"/>
<path id="Vector_188" d="M695.207 307.336C701.679 307.336 706.926 301.873 706.926 295.134C706.926 288.396 701.679 282.933 695.207 282.933C688.735 282.933 683.488 288.396 683.488 295.134C683.488 301.873 688.735 307.336 695.207 307.336Z" fill="#535461"/>
<path id="Vector_189" d="M692.078 294.218L692.074 294.221C690.698 295.292 690.417 297.323 691.446 298.756L700.747 311.706C701.776 313.138 703.726 313.431 705.103 312.36L705.106 312.357C706.482 311.285 706.764 309.255 705.735 307.822L696.433 294.872C695.404 293.439 693.454 293.146 692.078 294.218Z" fill="#6C63FF"/>
<path id="Vector_190" d="M748.128 125.677L747.039 140.023C746.914 141.84 746.937 143.665 747.108 145.478C747.249 147.084 747.107 149.895 745.597 154.183C743.659 159.661 742.657 165.45 742.637 171.287V187.615L732.112 185.709C732.112 185.709 732.57 162.84 730.739 159.028C728.909 155.217 732.112 121.389 732.112 121.389L748.128 125.677Z" fill="#DB8B8B"/>
<path id="Vector_191" opacity="0.05" d="M747.588 132.786L747.039 140.023C746.915 141.839 746.94 143.662 747.112 145.474C747.254 147.079 747.112 149.89 745.602 154.183C743.663 159.661 742.661 165.45 742.641 171.287V187.615L732.117 185.709C732.117 185.709 732.574 162.84 730.744 159.028C729.449 156.327 730.675 138.57 731.504 128.436C731.847 124.267 732.117 121.389 732.117 121.389L748.133 125.677L747.588 132.786Z" fill="black"/>
<path id="Vector_192" d="M695.971 235.26L692.013 258.701C691.514 261.83 690.748 264.908 689.725 267.896C687.405 274.5 688.888 283.757 690.013 288.807C690.512 291.037 690.928 292.447 690.928 292.447L679.031 299.118L675.37 296.259V294.353L674.913 251.95C672.167 245.279 673.082 235.274 674.913 231.462C675.433 230.21 675.799 228.894 676.002 227.546C676.917 222.438 677.201 215.263 677.201 215.263C677.201 215.263 684.522 202.399 693.216 210.975C696.42 214.134 697.637 218.265 697.893 222.219C698.341 228.99 695.971 235.26 695.971 235.26Z" fill="#DB8B8B"/>
<path id="Vector_193" opacity="0.1" d="M697.893 222.205C691.546 226.131 680.504 227.241 676.002 227.532C676.917 222.424 677.201 215.249 677.201 215.249C677.201 215.249 684.522 202.385 693.216 210.961C696.42 214.12 697.637 218.251 697.893 222.205Z" fill="black"/>
<path id="Vector_194" d="M713.351 210.484C708.485 213.183 703.886 216.374 699.623 220.013C692.301 226.207 673.997 226.684 673.997 226.684V219.537C674.455 210.961 666.676 201.432 656.151 174.751C649.429 157.713 651.291 148.07 653.515 143.306C654.778 140.614 656.151 139.494 656.151 139.494L713.351 150.929L715.396 157.313L719.757 170.94C719.757 170.94 703.741 171.892 700.996 173.322C698.25 174.751 700.08 187.615 700.08 187.615C697.335 200.956 713.351 210.484 713.351 210.484Z" fill="#ABB1D1"/>
<path id="Vector_195" opacity="0.1" d="M748.128 125.677L747.588 132.786C739.626 135.168 733.942 127.583 733.942 127.583C733.112 127.815 732.296 128.1 731.499 128.436C731.842 124.267 732.112 121.389 732.112 121.389L748.128 125.677Z" fill="black"/>
<path id="Vector_196" opacity="0.1" d="M715.396 157.313C715.181 159.538 715.181 160.934 715.181 160.934C715.181 160.934 704.656 169.987 686.81 156.17C668.964 142.353 652.948 146.164 652.948 146.164C652.948 146.164 653.136 145.059 653.515 143.306C654.778 140.614 656.151 139.494 656.151 139.494L713.351 150.929L715.396 157.313Z" fill="black"/>
<path id="Vector_197" d="M754.296 107.072C753.102 116.768 752.704 128.989 752.704 128.989C742.179 137.565 733.943 126.606 733.943 126.606C724.004 129.384 719.331 138.441 717.13 146.345C715.952 150.621 715.297 155.034 715.181 159.481C715.181 159.481 712.399 161.863 707.274 162.34C702.428 162.764 695.482 161.449 686.81 154.717C668.964 140.9 652.948 144.711 652.948 144.711C652.948 144.711 656.151 125.653 663.473 119.936C670.794 114.219 676.285 107.072 685.437 85.1555C694.589 63.2391 713.351 68.48 713.351 68.48C713.351 68.48 714.266 64.1919 731.197 68.48C735.321 69.6053 739.138 71.7107 742.349 74.6309C751.404 82.5589 755.797 94.856 754.296 107.072Z" fill="#333333"/>
<path id="Vector_198" d="M737.315 79.2238C737.292 79.8575 737.242 80.5626 737.159 81.3488C736.244 89.9248 735.329 88.9719 725.262 90.8777C719.002 92.064 715.748 86.6182 714.183 82.3302C713.617 80.7769 713.19 79.1724 712.907 77.5372L734.871 73.7256C734.871 73.7256 737.503 72.9586 737.315 79.2238Z" fill="#DB8B8B"/>
<path id="Vector_199" opacity="0.05" d="M717.13 146.369C715.951 150.645 715.297 155.058 715.181 159.505C715.181 159.505 712.399 161.887 707.274 162.364C707.129 162.06 707.019 161.74 706.944 161.411C706.029 157.123 699.165 149.499 699.165 149.499C694.589 145.211 693.674 137.588 693.674 137.588L686.124 114.481L683.607 112.337C683.607 112.337 694.132 103.761 703.284 110.907C712.435 118.054 709.69 133.3 709.69 133.3L711.52 138.541C713.419 140.209 715.35 143.148 717.13 146.369Z" fill="black"/>
<path id="Vector_200" d="M684.98 111.86L695.047 137.112C695.047 137.112 695.962 144.735 700.538 149.023C700.538 149.023 707.402 156.646 708.317 160.934C709.232 165.222 722.045 176.657 722.045 176.657C722.045 176.657 733.942 188.092 734.858 192.38C734.858 192.38 745.84 195.715 744.467 202.385C744.467 202.385 752.704 193.809 744.467 185.709C736.23 177.61 725.248 160.934 725.248 160.934C725.248 160.934 718.842 143.306 712.893 138.065L711.063 132.824C711.063 132.824 713.808 117.578 704.656 110.431C695.504 103.284 684.98 111.86 684.98 111.86Z" fill="#DB8B8B"/>
<path id="Vector_201" opacity="0.1" d="M690.928 292.433L679.031 299.103L675.37 296.245V294.339C679.481 294.035 683.475 292.78 687.062 290.665C688.16 290.017 689.194 289.379 690.022 288.817C690.503 291.023 690.928 292.433 690.928 292.433Z" fill="black"/>
<path id="Vector_202" opacity="0.1" d="M704.656 91.8496L711.063 118.054C711.063 118.054 691.386 121.389 687.268 118.054C683.149 114.719 675.37 113.766 675.37 113.766C675.37 113.766 683.607 88.9909 688.183 86.1323C692.759 83.2736 704.656 91.8496 704.656 91.8496Z" fill="black"/>
<path id="Vector_203" d="M704.656 90.8967L711.063 117.101C711.063 117.101 691.386 120.436 687.268 117.101C683.149 113.766 675.37 112.813 675.37 112.813C675.37 112.813 683.607 88.038 688.183 85.1794C692.759 82.3207 704.656 90.8967 704.656 90.8967Z" fill="white"/>
<path id="Vector_204" opacity="0.1" d="M737.315 78.7474C736.033 80.5894 734.403 82.139 732.525 83.3007C730.647 84.4625 728.56 85.2119 726.394 85.5029C724.227 85.7939 722.026 85.6202 719.926 84.9927C717.826 84.3651 715.872 83.2969 714.183 81.8538C713.617 80.3004 713.19 78.696 712.907 77.0608L734.871 73.2492C734.871 73.2492 737.503 72.4821 737.315 78.7474Z" fill="black"/>
<path id="Vector_205" d="M740.349 68.5038C740.349 72.9264 738.661 77.1679 735.658 80.2952C732.654 83.4225 728.581 85.1794 724.333 85.1794C720.085 85.1794 716.012 83.4225 713.008 80.2952C710.004 77.1679 708.317 72.9264 708.317 68.5038C708.317 68.2274 708.317 67.9511 708.317 67.6748C708.423 63.2521 710.211 59.0543 713.29 56.0048C716.368 52.9552 720.483 51.3038 724.731 51.4137C728.979 51.5236 733.01 53.3859 735.939 56.591C738.868 59.796 740.454 64.0811 740.349 68.5038Z" fill="#DB8B8B"/>
<path id="Vector_206" opacity="0.1" d="M740.349 68.5038C740.35 70.0407 740.147 71.5703 739.745 73.0491C738.507 73.33 737.216 73.2069 736.047 72.6965C734.336 71.9961 732.867 70.7907 731.224 69.9236C726.598 67.4842 721.093 67.9654 715.968 68.7706C713.424 69.1708 710.536 69.5424 708.537 67.8558C708.468 67.7994 708.402 67.7389 708.34 67.6748C708.446 63.2521 710.234 59.0543 713.312 56.0048C716.391 52.9552 720.506 51.3038 724.754 51.4137C729.002 51.5236 733.033 53.3859 735.962 56.591C738.891 59.796 740.477 64.0811 740.372 68.5038H740.349Z" fill="black"/>
<path id="Vector_207" opacity="0.05" d="M665.532 119.722C665.532 119.722 677.429 123.057 681.09 131.633C684.751 140.209 694.653 141.776 694.653 141.776" fill="black"/>
<path id="Vector_208" d="M710.376 308.394H682.92V317.446H710.376V308.394Z" fill="#6C63FF"/>
<path id="Vector_209" opacity="0.1" d="M710.376 308.394H682.92V317.446H710.376V308.394Z" fill="black"/>
<path id="Vector_210" d="M687.043 291.595C689.501 290.165 691.656 288.736 691.844 288.145C691.844 288.145 698.044 294.958 703.567 297.074C705.424 297.788 707.202 298.708 708.871 299.818C711.058 301.247 714.179 302.929 717.011 302.929C717.011 302.929 723.418 308.647 711.063 309.599C698.708 310.552 669.879 307.217 669.879 307.217L671.709 295.306C677.057 295.633 682.382 294.344 687.043 291.595Z" fill="#ABB1D1"/>
<g id="helmet 2">
<g clip-path="url(#clip1)">
<path id="Vector_211" d="M709.068 64.7227L711.217 66.6305C710.185 67.0747 709.103 67.5713 708.052 68.0429L705.884 66.1202L709.068 64.7227Z" fill="#2655CE"/>
<path id="Vector_212" d="M743.366 53.7052C737.794 67.0808 719.055 62.8831 716.109 62.5011C714.488 62.2909 710.993 63.9908 707.834 65.4033C705.251 66.5581 702.893 67.5202 701.965 67.0908C699.901 66.1349 696.366 60.3979 696.366 55.8083C696.366 53.74 697.712 49.189 700.794 44.8458C704.553 39.5494 710.895 34.564 720.529 34.7744C738.062 35.1565 743.366 53.7052 743.366 53.7052Z" fill="#66498C"/>
<path id="Vector_213" d="M707.834 65.4032C705.251 66.558 702.893 67.5201 701.965 67.0907C699.901 66.1349 696.366 60.398 696.366 55.8083C696.366 53.74 697.712 49.189 700.794 44.8458L715.447 55.4723C715.447 55.4723 705.965 57.1921 707.834 65.4032Z" fill="#3B5173"/>
<path id="Vector_214" d="M743.366 53.7052C743.313 53.8346 743.257 53.9628 743.2 54.0885C731.24 55.5557 719.145 55.8955 707.123 55.1078C703.595 54.8763 700.074 54.5478 696.564 54.1221C697.638 48.7734 703.183 37.5072 715.357 35.1913C715.358 35.1901 715.359 35.1901 715.359 35.1901C716.965 34.8839 718.687 34.7346 720.529 34.7744C738.062 35.1565 743.366 53.7052 743.366 53.7052Z" fill="#42A8E2"/>
<path id="Vector_215" d="M707.123 55.1064V55.1076C703.595 54.8761 700.074 54.5477 696.564 54.122C697.638 48.7734 703.183 37.5072 715.357 35.1913C715.202 35.2808 703.846 41.9176 707.123 55.1064Z" fill="#2655CE"/>
<g id="Group_2">
<path id="Vector_216" d="M703.165 44.5492C702.899 44.5492 702.643 44.3564 702.518 44.0248C702.344 43.5616 702.492 43.0027 702.849 42.7767C707.947 39.5478 713.946 37.9722 720.676 38.0934C724.609 38.1645 728.317 38.8666 731.697 40.1799C732.078 40.3278 732.294 40.8479 732.18 41.3418C732.066 41.8356 731.666 42.1161 731.285 41.9682C728.032 40.7044 724.456 40.0287 720.656 39.96C714.154 39.843 708.374 41.3549 703.48 44.4543C703.379 44.5187 703.271 44.5492 703.165 44.5492Z" fill="#66498C"/>
<path id="Vector_217" d="M739.612 52.013C739.476 52.013 739.339 51.9634 739.218 51.8596C734.113 47.5095 727.868 45.2376 720.656 45.1072C716.431 45.031 712.47 45.6525 708.884 46.9544C708.501 47.0932 708.104 46.8033 707.997 46.3069C707.89 45.8104 708.114 45.2955 708.496 45.1565C712.215 43.8067 716.311 43.1615 720.676 43.2406C728.166 43.3761 734.67 45.7509 740.007 50.2993C740.339 50.5821 740.431 51.1608 740.213 51.5918C740.075 51.8648 739.846 52.0129 739.612 52.013Z" fill="#66498C"/>
<path id="Vector_218" d="M700.118 51.9271C699.882 51.9271 699.651 51.7768 699.514 51.5011C699.298 51.0684 699.393 50.4906 699.726 50.2102C701.668 48.5775 703.822 47.2062 706.127 46.1346C706.501 45.9607 706.913 46.2133 707.047 46.6986C707.18 47.184 706.986 47.7182 706.612 47.892C704.411 48.9152 702.357 50.2223 700.508 51.7769C700.387 51.8786 700.252 51.9271 700.118 51.9271Z" fill="#66498C"/>
</g>
</g>
</g>
</g>
</g>
<line id="Line 1" x1="0.998457" y1="359.5" x2="973.998" y2="356.497" stroke="black"/>
<defs>
<clipPath id="clip0">
<rect x="279.366" y="31" width="47" height="61" fill="white"/>
</clipPath>
<clipPath id="clip1">
<rect x="696.366" y="29" width="47" height="61" fill="white"/>
</clipPath>
</defs>
</svg>
