<?xml version="1.0"?>
<svg xmlns="http://www.w3.org/2000/svg" viewBox="0 0 64 64" width="512" height="512"><g id="filled_outline" data-name="filled outline"><path d="M9.485,61h0a6.484,6.484,0,0,0,4.372-1.7L32.039,42.7a12,12,0,0,1,6.953-3.084l11.619-1.107a8,8,0,0,0,6.916-5.706L60.49,22.732A12.535,12.535,0,0,0,61,19.194h0a12.539,12.539,0,0,0-3.673-8.867L53.673,6.673A12.539,12.539,0,0,0,44.806,3h0a12.535,12.535,0,0,0-3.538.51L31.193,6.473a8,8,0,0,0-5.706,6.916L24.38,25.008A12,12,0,0,1,21.3,31.961L4.7,50.143A6.484,6.484,0,0,0,3,54.515H3A6.484,6.484,0,0,0,9.485,61Z" style="fill:#616161"/><path d="M27.33,47h4.9a2,2,0,0,0,1.34-.515l7.879-7.1h.01l6.74-.64L36.727,49.4A6,6,0,0,1,32.643,51H23Z" style="fill:#d1d1cf"/><path d="M27.33,47h4.9a2,2,0,0,0,1.34-.515l7.879-7.1h.01l6.74-.64L36.727,49.4A6,6,0,0,1,32.643,51H23Z" style="fill:#d1d1cf"/><path d="M20.49,43.49a2.23,2.23,0,0,0,3.084.067L58.367,11.526a12.545,12.545,0,0,0-1.04-1.2L53.673,6.673a12.545,12.545,0,0,0-1.825-1.5L20.4,40.428A2.231,2.231,0,0,0,20.49,43.49Z" style="fill:#4d4d4d"/><polygon points="27.33 47 23 51 25.919 51 30.3 47 27.33 47" style="fill:#bfbfbd"/><path d="M41.46,39.38h-.01l-2.511,2.264c.081-.009.161-.025.243-.033l6.6-.628L48.2,38.74Z" style="fill:#bfbfbd"/><path d="M54.38,5.966a13.535,13.535,0,0,0-13.4-3.415L30.911,5.514a8.957,8.957,0,0,0-6.42,7.78L23.385,24.913a11.083,11.083,0,0,1-2.827,6.375l-16.6,18.18A7.484,7.484,0,0,0,14.531,60.042L23.339,52h9.305a6.976,6.976,0,0,0,4.763-1.871L48.629,39.707l2.077-.2a8.957,8.957,0,0,0,7.78-6.42l2.963-10.074a13.535,13.535,0,0,0-3.415-13.4ZM52.966,7.38l3.654,3.654c.153.153.29.318.433.477L22.9,42.82a1.231,1.231,0,0,1-1.75-1.726L51.989,6.515A11.871,11.871,0,0,1,52.966,7.38ZM36.046,48.664A4.987,4.987,0,0,1,32.644,50H25.53l2.19-2h4.511a3,3,0,0,0,2.009-.772l7.627-6.877,3.488-.333ZM29.911,46l2.8-2.558A11.08,11.08,0,0,1,38.5,40.7l-5.6,5.046a1,1,0,0,1-.669.258ZM60,19.194a11.543,11.543,0,0,1-.469,3.256L56.568,32.524a6.969,6.969,0,0,1-6.051,4.995l-9.067.863v0c-.007,0-.015,0-.022,0l-2.531.241a13.08,13.08,0,0,0-7.533,3.341l-18.181,16.6a5.485,5.485,0,0,1-7.748-7.749l16.6-18.18A13.08,13.08,0,0,0,25.375,25.1l1.106-11.62a6.969,6.969,0,0,1,4.995-6.051L41.55,4.469a11.548,11.548,0,0,1,8.758.925L19.656,39.763a3.23,3.23,0,0,0,4.594,4.531L58.261,13.117A11.457,11.457,0,0,1,60,19.194Z"/></g></svg>
